<svg viewBox="0 0 120 40" xmlns="http://www.w3.org/2000/svg">
  <defs>
    <clipPath id="clippath0" transform="">
      <path d="M 0 40 L 119.664 40 L 119.664 0 L 0 0 Z" style="fill: none; clip-rule: nonzero;"></path>
    </clipPath>
  </defs>
  <g transform="matrix(1, 0, 0, -1, 0, 40)">
    <g transform="">
      <path d="M 0 40 L 119.664 40 L 119.664 0 L 0 0 Z" style="fill: none;"></path>
    </g>
    <g style="clip-path: url(#clippath0);">
      <g transform="translate(110.1348 40)">
        <path d="M 0 0 L -100.6 0 C -100.967 0 -101.329 0 -101.695 -0.002 C -102.001 -0.004 -102.305 -0.01 -102.614 -0.015 C -103.285 -0.022 -103.955 -0.082 -104.618 -0.191 C -105.279 -0.304 -105.92 -0.515 -106.519 -0.818 C -107.116 -1.125 -107.663 -1.522 -108.137 -1.997 C -108.614 -2.471 -109.012 -3.018 -109.315 -3.618 C -109.619 -4.217 -109.83 -4.859 -109.94 -5.521 C -110.052 -6.183 -110.112 -6.853 -110.12 -7.523 C -110.129 -7.83 -110.13 -8.138 -110.135 -8.444 L -110.135 -31.559 C -110.13 -31.869 -110.129 -32.17 -110.12 -32.48 C -110.112 -33.151 -110.052 -33.82 -109.94 -34.482 C -109.831 -35.146 -109.62 -35.787 -109.315 -36.387 C -109.012 -36.984 -108.615 -37.53 -108.137 -38.001 C -107.664 -38.479 -107.118 -38.876 -106.519 -39.18 C -105.92 -39.484 -105.279 -39.697 -104.618 -39.811 C -103.955 -39.92 -103.285 -39.979 -102.614 -39.987 C -102.305 -39.994 -102.001 -39.998 -101.695 -39.998 C -101.329 -40 -100.967 -40 -100.6 -40 L 0 -40 C 0.359 -40 0.725 -40 1.084 -39.998 C 1.389 -39.998 1.701 -39.994 2.006 -39.987 C 2.676 -39.979 3.345 -39.92 4.006 -39.811 C 4.67 -39.695 5.312 -39.483 5.914 -39.18 C 6.513 -38.876 7.059 -38.479 7.531 -38.001 C 8.008 -37.528 8.406 -36.983 8.713 -36.387 C 9.015 -35.787 9.224 -35.145 9.332 -34.482 C 9.443 -33.82 9.506 -33.151 9.518 -32.48 C 9.521 -32.17 9.521 -31.869 9.521 -31.559 C 9.529 -31.195 9.529 -30.834 9.529 -30.465 L 9.529 -9.536 C 9.529 -9.17 9.529 -8.807 9.521 -8.444 C 9.521 -8.138 9.521 -7.83 9.518 -7.523 C 9.506 -6.853 9.443 -6.183 9.332 -5.521 C 9.223 -4.859 9.015 -4.218 8.713 -3.618 C 8.096 -2.415 7.117 -1.436 5.914 -0.818 C 5.312 -0.516 4.67 -0.304 4.006 -0.191 C 3.345 -0.081 2.676 -0.022 2.006 -0.015 C 1.701 -0.01 1.389 -0.004 1.084 -0.002 C 0.725 0 0.359 0 0 0" style="fill: rgb(0, 0, 0); fill-opacity: 1;"></path>
      </g>
    </g>
    <g style="clip-path: url(#clippath0);">
      <g transform="translate(8.4448 0.875)">
        <path d="M 0 0 C -0.305 0 -0.602 0.004 -0.904 0.011 C -1.53 0.02 -2.155 0.073 -2.773 0.174 C -3.35 0.273 -3.908 0.458 -4.43 0.722 C -4.947 0.983 -5.419 1.326 -5.827 1.738 C -6.241 2.145 -6.586 2.617 -6.848 3.135 C -7.112 3.656 -7.295 4.215 -7.391 4.792 C -7.494 5.412 -7.549 6.039 -7.557 6.667 C -7.563 6.878 -7.572 7.58 -7.572 7.58 L -7.572 30.681 C -7.572 30.681 -7.563 31.372 -7.557 31.575 C -7.549 32.203 -7.494 32.828 -7.392 33.447 C -7.296 34.026 -7.113 34.586 -6.848 35.109 C -6.587 35.627 -6.245 36.099 -5.833 36.507 C -5.422 36.919 -4.949 37.265 -4.431 37.53 C -3.91 37.793 -3.353 37.976 -2.777 38.074 C -2.157 38.175 -1.53 38.23 -0.902 38.238 L 0 38.25 L 102.769 38.25 L 103.682 38.237 C 104.305 38.23 104.926 38.176 105.541 38.075 C 106.122 37.976 106.684 37.792 107.211 37.527 C 108.25 36.992 109.094 36.146 109.626 35.107 C 109.887 34.587 110.067 34.031 110.162 33.458 C 110.266 32.834 110.324 32.203 110.335 31.571 C 110.338 31.288 110.338 30.983 110.338 30.681 C 110.346 30.306 110.346 29.949 110.346 29.589 L 110.346 8.66 C 110.346 8.297 110.346 7.942 110.338 7.585 C 110.338 7.26 110.338 6.962 110.334 6.655 C 110.323 6.034 110.266 5.414 110.164 4.802 C 110.071 4.221 109.888 3.657 109.624 3.132 C 109.36 2.619 109.017 2.152 108.608 1.746 C 108.2 1.332 107.727 0.987 107.208 0.724 C 106.683 0.457 106.122 0.272 105.541 0.174 C 104.922 0.072 104.297 0.019 103.671 0.011 C 103.378 0.004 103.072 0 102.774 0 L 101.69 -0.002 Z" style="fill: rgb(255, 255, 255); fill-opacity: 1;"></path>
      </g>
    </g>
    <g style="clip-path: url(#clippath0);">
      <g transform="translate(24.9966 20.1108)">
        <path d="M 0 0 C 0.023 1.764 0.948 3.394 2.451 4.317 C 1.498 5.678 -0.04 6.509 -1.7 6.561 C -3.446 6.745 -5.139 5.516 -6.029 5.516 C -6.936 5.516 -8.306 6.543 -9.781 6.513 C -11.722 6.45 -13.488 5.373 -14.433 3.676 C -16.444 0.194 -14.943 -4.923 -13.017 -7.738 C -12.053 -9.117 -10.927 -10.656 -9.453 -10.601 C -8.01 -10.542 -7.472 -9.681 -5.73 -9.681 C -4.005 -9.681 -3.5 -10.601 -1.996 -10.566 C -0.448 -10.542 0.527 -9.182 1.457 -7.791 C 2.149 -6.808 2.682 -5.723 3.036 -4.575 C 1.198 -3.797 0.002 -1.996 0 0" style="fill: rgb(0, 0, 0); fill-opacity: 1;"></path>
      </g>
    </g>
    <g style="clip-path: url(#clippath0);">
      <g transform="translate(22.1563 28.5234)">
        <path d="M 0 0 C 0.844 1.013 1.26 2.315 1.159 3.63 C -0.13 3.494 -1.321 2.878 -2.177 1.904 C -3.021 0.942 -3.449 -0.315 -3.366 -1.592 C -2.06 -1.605 -0.819 -1.019 0 0" style="fill: rgb(0, 0, 0); fill-opacity: 1;"></path>
      </g>
    </g>
    <g style="clip-path: url(#clippath0);">
      <g transform="translate(38.0586 14.4092)">
        <path d="M 0 0 L 3.752 0 L 1.902 5.447 L 1.851 5.447 Z M 4.243 -1.549 L -0.49 -1.549 L -1.627 -4.905 L -3.632 -4.905 L 0.852 7.513 L 2.935 7.513 L 7.418 -4.905 L 5.379 -4.905 Z" style="fill: rgb(0, 0, 0); fill-opacity: 1;"></path>
      </g>
    </g>
    <g style="clip-path: url(#clippath0);">
      <g transform="translate(53.249 14.0303)">
        <path d="M 0 0 C 0 1.833 -0.947 3.038 -2.393 3.038 C -3.813 3.038 -4.768 1.808 -4.768 0 C -4.768 -1.824 -3.813 -3.046 -2.393 -3.046 C -0.947 -3.046 0 -1.85 0 0 M 1.91 0 C 1.91 -2.813 0.404 -4.621 -1.868 -4.621 C -3.043 -4.683 -4.149 -4.067 -4.717 -3.037 L -4.76 -3.037 L -4.76 -7.521 L -6.618 -7.521 L -6.618 4.527 L -4.819 4.527 L -4.819 3.021 L -4.785 3.021 C -4.192 4.046 -3.085 4.66 -1.902 4.622 C 0.396 4.622 1.91 2.806 1.91 0" style="fill: rgb(0, 0, 0); fill-opacity: 1;"></path>
      </g>
    </g>
    <g style="clip-path: url(#clippath0);">
      <g transform="translate(63.2139 14.0303)">
        <path d="M 0 0 C 0 1.833 -0.947 3.038 -2.393 3.038 C -3.813 3.038 -4.768 1.808 -4.768 0 C -4.768 -1.824 -3.813 -3.046 -2.393 -3.046 C -0.947 -3.046 0 -1.85 0 0 M 1.911 0 C 1.911 -2.813 0.404 -4.621 -1.868 -4.621 C -3.043 -4.683 -4.149 -4.067 -4.717 -3.037 L -4.76 -3.037 L -4.76 -7.521 L -6.618 -7.521 L -6.618 4.527 L -4.819 4.527 L -4.819 3.021 L -4.785 3.021 C -4.192 4.046 -3.085 4.66 -1.902 4.622 C 0.396 4.622 1.911 2.806 1.911 0" style="fill: rgb(0, 0, 0); fill-opacity: 1;"></path>
      </g>
    </g>
    <g style="clip-path: url(#clippath0);">
      <g transform="translate(71.709 12.9639)">
        <path d="M 0 0 C 0.139 -1.231 1.334 -2.04 2.969 -2.04 C 4.535 -2.04 5.662 -1.231 5.662 -0.121 C 5.662 0.843 4.982 1.42 3.373 1.815 L 1.764 2.203 C -0.516 2.754 -1.574 3.82 -1.574 5.551 C -1.574 7.693 0.293 9.165 2.943 9.165 C 5.568 9.165 7.367 7.693 7.428 5.551 L 5.551 5.551 C 5.439 6.79 4.414 7.538 2.918 7.538 C 1.42 7.538 0.396 6.781 0.396 5.68 C 0.396 4.802 1.051 4.285 2.65 3.89 L 4.02 3.554 C 6.566 2.951 7.625 1.928 7.625 0.111 C 7.625 -2.212 5.775 -3.667 2.832 -3.667 C 0.078 -3.667 -1.781 -2.246 -1.902 0 Z" style="fill: rgb(0, 0, 0); fill-opacity: 1;"></path>
      </g>
    </g>
    <g style="clip-path: url(#clippath0);">
      <g transform="translate(83.3457 20.7002)">
        <path d="M 0 0 L 0 -2.143 L 1.723 -2.143 L 1.723 -3.614 L 0 -3.614 L 0 -8.605 C 0 -9.381 0.346 -9.742 1.102 -9.742 C 1.307 -9.739 1.511 -9.724 1.713 -9.699 L 1.713 -11.162 C 1.373 -11.226 1.027 -11.255 0.682 -11.248 C -1.152 -11.248 -1.867 -10.56 -1.867 -8.804 L -1.867 -3.614 L -3.184 -3.614 L -3.184 -2.143 L -1.867 -2.143 L -1.867 0 Z" style="fill: rgb(0, 0, 0); fill-opacity: 1;"></path>
      </g>
    </g>
    <g style="clip-path: url(#clippath0);">
      <g transform="translate(92.7598 14.0303)">
        <path d="M 0 0 C 0 1.954 -0.896 3.107 -2.402 3.107 C -3.908 3.107 -4.803 1.945 -4.803 0 C -4.803 -1.962 -3.908 -3.106 -2.402 -3.106 C -0.896 -3.106 0 -1.962 0 0 M -6.695 0 C -6.695 2.849 -5.018 4.639 -2.402 4.639 C 0.223 4.639 1.893 2.849 1.893 0 C 1.893 -2.856 0.232 -4.639 -2.402 -4.639 C -5.035 -4.639 -6.695 -2.856 -6.695 0" style="fill: rgb(0, 0, 0); fill-opacity: 1;"></path>
      </g>
    </g>
    <g style="clip-path: url(#clippath0);">
      <g transform="translate(96.1855 18.5576)">
        <path d="M 0 0 L 1.771 0 L 1.771 -1.541 L 1.814 -1.541 C 2.063 -0.549 2.971 0.134 3.992 0.095 C 4.207 0.096 4.42 0.072 4.629 0.025 L 4.629 -1.713 C 4.359 -1.63 4.077 -1.593 3.795 -1.601 C 2.762 -1.559 1.889 -2.362 1.848 -3.396 C 1.844 -3.491 1.848 -3.588 1.857 -3.684 L 1.857 -9.054 L 0 -9.054 Z" style="fill: rgb(0, 0, 0); fill-opacity: 1;"></path>
      </g>
    </g>
    <g style="clip-path: url(#clippath0);">
      <g transform="translate(103.1016 14.8652)">
        <path d="M 0 0 L 4.525 0 C 4.593 1.201 3.674 2.229 2.473 2.295 C 2.417 2.298 2.361 2.299 2.305 2.298 C 1.039 2.306 0.008 1.285 0 0.02 Z M 6.281 -2.702 C 6.031 -4.346 4.432 -5.474 2.383 -5.474 C -0.25 -5.474 -1.885 -3.709 -1.885 -0.878 C -1.885 1.962 -0.242 3.804 2.305 3.804 C 4.811 3.804 6.385 2.083 6.385 -0.662 L 6.385 -1.299 L -0.01 -1.299 L -0.01 -1.411 C -0.124 -2.709 0.834 -3.854 2.131 -3.968 C 2.229 -3.977 2.328 -3.979 2.426 -3.976 C 3.328 -4.061 4.178 -3.542 4.518 -2.702 Z" style="fill: rgb(0, 0, 0); fill-opacity: 1;"></path>
      </g>
    </g>
    <g style="clip-path: url(#clippath0);">
      <g transform="translate(36.7383 28.7466)">
        <path d="M 0 0 L 0.798 0 C 1.347 -0.068 1.848 0.321 1.916 0.871 C 1.919 0.897 1.922 0.924 1.923 0.951 C 1.923 1.501 1.509 1.857 0.807 1.857 C 0.225 1.938 -0.312 1.533 -0.394 0.951 C -0.395 0.941 -0.396 0.932 -0.397 0.922 L -1.273 0.922 C -1.213 1.954 -0.328 2.741 0.704 2.68 C 0.748 2.677 0.792 2.673 0.835 2.667 C 2.01 2.667 2.837 2.01 2.837 1.063 C 2.843 0.409 2.391 -0.159 1.753 -0.302 L 1.753 -0.372 C 2.517 -0.406 3.11 -1.051 3.08 -1.815 C 2.967 -2.91 1.988 -3.707 0.894 -3.594 C 0.879 -3.592 0.865 -3.59 0.852 -3.589 C -0.234 -3.737 -1.233 -2.977 -1.381 -1.892 C -1.385 -1.869 -1.387 -1.846 -1.39 -1.823 L -0.5 -1.823 C -0.446 -2.394 0.078 -2.762 0.852 -2.762 C 1.625 -2.762 2.13 -2.349 2.13 -1.766 C 2.13 -1.174 1.654 -0.81 0.823 -0.81 L 0 -0.81 Z" style="fill: rgb(0, 0, 0); fill-opacity: 1;"></path>
      </g>
    </g>
    <g style="clip-path: url(#clippath0);">
      <g transform="translate(43.7236 26.9604)">
        <path d="M 0 0 L 0 0.376 L -1.1 0.306 C -1.72 0.265 -2.001 0.054 -2.001 -0.343 C -2.001 -0.749 -1.649 -0.984 -1.166 -0.984 C -0.583 -1.043 -0.062 -0.619 -0.003 -0.035 Z M -2.895 -0.385 C -2.895 0.426 -2.29 0.893 -1.22 0.959 L 0 1.03 L 0 1.418 C 0 1.894 -0.313 2.163 -0.922 2.163 C -1.418 2.163 -1.761 1.98 -1.86 1.662 L -2.721 1.662 C -2.63 2.436 -1.901 2.932 -0.88 2.932 C 0.249 2.932 0.886 2.37 0.886 1.418 L 0.886 -1.658 L 0.029 -1.658 L 0.029 -1.025 L -0.041 -1.025 C -0.332 -1.488 -0.848 -1.758 -1.394 -1.732 C -2.141 -1.81 -2.81 -1.268 -2.887 -0.52 C -2.892 -0.475 -2.895 -0.43 -2.895 -0.385" style="fill: rgb(0, 0, 0); fill-opacity: 1;"></path>
      </g>
    </g>
    <g style="clip-path: url(#clippath0);">
      <g transform="translate(46.9678 29.0571)">
        <path d="M 0 0 L 0 -3.755 L -0.889 -3.755 L -0.889 0.748 L 2.076 0.748 L 2.076 0 Z" style="fill: rgb(0, 0, 0); fill-opacity: 1;"></path>
      </g>
    </g>
    <g style="clip-path: url(#clippath0);">
      <g transform="translate(53.5156 27.5557)">
        <path d="M 0 0 C 0 0.951 -0.45 1.526 -1.203 1.526 C -1.951 1.526 -2.419 0.939 -2.419 -0.004 C -2.419 -0.942 -1.951 -1.53 -1.207 -1.53 C -0.45 -1.53 0 -0.955 0 0 M 0.914 0 C 0.914 -1.431 0.19 -2.328 -0.946 -2.328 C -1.516 -2.367 -2.057 -2.071 -2.332 -1.571 L -2.402 -1.571 L -2.402 -3.75 L -3.291 -3.75 L -3.291 2.25 L -2.436 2.25 L -2.436 1.505 L -2.369 1.505 C -2.089 2.022 -1.543 2.339 -0.955 2.324 C 0.19 2.324 0.914 1.431 0.914 0" style="fill: rgb(0, 0, 0); fill-opacity: 1;"></path>
      </g>
    </g>
    <g style="clip-path: url(#clippath0);">
      <g transform="translate(55.6133 23.6895)">
        <path d="M 0 0 L 0 0.765 C 0.096 0.753 0.193 0.748 0.29 0.749 C 0.682 0.72 1.033 0.99 1.104 1.377 L 1.171 1.596 L -0.459 6.116 L 0.509 6.116 L 1.638 2.539 L 1.708 2.539 L 2.833 6.116 L 3.775 6.116 L 2.097 1.427 C 1.712 0.331 1.286 -0.021 0.368 -0.021 C 0.294 -0.021 0.083 -0.012 0 0" style="fill: rgb(0, 0, 0); fill-opacity: 1;"></path>
      </g>
    </g>
    <g style="clip-path: url(#clippath0);">
      <g transform="translate(60.0811 26.5801)">
        <path d="M 0 0 L 0.885 0 C 0.972 -0.397 1.344 -0.604 1.864 -0.604 C 2.456 -0.604 2.819 -0.343 2.819 0.062 C 2.819 0.496 2.493 0.703 1.864 0.703 L 1.19 0.703 L 1.19 1.394 L 1.853 1.394 C 2.39 1.394 2.663 1.6 2.663 1.977 C 2.663 2.307 2.398 2.56 1.853 2.56 C 1.355 2.56 0.992 2.349 0.935 1.993 L 0.078 1.993 C 0.211 2.843 1.001 3.43 1.853 3.312 C 2.923 3.312 3.535 2.828 3.535 2.067 C 3.546 1.631 3.249 1.247 2.824 1.146 L 2.824 1.075 C 3.332 1.01 3.711 0.574 3.705 0.062 C 3.705 -0.794 2.977 -1.36 1.864 -1.36 C 0.881 -1.36 0.082 -0.91 0 0" style="fill: rgb(0, 0, 0); fill-opacity: 1;"></path>
      </g>
    </g>
    <g style="clip-path: url(#clippath0);">
      <g transform="translate(65.0664 25.3022)">
        <path d="M 0 0 L 0 4.503 L 0.881 4.503 L 0.881 1.406 L 0.951 1.406 L 3.025 4.503 L 3.906 4.503 L 3.906 0 L 3.025 0 L 3.025 3.114 L 2.959 3.114 L 0.881 0 Z" style="fill: rgb(0, 0, 0); fill-opacity: 1;"></path>
      </g>
    </g>
    <g style="clip-path: url(#clippath0);">
      <g transform="translate(73.8262 29.0571)">
        <path d="M 0 0 L -1.418 0 L -1.418 -3.755 L -2.309 -3.755 L -2.309 0 L -3.727 0 L -3.727 0.748 L 0 0.748 Z" style="fill: rgb(0, 0, 0); fill-opacity: 1;"></path>
      </g>
    </g>
    <g style="clip-path: url(#clippath0);">
      <g transform="translate(75.4863 27.9692)">
        <path d="M 0 0 L 2.273 0 C 2.318 0.598 1.869 1.119 1.271 1.164 C 1.236 1.167 1.201 1.167 1.166 1.167 C 0.531 1.175 0.01 0.667 0 0.032 Z M 3.127 -1.451 C 2.877 -2.3 2.055 -2.849 1.174 -2.754 C 0.045 -2.784 -0.895 -1.893 -0.924 -0.763 C -0.928 -0.652 -0.921 -0.54 -0.906 -0.43 C -1.059 0.707 -0.26 1.752 0.877 1.905 C 0.975 1.917 1.072 1.924 1.17 1.923 C 2.424 1.923 3.18 1.067 3.18 -0.347 L 3.18 -0.657 L 0 -0.657 L 0 -0.707 C -0.055 -1.361 0.43 -1.937 1.084 -1.993 C 1.123 -1.996 1.161 -1.998 1.199 -1.997 C 1.635 -2.049 2.057 -1.833 2.27 -1.451 Z" style="fill: rgb(0, 0, 0); fill-opacity: 1;"></path>
      </g>
    </g>
    <g style="clip-path: url(#clippath0);">
      <g transform="translate(83.2617 27.3037)">
        <path d="M 0 0 L 0 -1.319 L 1.053 -1.319 C 1.578 -1.319 1.859 -1.087 1.859 -0.662 C 1.859 -0.211 1.541 0 0.941 0 Z M 0 1.819 L 0 0.653 L 0.881 0.653 C 1.418 0.653 1.674 0.86 1.674 1.241 C 1.674 1.592 1.451 1.819 0.979 1.819 Z M -0.881 2.501 L 1.148 2.501 C 2.029 2.501 2.547 2.055 2.547 1.356 C 2.549 0.899 2.232 0.503 1.785 0.405 L 1.785 0.335 C 2.332 0.3 2.755 -0.156 2.748 -0.703 C 2.748 -1.489 2.158 -2.001 1.17 -2.001 L -0.881 -2.001 Z" style="fill: rgb(0, 0, 0); fill-opacity: 1;"></path>
      </g>
    </g>
  </g>
</svg>