<svg width="32" height="32" xmlns="http://www.w3.org/2000/svg">

 <g>
  <title>background</title>
  <rect fill="none" id="canvas_background" height="402" width="582" y="-1" x="-1"/>
 </g>
 <g>
  <title>Layer 1</title>
  <polyline id="svg_2" stroke-width="2" stroke-miterlimit="10" stroke-linejoin="round" stroke-linecap="round" stroke="#FFFFFF" points="   649,137.999 675,137.999 675,155.999 661,155.999  " fill="none"/>
  <polyline id="svg_3" stroke-width="2" stroke-miterlimit="10" stroke-linejoin="round" stroke-linecap="round" stroke="#FFFFFF" points="   653,155.999 649,155.999 649,141.999  " fill="none"/>
  <polyline id="svg_4" stroke-width="2" stroke-miterlimit="10" stroke-linejoin="round" stroke-linecap="round" stroke="#FFFFFF" points="   661,156 653,162 653,156  " fill="none"/>
  <path fill="#ffffff" id="svg_6" d="m11.312,12.766c0.194,0.195 0.449,0.292 0.704,0.292c0.255,0 0.51,-0.097 0.704,-0.292c0.389,-0.389 0.389,-1.02 0,-1.409l-7.965,-7.973c-0.389,-0.389 -1.019,-0.389 -1.408,0s-0.389,1.02 0,1.409l7.965,7.973z"/>
  <path fill="#ffffff" id="svg_7" d="m17.407,16.048l11.245,-11.255c0.389,-0.389 0.389,-1.02 0,-1.409c-0.389,-0.389 -1.019,-0.561 -1.408,-0.171l-11.948,11.787c0,0 -0.296,0 -0.296,0s0,0.345 0,0.345l-11.8,11.958c-0.389,0.389 -0.315,1.02 0.073,1.409c0.194,0.195 0.486,0.292 0.741,0.292s0.528,-0.097 0.722,-0.292l11.254,-11.254l11.249,11.255c0.194,0.195 0.452,0.292 0.706,0.292s0.511,-0.097 0.705,-0.292c0.389,-0.389 0.39,-1.02 0.001,-1.409l-11.244,-11.256z"/>
 </g>
</svg>