<svg viewBox="0 0 57 57" xmlns="http://www.w3.org/2000/svg">
  <defs>
    <clipPath id="clippath0" transform="">
      <path d="M 0 56.333 L 56.333 56.333 L 56.333 0 L 0 0 Z" style="fill: none; clip-rule: nonzero;"></path>
    </clipPath>
  </defs>
  <g transform="matrix(1, 0, 0, -1, 0, 57)">
    <g transform="">
      <path d="M 0 56.333 L 56.333 56.333 L 56.333 0 L 0 0 Z" style="fill: none;"></path>
    </g>
    <g style="clip-path: url(#clippath0);">
      <g transform="translate(56.333 28.1665)">
        <path d="M 0 0 C 0 -15.556 -12.61 -28.167 -28.167 -28.167 C -43.723 -28.167 -56.333 -15.556 -56.333 0 C -56.333 15.556 -43.723 28.167 -28.167 28.167 C -12.61 28.167 0 15.556 0 0" style="fill: rgb(55, 103, 246); fill-opacity: 1;"></path>
      </g>
    </g>
    <g style="clip-path: url(#clippath0);">
      <g transform="translate(37.772 47.3721)">
        <path d="M 0 0 L -4.983 0.007 C -10.582 0.007 -14.199 -3.704 -14.199 -9.449 L -14.199 -13.81 L -19.209 -13.81 C -19.643 -13.81 -19.993 -14.161 -19.993 -14.593 L -19.993 -20.911 C -19.993 -21.344 -19.643 -21.694 -19.209 -21.694 L -14.199 -21.694 L -14.199 -37.635 C -14.199 -38.068 -13.849 -38.419 -13.416 -38.419 L -6.878 -38.419 C -6.446 -38.419 -6.096 -38.068 -6.096 -37.635 L -6.096 -21.694 L -0.237 -21.694 C 0.196 -21.694 0.547 -21.344 0.547 -20.911 L 0.549 -14.593 C 0.549 -14.386 0.466 -14.186 0.32 -14.04 C 0.173 -13.892 -0.027 -13.81 -0.234 -13.81 L -6.096 -13.81 L -6.096 -10.113 C -6.096 -8.337 -5.672 -7.435 -3.358 -7.435 L 0 -7.434 C 0.432 -7.434 0.782 -7.083 0.782 -6.65 L 0.782 -0.784 C 0.782 -0.352 0.432 -0.001 0 0" style="fill: rgb(255, 255, 255); fill-opacity: 1;"></path>
      </g>
    </g>
  </g>
</svg>