<svg viewBox="0 0 57 57" xmlns="http://www.w3.org/2000/svg">
  <defs>
    <clipPath id="clippath2" transform="">
      <path d="M 0 56.332 L 56.333 56.332 L 56.333 0 L 0 0 Z" style="fill: none; clip-rule: nonzero;"></path>
    </clipPath>
    <clipPath id="clippath3" transform="">
      <path d="M 0 56.332 L 56.333 56.332 L 56.333 0 L 0 0 Z" style="fill: none; clip-rule: nonzero;"></path>
    </clipPath> 
  </defs>
  <g transform="matrix(1, 0, 0, -1, 0, 57)">
    <g transform="">
      <path d="M 0 56.332 L 56.333 56.332 L 56.333 0 L 0 0 Z" style="fill: none;"></path>
    </g>
    <g style="clip-path: url(#clippath2);">
      <g transform="translate(56.333 28.166)">
        <path d="M 0 0 C 0 -15.556 -12.611 -28.166 -28.167 -28.166 C -43.723 -28.166 -56.333 -15.556 -56.333 0 C -56.333 15.556 -43.723 28.166 -28.167 28.166 C -12.611 28.166 0 15.556 0 0" style="fill: rgb(255, 255, 255); fill-opacity: 1;"></path>
      </g>
    </g>
    <g transform="">
      <path d="M 0 56.332 L 56.333 56.332 L 56.333 0 L 0 0 Z" style="fill: none;"></path>
    </g>
    <g style="clip-path: url(#clippath3);">
      <g transform="translate(16.6826 23.8882)">
        <path d="M 0 0 L -1.427 -5.328 L -6.643 -5.438 C -8.202 -2.546 -9.086 0.762 -9.086 4.277 C -9.086 7.676 -8.259 10.882 -6.794 13.705 L -6.792 13.705 L -2.148 12.854 L -0.115 8.238 C -0.541 6.996 -0.772 5.664 -0.772 4.277 C -0.771 2.772 -0.5 1.33 0 0" style="fill: rgb(251, 187, 0); fill-opacity: 1;"></path>
      </g>
    </g>
    <g style="clip-path: url(#clippath3);">
      <g transform="translate(48.2383 31.9946)">
        <path d="M 0 0 C 0.236 -1.24 0.358 -2.521 0.358 -3.83 C 0.358 -5.297 0.204 -6.729 -0.09 -8.109 C -1.088 -12.809 -3.695 -16.913 -7.308 -19.816 L -7.308 -19.815 L -13.158 -19.517 L -13.986 -14.348 C -11.589 -12.943 -9.716 -10.744 -8.729 -8.109 L -19.691 -8.109 L -19.691 0 L -8.569 0 Z" style="fill: rgb(81, 142, 248); fill-opacity: 1;"></path>
      </g>
    </g>
    <g style="clip-path: url(#clippath3);">
      <g transform="translate(40.9297 12.1792)">
        <path d="M 0 0 L 0.001 -0.001 C -3.512 -2.825 -7.975 -4.514 -12.833 -4.514 C -20.64 -4.514 -27.427 -0.151 -30.89 6.271 L -24.247 11.709 C -22.515 7.089 -18.058 3.8 -12.833 3.8 C -10.587 3.8 -8.482 4.406 -6.677 5.467 Z" style="fill: rgb(40, 180, 70); fill-opacity: 1;"></path>
      </g>
    </g>
    <g style="clip-path: url(#clippath3);">
      <g transform="translate(41.1812 43.9458)">
        <path d="M 0 0 L -6.641 -5.437 C -8.51 -4.269 -10.718 -3.595 -13.084 -3.595 C -18.428 -3.595 -22.968 -7.034 -24.613 -11.82 L -31.291 -6.353 L -31.292 -6.353 C -27.88 0.225 -21.008 4.719 -13.084 4.719 C -8.11 4.719 -3.55 2.948 0 0" style="fill: rgb(241, 67, 54); fill-opacity: 1;"></path>
      </g>
    </g>
  </g>
</svg>