<svg viewBox="0 0 127 95" xmlns="http://www.w3.org/2000/svg">
  <defs>
    <clipPath id="clippath8" transform="">
      <path d="M 0 94.998 L 126.43 94.998 L 126.43 0 L 0 0 Z" style="fill: none; clip-rule: nonzero;"></path>
    </clipPath>
    <clipPath id="clippath9" transform="">
      <path d="M 0 94.998 L 126.43 94.998 L 126.43 0 L 0 0 Z" style="fill: none; clip-rule: nonzero;"></path>
    </clipPath>
  </defs>
  <g transform="matrix(1, 0, 0, -1, 0, 95)">
    <g transform="">
      <path d="M 0 94.998 L 126.43 94.998 L 126.43 0 L 0 0 Z" style="fill: none;"></path>
    </g>
    <g style="clip-path: url(#clippath8);">
      <g transform="translate(31.8921 79.3975)">
        <path d="M 0 0 C 17.614 0 31.891 -14.281 31.891 -31.897 C 31.891 -49.515 17.614 -63.796 0 -63.796 C -17.614 -63.796 -31.892 -49.515 -31.892 -31.897 C -31.892 -14.281 -17.614 0 0 0" style="fill: rgb(251, 42, 105); fill-rule: evenodd; fill-opacity: 1;"></path>
      </g>
    </g>
    <g transform="">
      <path d="M 0 94.998 L 126.43 94.998 L 126.43 0 L 0 0 Z" style="fill: none;"></path>
    </g>
    <g style="clip-path: url(#clippath9);">
      <g transform="translate(125.4302 47.5)">
        <path d="M 0 0 C 0 -25.682 -20.819 -46.5 -46.5 -46.5 C -72.182 -46.5 -93 -25.682 -93 0 C -93 25.68 -72.182 46.498 -46.5 46.498 C -20.819 46.498 0 25.68 0 0 Z" style="fill: none; stroke: rgb(255, 255, 255); stroke-opacity: 1; stroke-miterlimit: 0; stroke-width: 2px; stroke-dashoffset: 0px;"></path>
      </g>
    </g>
    <g style="clip-path: url(#clippath9);">
      <g transform="translate(94.6802 47.624)">
        <path d="M 0 0 C 0 -8.698 -7.052 -15.75 -15.75 -15.75 C -24.449 -15.75 -31.5 -8.698 -31.5 0 C -31.5 8.698 -24.449 15.75 -15.75 15.75 C -7.052 15.75 0 8.698 0 0 Z" style="fill: none; stroke: rgb(255, 255, 255); stroke-opacity: 1; stroke-miterlimit: 0; stroke-width: 2px; stroke-dashoffset: 0px;"></path>
      </g>
    </g>
    <g style="clip-path: url(#clippath9);">
      <g transform="translate(84.6802 17.124)">
        <path d="M 0 0 C 0 -3.176 -2.574 -5.75 -5.75 -5.75 C -8.926 -5.75 -11.5 -3.176 -11.5 0 C -11.5 3.176 -8.926 5.75 -5.75 5.75 C -2.574 5.75 0 3.176 0 0 Z" style="fill: none; stroke: rgb(255, 255, 255); stroke-opacity: 1; stroke-miterlimit: 0; stroke-width: 2px; stroke-dashoffset: 0px;"></path>
      </g>
    </g>
    <g style="clip-path: url(#clippath9);">
      <g transform="translate(82.9302 79.624)">
        <path d="M 0 0 C 0 -2.209 -1.791 -4 -4 -4 C -6.209 -4 -8 -2.209 -8 0 C -8 2.209 -6.209 4 -4 4 C -1.791 4 0 2.209 0 0 Z" style="fill: none; stroke: rgb(255, 255, 255); stroke-opacity: 1; stroke-miterlimit: 0; stroke-width: 2px; stroke-dashoffset: 0px;"></path>
      </g>
    </g>
    <g style="clip-path: url(#clippath9);">
      <g transform="translate(60.1802 67.624)">
        <path d="M 0 0 C 0 -3.176 -2.574 -5.75 -5.75 -5.75 C -8.926 -5.75 -11.5 -3.176 -11.5 0 C -11.5 3.176 -8.926 5.75 -5.75 5.75 C -2.574 5.75 0 3.176 0 0 Z" style="fill: none; stroke: rgb(255, 255, 255); stroke-opacity: 1; stroke-miterlimit: 0; stroke-width: 2px; stroke-dashoffset: 0px;"></path>
      </g>
    </g>
    <g style="clip-path: url(#clippath9);">
      <g transform="translate(109.1802 67.624)">
        <path d="M 0 0 C 0 -3.176 -2.574 -5.75 -5.75 -5.75 C -8.926 -5.75 -11.5 -3.176 -11.5 0 C -11.5 3.176 -8.926 5.75 -5.75 5.75 C -2.574 5.75 0 3.176 0 0 Z" style="fill: none; stroke: rgb(255, 255, 255); stroke-opacity: 1; stroke-miterlimit: 0; stroke-width: 2px; stroke-dashoffset: 0px;"></path>
      </g>
    </g>
    <g style="clip-path: url(#clippath9);">
      <g transform="translate(58.5938 63.4902)">
        <path d="M 0 0 L 7.5 -6.416" style="fill: none; stroke: rgb(255, 255, 255); stroke-opacity: 1; stroke-miterlimit: 0; stroke-width: 2px; stroke-dashoffset: 0px;"></path>
      </g>
    </g>
    <g style="clip-path: url(#clippath9);">
      <g transform="translate(99.8442 63.4902)">
        <path d="M 0 0 L -7.5 -6.416" style="fill: none; stroke: rgb(255, 255, 255); stroke-opacity: 1; stroke-miterlimit: 0; stroke-width: 2px; stroke-dashoffset: 0px;"></path>
      </g>
    </g>
    <g style="clip-path: url(#clippath9);">
      <g transform="translate(54.9302 34.124)">
        <path d="M 0 0 C 0 -2.209 -1.791 -4 -4 -4 C -6.209 -4 -8 -2.209 -8 0 C -8 2.209 -6.209 4 -4 4 C -1.791 4 0 2.209 0 0 Z" style="fill: none; stroke: rgb(255, 255, 255); stroke-opacity: 1; stroke-miterlimit: 0; stroke-width: 2px; stroke-dashoffset: 0px;"></path>
      </g>
    </g>
    <g style="clip-path: url(#clippath9);">
      <g transform="translate(110.9302 34.124)">
        <path d="M 0 0 C 0 -2.209 -1.791 -4 -4 -4 C -6.209 -4 -8 -2.209 -8 0 C -8 2.209 -6.209 4 -4 4 C -1.791 4 0 2.209 0 0 Z" style="fill: none; stroke: rgb(255, 255, 255); stroke-opacity: 1; stroke-miterlimit: 0; stroke-width: 2px; stroke-dashoffset: 0px;"></path>
      </g>
    </g>
    <g style="clip-path: url(#clippath9);">
      <g transform="translate(54.6772 35.8232)">
        <path d="M 0 0 L 9.917 4.917" style="fill: none; stroke: rgb(255, 255, 255); stroke-opacity: 1; stroke-miterlimit: 0; stroke-width: 2px; stroke-dashoffset: 0px;"></path>
      </g>
    </g>
    <g style="clip-path: url(#clippath9);">
      <g transform="translate(103.1772 35.8232)">
        <path d="M 0 0 L -9.917 4.917" style="fill: none; stroke: rgb(255, 255, 255); stroke-opacity: 1; stroke-miterlimit: 0; stroke-width: 2px; stroke-dashoffset: 0px;"></path>
      </g>
    </g>
    <g style="clip-path: url(#clippath9);">
      <g transform="translate(78.9302 31.874)">
        <path d="M 0 0 L 0 -9" style="fill: none; stroke: rgb(255, 255, 255); stroke-opacity: 1; stroke-miterlimit: 0; stroke-width: 2px; stroke-dashoffset: 0px;"></path>
      </g>
    </g>
    <g style="clip-path: url(#clippath9);">
      <g transform="translate(78.9302 75.124)">
        <path d="M 0 0 L 0 -11.968" style="fill: none; stroke: rgb(255, 255, 255); stroke-opacity: 1; stroke-miterlimit: 0; stroke-width: 2px; stroke-dashoffset: 0px;"></path>
      </g>
    </g>
  </g>
</svg>