<svg viewBox="0 0 127 95" xmlns="http://www.w3.org/2000/svg">
  <defs>
    <clipPath id="clippath0" transform="">
      <path d="M 0 95 L 126.577 95 L 126.577 0 L 0 0 Z" style="fill: none; clip-rule: nonzero;"></path>
    </clipPath>
    <clipPath id="clippath1" transform="">
      <path d="M 0 95 L 126.577 95 L 126.577 0 L 0 0 Z" style="fill: none; clip-rule: nonzero;"></path>
    </clipPath>
  </defs>
  <g transform="matrix(1, 0, 0, -1, 0, 95)">
    <g transform="">
      <path d="M 0 95 L 126.577 95 L 126.577 0 L 0 0 Z" style="fill: none;"></path>
    </g>
    <g style="clip-path: url(#clippath0);">
      <g transform="translate(31.8921 79.3975)">
        <path d="M 0 0 C 17.613 0 31.892 -14.281 31.892 -31.897 C 31.892 -49.514 17.613 -63.795 0 -63.795 C -17.614 -63.795 -31.892 -49.514 -31.892 -31.897 C -31.892 -14.281 -17.614 0 0 0" style="fill: rgb(251, 42, 105); fill-rule: evenodd; fill-opacity: 1;"></path>
      </g>
    </g>
    <g transform="">
      <path d="M 0 95 L 126.577 95 L 126.577 0 L 0 0 Z" style="fill: none;"></path>
    </g>
    <g style="clip-path: url(#clippath1);">
      <g transform="translate(125.5771 47.5)">
        <path d="M 0 0 C 0 -25.682 -20.819 -46.5 -46.5 -46.5 C -72.182 -46.5 -93 -25.682 -93 0 C -93 25.682 -72.182 46.5 -46.5 46.5 C -20.819 46.5 0 25.682 0 0 Z" style="fill: none; stroke: rgb(255, 255, 255); stroke-opacity: 1; stroke-miterlimit: 0; stroke-width: 2px; stroke-dashoffset: 0px;"></path>
      </g>
    </g>
    <g style="clip-path: url(#clippath1);">
      <g transform="translate(92.752 66.6572)">
        <path d="M 0 0 C 0 -7.553 -6.122 -13.675 -13.675 -13.675 C -21.228 -13.675 -27.351 -7.553 -27.351 0 C -27.351 7.553 -21.228 13.675 -13.675 13.675 C -6.122 13.675 0 7.553 0 0 Z" style="fill: none; stroke: rgb(255, 255, 255); stroke-opacity: 1; stroke-miterlimit: 0; stroke-width: 2px; stroke-dashoffset: 0px;"></path>
      </g>
    </g>
    <g style="clip-path: url(#clippath1);">
      <g transform="translate(112.4033 53.3267)">
        <path d="M 0 0 C 0 -7.553 -6.122 -13.675 -13.675 -13.675 C -21.228 -13.675 -27.351 -7.553 -27.351 0 C -27.351 7.553 -21.228 13.675 -13.675 13.675 C -6.122 13.675 0 7.553 0 0 Z" style="fill: none; stroke: rgb(255, 255, 255); stroke-opacity: 1; stroke-miterlimit: 0; stroke-width: 2px; stroke-dashoffset: 0px;"></path>
      </g>
    </g>
    <g style="clip-path: url(#clippath1);">
      <g transform="translate(73.1006 53.3267)">
        <path d="M 0 0 C 0 -7.553 -6.122 -13.675 -13.675 -13.675 C -21.228 -13.675 -27.351 -7.553 -27.351 0 C -27.351 7.553 -21.228 13.675 -13.675 13.675 C -6.122 13.675 0 7.553 0 0 Z" style="fill: none; stroke: rgb(255, 255, 255); stroke-opacity: 1; stroke-miterlimit: 0; stroke-width: 2px; stroke-dashoffset: 0px;"></path>
      </g>
    </g>
    <g style="clip-path: url(#clippath1);">
      <g transform="translate(80.6855 30.3428)">
        <path d="M 0 0 C 0 -7.553 -6.122 -13.675 -13.676 -13.675 C -21.229 -13.675 -27.351 -7.553 -27.351 0 C -27.351 7.553 -21.229 13.675 -13.676 13.675 C -6.122 13.675 0 7.553 0 0 Z" style="fill: none; stroke: rgb(255, 255, 255); stroke-opacity: 1; stroke-miterlimit: 0; stroke-width: 2px; stroke-dashoffset: 0px;"></path>
      </g>
    </g>
    <g style="clip-path: url(#clippath1);">
      <g transform="translate(104.8193 30.3428)">
        <path d="M 0 0 C 0 -7.553 -6.123 -13.675 -13.676 -13.675 C -21.229 -13.675 -27.352 -7.553 -27.352 0 C -27.352 7.553 -21.229 13.675 -13.676 13.675 C -6.123 13.675 0 7.553 0 0 Z" style="fill: none; stroke: rgb(255, 255, 255); stroke-opacity: 1; stroke-miterlimit: 0; stroke-width: 2px; stroke-dashoffset: 0px;"></path>
      </g>
    </g>
  </g>
</svg>