<svg viewBox="0 0 88 88" xmlns="http://www.w3.org/2000/svg">
  <defs>
    <clipPath id="clippath4" transform="">
      <path d="M 0 88.215 L 88.214 88.215 L 88.214 0 L 0 0 Z" style="fill: none; clip-rule: nonzero;"></path>
    </clipPath>
  </defs>
  <g transform="matrix(1, 0, 0, -1, 0, 88)">
    <g transform="">
      <path d="M 0 88.215 L 88.214 88.215 L 88.214 0 L 0 0 Z" style="fill: none;"></path>
    </g>
    <g style="clip-path: url(#clippath4);">
      <g transform="translate(42.4531 54.8159)">
        <path d="M 0 0 L -0.086 -0.008 L -0.082 -0.073 C -0.04 -0.067 0.002 -0.064 0.053 -0.062 L 0.351 -0.047 L 0.346 0.028 L 0.116 0.016 L 0.079 0.018 C 0.021 0.024 -0.025 0.06 -0.027 0.113 L -0.027 0.138 L -0.102 0.133 L -0.103 0.113 C -0.099 0.063 -0.06 0.02 -0.001 0.004 Z M -0.019 -0.336 C -0.024 -0.252 0.053 -0.227 0.103 -0.225 L 0.115 -0.444 C 0.061 -0.441 -0.015 -0.412 -0.019 -0.336 M 0.284 -0.179 C 0.298 -0.208 0.312 -0.239 0.313 -0.292 C 0.317 -0.367 0.278 -0.434 0.172 -0.442 L 0.155 -0.152 L 0.118 -0.152 C 0.038 -0.156 -0.084 -0.199 -0.076 -0.333 C -0.068 -0.453 0.038 -0.521 0.17 -0.515 C 0.299 -0.506 0.383 -0.427 0.375 -0.3 C 0.371 -0.234 0.354 -0.19 0.34 -0.164 Z M 0.257 -0.888 L 0.225 -0.893 L 0.15 -0.896 L 0.118 -0.893 C 0.059 -0.882 0.018 -0.837 0.014 -0.786 C 0.01 -0.707 0.081 -0.659 0.168 -0.654 C 0.268 -0.649 0.337 -0.691 0.342 -0.771 C 0.345 -0.825 0.312 -0.872 0.257 -0.888 M 0.402 -0.754 C 0.398 -0.658 0.315 -0.571 0.159 -0.58 C 0.029 -0.586 -0.056 -0.667 -0.049 -0.765 C -0.046 -0.833 -0.012 -0.88 0.042 -0.907 L 0.042 -0.91 L -0.031 -0.917 L -0.027 -0.984 C 0.014 -0.98 0.059 -0.977 0.113 -0.974 L 0.583 -0.948 L 0.577 -0.875 L 0.343 -0.887 L 0.343 -0.885 C 0.384 -0.857 0.407 -0.809 0.402 -0.754 M 0.374 -1.258 C 0.376 -1.296 0.354 -1.331 0.304 -1.333 C 0.22 -1.337 0.199 -1.245 0.196 -1.164 L 0.272 -1.159 L 0.296 -1.163 C 0.334 -1.172 0.372 -1.205 0.374 -1.258 M 0.415 -1.141 L 0.411 -1.072 C 0.383 -1.079 0.346 -1.082 0.308 -1.084 L 0.146 -1.094 C 0.061 -1.099 -0.028 -1.133 -0.021 -1.259 C -0.018 -1.311 0.001 -1.36 0.025 -1.393 L 0.077 -1.373 C 0.055 -1.345 0.04 -1.306 0.038 -1.267 C 0.033 -1.183 0.097 -1.17 0.133 -1.168 L 0.142 -1.168 C 0.15 -1.328 0.213 -1.412 0.317 -1.407 C 0.38 -1.403 0.438 -1.358 0.434 -1.274 C 0.431 -1.216 0.397 -1.172 0.361 -1.152 L 0.361 -1.149 Z M 0.312 -1.783 L 0.278 -1.789 L 0.204 -1.793 L 0.172 -1.789 C 0.111 -1.778 0.07 -1.732 0.067 -1.681 C 0.062 -1.602 0.133 -1.554 0.22 -1.55 C 0.32 -1.544 0.391 -1.587 0.395 -1.667 C 0.398 -1.72 0.363 -1.767 0.312 -1.783 M 0.396 -1.78 C 0.437 -1.754 0.459 -1.705 0.457 -1.65 C 0.45 -1.553 0.368 -1.466 0.213 -1.476 C 0.081 -1.482 -0.004 -1.563 0.003 -1.662 C 0.008 -1.729 0.042 -1.776 0.097 -1.804 L 0.097 -1.806 L 0.022 -1.812 L 0.025 -1.88 C 0.067 -1.875 0.111 -1.873 0.167 -1.869 L 0.635 -1.844 L 0.632 -1.771 L 0.396 -1.782 Z M 0.033 -2.134 L 0.032 -2.154 C 0.035 -2.205 0.074 -2.248 0.133 -2.263 L 0.133 -2.266 L 0.049 -2.275 L 0.053 -2.34 C 0.094 -2.334 0.138 -2.332 0.187 -2.329 L 0.486 -2.313 L 0.481 -2.239 L 0.25 -2.251 L 0.214 -2.25 C 0.155 -2.244 0.11 -2.208 0.107 -2.154 L 0.108 -2.128 Z M 0.116 -2.604 C 0.111 -2.519 0.187 -2.495 0.237 -2.492 L 0.25 -2.711 C 0.196 -2.708 0.12 -2.679 0.116 -2.604 M 0.307 -2.709 L 0.289 -2.419 L 0.253 -2.419 C 0.174 -2.424 0.051 -2.466 0.06 -2.601 C 0.066 -2.72 0.174 -2.789 0.305 -2.782 C 0.435 -2.774 0.518 -2.694 0.51 -2.567 C 0.506 -2.502 0.489 -2.458 0.474 -2.431 L 0.419 -2.446 C 0.433 -2.475 0.446 -2.506 0.449 -2.561 C 0.453 -2.635 0.413 -2.702 0.307 -2.709 M 0.501 -2.973 C 0.521 -2.953 0.53 -2.925 0.528 -2.889 C 0.526 -2.86 0.521 -2.838 0.516 -2.823 L 0.456 -2.831 L 0.463 -2.873 C 0.466 -2.914 0.435 -2.932 0.383 -2.935 L 0.148 -2.947 L 0.145 -2.839 L 0.083 -2.843 L 0.09 -2.95 L -0.034 -2.957 L -0.01 -3.029 L 0.094 -3.024 L 0.099 -3.087 L 0.157 -3.083 L 0.155 -3.021 L 0.39 -3.008 C 0.441 -3.004 0.479 -2.995 0.501 -2.973 M 0.535 -3.144 L -0.099 -3.178 L -0.095 -3.253 L 0.539 -3.218 Z M 0.133 -3.68 L 0.137 -3.738 L 0.196 -3.734 L 0.194 -3.676 L 0.565 -3.657 L 0.561 -3.582 L 0.188 -3.603 L 0.179 -3.438 L 0.551 -3.418 L 0.547 -3.343 L 0.113 -3.367 L 0.129 -3.605 L 0.107 -3.607 C 0.039 -3.611 -0.021 -3.59 -0.025 -3.512 C -0.027 -3.476 -0.018 -3.442 -0.006 -3.423 L -0.066 -3.405 C -0.082 -3.428 -0.092 -3.473 -0.089 -3.512 C -0.082 -3.627 -0.005 -3.687 0.109 -3.681 Z M 0.207 -4.135 C 0.203 -4.051 0.278 -4.027 0.328 -4.024 L 0.342 -4.243 C 0.286 -4.24 0.211 -4.211 0.207 -4.135 M 0.398 -4.241 L 0.381 -3.951 L 0.344 -3.951 C 0.264 -3.955 0.142 -3.998 0.149 -4.132 C 0.157 -4.252 0.264 -4.32 0.394 -4.313 C 0.526 -4.306 0.608 -4.226 0.602 -4.099 C 0.597 -4.033 0.58 -3.989 0.565 -3.963 L 0.51 -3.979 C 0.524 -4.006 0.537 -4.038 0.539 -4.091 C 0.544 -4.167 0.505 -4.233 0.398 -4.241 M 0.626 -4.67 L 0.364 -4.684 L 0.326 -4.681 C 0.283 -4.669 0.246 -4.634 0.242 -4.584 C 0.237 -4.513 0.296 -4.486 0.365 -4.483 L 0.613 -4.469 L 0.608 -4.394 L 0.353 -4.408 C 0.203 -4.416 0.172 -4.506 0.176 -4.561 C 0.177 -4.59 0.187 -4.616 0.203 -4.637 L 0.262 -4.688 L 0.262 -4.689 L -0.009 -4.705 L -0.004 -4.779 L 0.631 -4.744 Z M 0.635 -4.833 L 0.575 -4.84 L 0.583 -4.883 C 0.585 -4.925 0.557 -4.942 0.502 -4.945 L 0.268 -4.957 L 0.264 -4.85 L 0.203 -4.853 L 0.209 -4.96 L 0.086 -4.967 L 0.109 -5.04 L 0.214 -5.034 L 0.218 -5.097 L 0.276 -5.094 L 0.274 -5.03 L 0.509 -5.018 C 0.561 -5.015 0.598 -5.005 0.621 -4.982 C 0.642 -4.963 0.65 -4.934 0.647 -4.899 C 0.646 -4.87 0.642 -4.849 0.635 -4.833 M -1.13 0.897 L -1.13 0.895 L -1.215 0.887 L -1.211 0.82 C -1.17 0.827 -1.127 0.83 -1.076 0.833 L -0.778 0.848 L -0.783 0.922 L -1.013 0.91 L -1.05 0.911 C -1.11 0.919 -1.154 0.953 -1.156 1.006 L -1.156 1.032 L -1.23 1.028 L -1.232 1.006 C -1.23 0.956 -1.188 0.913 -1.13 0.897 M -0.97 0.415 C -1.05 0.41 -1.139 0.444 -1.144 0.533 C -1.149 0.622 -1.059 0.66 -0.984 0.666 C -0.888 0.671 -0.813 0.621 -0.811 0.549 C -0.807 0.476 -0.874 0.419 -0.97 0.415 M -0.993 0.741 C -1.125 0.734 -1.211 0.649 -1.204 0.532 C -1.196 0.417 -1.106 0.331 -0.961 0.338 C -0.825 0.346 -0.744 0.437 -0.75 0.548 C -0.757 0.648 -0.833 0.75 -0.993 0.741 M -1.11 -0.091 C -1.115 -0.006 -1.038 0.018 -0.988 0.02 L -0.976 -0.199 C -1.03 -0.195 -1.106 -0.167 -1.11 -0.091 M -0.807 0.065 C -0.793 0.038 -0.78 0.006 -0.776 -0.048 C -0.771 -0.123 -0.812 -0.189 -0.92 -0.196 L -0.936 0.093 L -0.974 0.093 C -1.052 0.089 -1.175 0.047 -1.167 -0.088 C -1.158 -0.208 -1.052 -0.276 -0.922 -0.269 C -0.791 -0.262 -0.708 -0.181 -0.716 -0.054 C -0.72 0.011 -0.737 0.055 -0.751 0.082 Z M -0.784 -0.327 C -0.771 -0.349 -0.759 -0.375 -0.757 -0.418 C -0.752 -0.5 -0.811 -0.564 -0.911 -0.57 C -1 -0.574 -1.077 -0.527 -1.082 -0.433 C -1.085 -0.392 -1.077 -0.364 -1.067 -0.345 L -1.129 -0.331 C -1.139 -0.353 -1.147 -0.392 -1.146 -0.437 C -1.137 -0.571 -1.034 -0.652 -0.902 -0.646 C -0.77 -0.638 -0.686 -0.553 -0.693 -0.428 C -0.697 -0.374 -0.713 -0.33 -0.727 -0.312 Z M -0.722 -0.905 C -0.72 -0.942 -0.741 -0.977 -0.794 -0.979 C -0.878 -0.983 -0.897 -0.891 -0.901 -0.811 L -0.826 -0.805 L -0.801 -0.809 C -0.764 -0.819 -0.727 -0.85 -0.722 -0.905 M -0.95 -0.74 C -1.037 -0.745 -1.126 -0.78 -1.118 -0.906 C -1.115 -0.958 -1.098 -1.007 -1.071 -1.039 L -1.02 -1.019 C -1.042 -0.991 -1.057 -0.953 -1.059 -0.914 C -1.065 -0.831 -1 -0.817 -0.965 -0.815 L -0.956 -0.815 C -0.946 -0.974 -0.885 -1.06 -0.78 -1.054 C -0.718 -1.051 -0.659 -1.005 -0.663 -0.921 C -0.667 -0.863 -0.7 -0.819 -0.735 -0.798 L -0.735 -0.795 L -0.681 -0.787 L -0.686 -0.72 C -0.715 -0.726 -0.751 -0.729 -0.789 -0.731 Z M -1.086 -1.28 L -1.082 -1.337 L -1.022 -1.334 L -1.026 -1.276 L -0.653 -1.257 L -0.658 -1.182 L -1.03 -1.202 L -1.037 -1.103 L -1.096 -1.106 L -1.091 -1.205 L -1.114 -1.206 C -1.179 -1.211 -1.238 -1.197 -1.243 -1.134 L -1.236 -1.085 L -1.299 -1.079 L -1.307 -1.143 C -1.305 -1.178 -1.291 -1.216 -1.261 -1.241 C -1.224 -1.274 -1.167 -1.284 -1.106 -1.281 Z M -0.906 -1.505 C -0.965 -1.498 -1.011 -1.463 -1.013 -1.41 L -1.013 -1.385 L -1.087 -1.389 L -1.088 -1.41 C -1.085 -1.46 -1.046 -1.503 -0.987 -1.519 L -0.987 -1.522 L -1.071 -1.53 L -1.067 -1.596 C -1.027 -1.59 -0.983 -1.587 -0.933 -1.584 L -0.635 -1.568 L -0.64 -1.495 L -0.869 -1.506 Z M -1.061 -1.716 L -1.056 -1.792 L -0.789 -1.778 L -0.75 -1.782 C -0.715 -1.794 -0.676 -1.827 -0.672 -1.876 C -0.669 -1.945 -0.722 -1.972 -0.805 -1.977 L -1.043 -1.99 L -1.04 -2.064 L -0.787 -2.05 C -0.634 -2.042 -0.603 -1.963 -0.604 -1.897 C -0.609 -1.826 -0.657 -1.784 -0.693 -1.766 L -0.693 -1.764 L -0.623 -1.756 L -0.628 -1.69 C -0.661 -1.694 -0.7 -1.698 -0.746 -1.7 Z M -0.722 -2.142 C -0.785 -2.145 -0.822 -2.184 -0.846 -2.255 C -0.865 -2.312 -0.878 -2.337 -0.915 -2.339 C -0.946 -2.34 -0.974 -2.317 -0.979 -2.273 C -0.98 -2.235 -0.968 -2.203 -0.959 -2.187 L -1.015 -2.172 C -1.029 -2.196 -1.039 -2.233 -1.037 -2.275 C -1.031 -2.363 -0.972 -2.414 -0.901 -2.41 C -0.849 -2.407 -0.809 -2.371 -0.785 -2.293 C -0.767 -2.238 -0.748 -2.214 -0.71 -2.213 C -0.674 -2.211 -0.644 -2.235 -0.642 -2.289 C -0.64 -2.327 -0.653 -2.367 -0.667 -2.39 L -0.604 -2.406 C -0.59 -2.376 -0.58 -2.333 -0.583 -2.288 C -0.59 -2.19 -0.646 -2.137 -0.722 -2.142 M -0.946 -2.847 C -0.951 -2.762 -0.874 -2.738 -0.824 -2.736 L -0.811 -2.955 C -0.866 -2.951 -0.942 -2.923 -0.946 -2.847 M -0.756 -2.952 L -0.771 -2.663 L -0.81 -2.663 C -0.889 -2.667 -1.011 -2.709 -1.003 -2.844 C -0.995 -2.964 -0.889 -3.032 -0.758 -3.025 C -0.628 -3.018 -0.544 -2.937 -0.553 -2.81 C -0.557 -2.745 -0.573 -2.701 -0.588 -2.674 L -0.644 -2.691 C -0.629 -2.718 -0.617 -2.75 -0.613 -2.803 C -0.609 -2.878 -0.648 -2.945 -0.756 -2.952 M -0.828 -3.202 L -0.796 -3.196 L -0.72 -3.193 L -0.687 -3.194 C -0.627 -3.204 -0.589 -3.249 -0.585 -3.298 C -0.581 -3.38 -0.65 -3.424 -0.739 -3.43 C -0.835 -3.434 -0.907 -3.392 -0.913 -3.316 C -0.917 -3.259 -0.878 -3.216 -0.828 -3.202 M -0.915 -3.204 C -0.949 -3.226 -0.979 -3.271 -0.974 -3.333 C -0.968 -3.433 -0.874 -3.514 -0.73 -3.506 C -0.599 -3.498 -0.516 -3.417 -0.521 -3.317 C -0.525 -3.25 -0.563 -3.201 -0.614 -3.181 L -0.614 -3.179 L -0.54 -3.173 L -0.544 -3.104 C -0.573 -3.108 -0.617 -3.112 -0.654 -3.114 L -1.178 -3.142 L -1.174 -3.218 L -0.915 -3.203 Z M -1.069 -3.61 C -1.098 -3.611 -1.117 -3.629 -1.116 -3.659 C -1.114 -3.686 -1.091 -3.705 -1.062 -3.704 L -1.018 -3.656 C -1.021 -3.625 -1.043 -3.608 -1.069 -3.61 M -0.942 -3.687 L -0.511 -3.663 L -0.515 -3.589 L -0.946 -3.612 Z M -0.627 -3.766 C -0.689 -3.771 -0.725 -3.809 -0.749 -3.881 C -0.768 -3.937 -0.783 -3.963 -0.817 -3.965 C -0.85 -3.966 -0.878 -3.942 -0.882 -3.897 C -0.884 -3.86 -0.872 -3.829 -0.861 -3.812 L -0.92 -3.797 C -0.933 -3.822 -0.942 -3.857 -0.94 -3.9 C -0.935 -3.988 -0.874 -4.039 -0.805 -4.034 C -0.752 -4.032 -0.712 -3.995 -0.689 -3.919 C -0.67 -3.864 -0.651 -3.84 -0.613 -3.839 C -0.579 -3.837 -0.549 -3.86 -0.544 -3.915 C -0.542 -3.952 -0.557 -3.992 -0.57 -4.016 L -0.51 -4.031 C -0.494 -4.002 -0.483 -3.959 -0.487 -3.914 C -0.492 -3.816 -0.549 -3.762 -0.627 -3.766 M -0.917 -4.294 C -0.913 -4.361 -0.869 -4.407 -0.828 -4.424 L -0.828 -4.427 L -0.898 -4.435 L -0.895 -4.501 C -0.858 -4.497 -0.822 -4.494 -0.778 -4.491 L -0.462 -4.475 L -0.466 -4.399 L -0.727 -4.413 L -0.764 -4.41 C -0.808 -4.4 -0.847 -4.363 -0.85 -4.314 C -0.854 -4.244 -0.798 -4.216 -0.728 -4.211 L -0.479 -4.198 L -0.483 -4.124 L -0.741 -4.136 C -0.891 -4.145 -0.92 -4.235 -0.917 -4.294 M -0.883 -4.696 L -0.451 -4.674 L -0.455 -4.599 L -0.887 -4.623 Z M -0.959 -4.666 C -0.961 -4.636 -0.982 -4.618 -1.009 -4.621 C -1.037 -4.622 -1.057 -4.64 -1.057 -4.669 C -1.054 -4.695 -1.031 -4.715 -1.004 -4.714 Z M -0.81 -5.145 C -0.814 -5.06 -0.737 -5.036 -0.687 -5.034 L -0.676 -5.253 C -0.729 -5.249 -0.806 -5.221 -0.81 -5.145 M -0.619 -5.25 L -0.635 -4.96 L -0.673 -4.96 C -0.752 -4.965 -0.874 -5.007 -0.866 -5.142 C -0.858 -5.262 -0.752 -5.329 -0.621 -5.323 C -0.491 -5.315 -0.407 -5.235 -0.416 -5.108 C -0.42 -5.043 -0.437 -4.998 -0.451 -4.972 L -0.507 -4.988 C -0.492 -5.016 -0.48 -5.047 -0.477 -5.102 C -0.473 -5.176 -0.512 -5.243 -0.619 -5.25 M -0.39 -5.68 L -0.651 -5.694 L -0.689 -5.691 C -0.732 -5.68 -0.77 -5.643 -0.774 -5.594 C -0.778 -5.524 -0.72 -5.495 -0.65 -5.492 L -0.403 -5.479 L -0.407 -5.403 L -0.663 -5.417 C -0.813 -5.425 -0.844 -5.516 -0.84 -5.571 C -0.839 -5.6 -0.828 -5.625 -0.813 -5.646 L -0.755 -5.697 L -0.755 -5.699 L -1.024 -5.715 L -1.021 -5.789 L -0.386 -5.754 Z M -0.442 -5.849 L -0.434 -5.893 C -0.432 -5.935 -0.461 -5.951 -0.515 -5.955 L -0.748 -5.966 L -0.754 -5.859 L -0.813 -5.862 L -0.807 -5.97 L -0.932 -5.976 L -0.906 -6.049 L -0.803 -6.043 L -0.799 -6.106 L -0.739 -6.103 L -0.742 -6.04 L -0.507 -6.027 C -0.455 -6.024 -0.418 -6.014 -0.396 -5.993 C -0.376 -5.973 -0.366 -5.944 -0.368 -5.91 C -0.37 -5.879 -0.376 -5.858 -0.383 -5.843 Z M -1.774 -0.495 L -2.035 -0.509 L -2.074 -0.507 C -2.118 -0.494 -2.156 -0.459 -2.158 -0.409 C -2.162 -0.339 -2.104 -0.311 -2.035 -0.307 L -1.787 -0.294 L -1.791 -0.218 L -2.05 -0.233 C -2.198 -0.241 -2.229 -0.332 -2.225 -0.386 C -2.225 -0.416 -2.213 -0.441 -2.198 -0.462 L -2.14 -0.513 L -2.14 -0.515 L -2.408 -0.53 L -2.404 -0.604 L -1.771 -0.57 Z M -1.84 -0.674 C -1.828 -0.696 -1.815 -0.723 -1.812 -0.765 C -1.808 -0.848 -1.866 -0.912 -1.966 -0.917 C -2.056 -0.923 -2.133 -0.876 -2.139 -0.78 C -2.141 -0.74 -2.133 -0.711 -2.122 -0.693 L -2.186 -0.678 C -2.193 -0.7 -2.203 -0.74 -2.2 -0.785 C -2.192 -0.918 -2.092 -1 -1.958 -0.993 C -1.826 -0.985 -1.741 -0.9 -1.749 -0.775 C -1.753 -0.72 -1.77 -0.677 -1.781 -0.659 Z M -2.173 -1.1 L -2.168 -1.175 L -1.903 -1.16 L -1.863 -1.165 C -1.827 -1.178 -1.788 -1.209 -1.786 -1.259 C -1.781 -1.329 -1.836 -1.354 -1.917 -1.36 L -2.157 -1.373 L -2.152 -1.447 L -1.899 -1.434 C -1.747 -1.425 -1.715 -1.346 -1.719 -1.281 C -1.723 -1.208 -1.771 -1.167 -1.808 -1.149 L -1.808 -1.147 L -1.738 -1.14 L -1.74 -1.072 C -1.774 -1.077 -1.813 -1.081 -1.858 -1.083 Z M -1.91 -1.855 C -1.993 -1.859 -2.081 -1.826 -2.085 -1.737 C -2.091 -1.647 -2 -1.61 -1.927 -1.604 C -1.829 -1.599 -1.755 -1.649 -1.751 -1.72 C -1.747 -1.794 -1.815 -1.851 -1.91 -1.855 M -1.934 -1.528 C -2.065 -1.535 -2.151 -1.621 -2.145 -1.738 C -2.139 -1.853 -2.047 -1.938 -1.903 -1.931 C -1.767 -1.923 -1.685 -1.832 -1.692 -1.722 C -1.699 -1.622 -1.773 -1.52 -1.934 -1.528 M -2.213 -2.17 L -1.677 -2.142 L -1.682 -2.065 L -2.218 -2.095 L -2.229 -1.92 L -2.295 -1.923 L -2.269 -2.348 L -2.203 -2.344 Z M -1.71 -2.537 C -1.708 -2.579 -1.735 -2.594 -1.79 -2.599 L -2.024 -2.61 L -2.029 -2.502 L -2.09 -2.506 L -2.083 -2.614 L -2.207 -2.62 L -2.183 -2.693 L -2.079 -2.687 L -2.074 -2.75 L -2.015 -2.747 L -2.018 -2.683 L -1.782 -2.671 C -1.731 -2.668 -1.693 -2.658 -1.671 -2.635 C -1.651 -2.617 -1.642 -2.587 -1.644 -2.554 C -1.646 -2.523 -1.651 -2.501 -1.657 -2.487 L -1.716 -2.493 Z M -1.836 -3.114 C -1.918 -3.118 -2.006 -3.084 -2.011 -2.996 C -2.016 -2.907 -1.925 -2.868 -1.851 -2.863 C -1.755 -2.858 -1.682 -2.908 -1.677 -2.979 C -1.673 -3.052 -1.74 -3.11 -1.836 -3.114 M -1.859 -2.787 C -1.992 -2.794 -2.076 -2.879 -2.07 -2.997 C -2.063 -3.112 -1.973 -3.198 -1.828 -3.189 C -1.691 -3.183 -1.609 -3.091 -1.616 -2.98 C -1.623 -2.881 -1.699 -2.779 -1.859 -2.787 M -1.588 -3.636 L -1.846 -3.651 C -1.945 -3.657 -2.018 -3.662 -2.094 -3.67 L -2.094 -3.667 C -2.031 -3.635 -1.964 -3.594 -1.899 -3.55 L -1.605 -3.351 L -1.609 -3.276 L -2.212 -3.307 L -2.208 -3.378 L -1.957 -3.365 C -1.861 -3.358 -1.789 -3.353 -1.709 -3.342 L -1.708 -3.344 C -1.769 -3.375 -1.829 -3.412 -1.897 -3.458 L -2.191 -3.659 L -2.188 -3.739 L -1.584 -3.707 Z M -1.764 -4.323 C -1.846 -4.328 -1.935 -4.294 -1.938 -4.205 C -1.944 -4.117 -1.854 -4.078 -1.779 -4.074 C -1.684 -4.067 -1.608 -4.118 -1.605 -4.188 C -1.602 -4.262 -1.668 -4.319 -1.764 -4.323 M -1.788 -3.997 C -1.92 -4.003 -2.005 -4.089 -1.998 -4.206 C -1.991 -4.321 -1.9 -4.407 -1.757 -4.399 C -1.619 -4.392 -1.538 -4.301 -1.545 -4.189 C -1.551 -4.09 -1.627 -3.988 -1.788 -3.997 M -1.577 -4.855 L -2.054 -4.882 C -2.06 -4.861 -2.063 -4.833 -2.065 -4.795 C -2.076 -4.638 -1.99 -4.557 -1.849 -4.549 C -1.686 -4.54 -1.587 -4.622 -1.577 -4.78 C -1.575 -4.81 -1.575 -4.836 -1.577 -4.855 M -1.616 -4.542 C -1.675 -4.491 -1.758 -4.467 -1.855 -4.473 C -1.953 -4.477 -2.021 -4.512 -2.066 -4.565 C -2.112 -4.618 -2.133 -4.695 -2.129 -4.802 C -2.124 -4.86 -2.115 -4.914 -2.105 -4.958 L -1.514 -4.927 C -1.511 -4.889 -1.511 -4.844 -1.515 -4.792 C -1.521 -4.679 -1.557 -4.592 -1.616 -4.542" style="fill: rgb(89, 34, 225); fill-opacity: 1;"></path>
      </g>
    </g>
    <g style="clip-path: url(#clippath4);">
      <g transform="translate(53.5811 22.3691)">
        <path d="M 0 0 L -0.036 -0.028 L -0.053 -0.041 L -0.079 -0.05 L -0.101 -0.058 L -0.122 -0.083 C -0.19 -0.13 -0.264 -0.159 -0.336 -0.195 L -9.833 -3.378 L -10.859 -0.649 L -4.177 1.344 L -0.848 2.335 Z M -13.145 10.791 C -13.506 12.391 -13.841 14.003 -14.255 15.597 L -14.256 15.601 L -14.257 15.603 L -15.84 20.166 L -15.84 20.168 C -15.982 20.507 -16.108 20.848 -16.191 21.194 C -16.403 22.067 -16.413 23.015 -16.437 23.917 C -16.5 26.378 -16.919 38.766 -16.925 38.938 L -14.111 39.273 C -13.983 39.062 -13.886 38.827 -13.825 38.566 L -13.78 38.27 C -13.769 38.165 -13.751 38.063 -13.752 37.95 L -9.794 37.95 C -9.794 37.95 -9.757 38.65 -10.054 39.498 L -8.829 39.902 L -7.053 40.114 C -7.067 39.531 -7.153 35.965 -7.153 32.126 C -7.153 30.083 -7.13 27.964 -7.057 26.182 C -6.984 24.4 -6.864 22.959 -6.669 22.251 C -5.809 19.167 -3.84 16.445 -2.83 13.417 C -1.804 10.343 -1.256 7.067 -1.219 3.843 C -1.219 3.841 -1.22 3.827 -1.22 3.801 C -1.218 3.624 -1.195 2.96 -0.911 2.484 L -1.413 2.334 L -10.901 -0.494 C -11.55 3.283 -12.3 7.049 -13.145 10.791 M -0.661 2.391 L -0.719 2.471 L -0.742 2.535 L -0.752 2.532 C -1.023 2.949 -1.055 3.632 -1.054 3.801 L -1.053 3.84 L -1.053 3.843 C -1.088 7.084 -1.639 10.376 -2.672 13.466 C -3.693 16.523 -5.66 19.242 -6.508 22.293 C -6.696 22.968 -6.818 24.412 -6.891 26.188 C -6.963 27.967 -6.987 30.084 -6.987 32.126 C -6.987 34.225 -6.961 36.242 -6.937 37.738 C -6.922 38.485 -6.91 39.101 -6.9 39.53 C -6.891 39.96 -6.884 40.202 -6.884 40.202 L -6.882 40.294 L -8.068 40.153 L 21.839 50.011 C 21.764 50.09 21.685 50.167 21.609 50.247 L -9.543 39.977 L -10.218 39.897 C -10.581 40.677 -11.263 41.5 -12.516 42.005 L 19.298 52.493 C 19.213 52.569 19.128 52.645 19.043 52.72 L -12.961 42.169 C -13.418 42.31 -13.938 42.412 -14.535 42.458 L -18.088 41.116 C -18.088 41.116 -17.514 41.085 -16.785 40.909 L -26.554 37.689 L -46.286 42.726 C -46.339 42.638 -46.391 42.55 -46.442 42.461 L -26.587 37.393 C -26.56 37.385 -26.526 37.386 -26.497 37.396 L -16.274 40.766 C -15.517 40.523 -14.704 40.11 -14.212 39.422 L -17.097 39.079 L -17.095 39.006 C -17.095 39.006 -17.088 38.82 -17.077 38.49 C -17.068 38.243 -17.057 37.899 -17.043 37.505 L -25.417 34.745 L -47.574 40.401 C -47.62 40.311 -47.669 40.223 -47.715 40.132 L -25.45 34.449 C -25.421 34.442 -25.389 34.443 -25.361 34.453 L -17.032 37.198 C -16.915 33.753 -16.666 26.361 -16.604 23.914 C -16.58 23.013 -16.571 22.055 -16.354 21.16 C -16.268 20.8 -16.14 20.452 -15.996 20.109 L -15.995 20.109 L -14.417 15.559 L -14.418 15.559 C -14.003 13.969 -13.67 12.359 -13.309 10.757 C -12.461 7.011 -11.71 3.241 -11.062 -0.542 L -11.075 -0.546 L -11.047 -0.621 L -11.034 -0.7 L -11.019 -0.696 L -6.643 -12.335 L -3.911 -19.602 C -3.854 -19.595 -3.798 -19.588 -3.741 -19.581 L -9.761 -3.57 L -9.71 -3.566 L -9.701 -3.565 L -9.694 -3.563 C -7.629 -3.045 -5.675 -2.189 -3.674 -1.524 C -3.652 -1.528 -3.632 -1.534 -3.604 -1.534 C -3.482 -1.535 -3.392 -1.483 -3.328 -1.416 C -2.792 -1.243 -2.253 -1.082 -1.706 -0.952 C -1.588 -0.925 -1.516 -0.852 -1.475 -0.772 C -1.278 -0.732 -1.083 -0.678 -0.905 -0.587 L -0.905 -0.588 C -0.694 -0.523 -0.485 -0.445 -0.28 -0.345 L -0.011 -0.255 L 6.024 -16.599 L 6.056 -16.682 L 0.026 -18.914 C 0.434 -18.823 0.843 -18.737 1.245 -18.635 L 6.267 -16.776 L 6.267 -16.774 L -0.687 2.383 Z" style="fill: rgb(55, 103, 246); fill-opacity: 1;"></path>
      </g>
    </g>
    <g style="clip-path: url(#clippath4);">
      <g transform="translate(52.4033 21.7222)">
        <path d="M 0 0 L -8.596 -2.88 L -8.382 -3.462 L -2.721 -18.517 C 0.744 -18.074 4.076 -17.224 7.228 -16.016 L 1.262 0.418 Z" style="fill: rgb(171, 173, 176); fill-opacity: 1;"></path>
      </g>
    </g>
    <g style="clip-path: url(#clippath4);">
      <g transform="translate(44.1055 85.2095)">
        <path d="M 0 0 C -22.662 0 -41.102 -18.438 -41.102 -41.103 C -41.102 -63.766 -22.662 -82.204 0 -82.204 C 22.664 -82.204 41.104 -63.766 41.104 -41.103 C 41.104 -18.438 22.664 0 0 0 M 0 -85.209 C -24.32 -85.209 -44.105 -65.424 -44.105 -41.103 C -44.105 -16.782 -24.32 3.005 0 3.005 C 24.322 3.005 44.108 -16.782 44.108 -41.103 C 44.108 -65.424 24.322 -85.209 0 -85.209" style="fill: rgb(89, 34, 225); fill-opacity: 1;"></path>
      </g>
    </g>
  </g>
</svg>