<svg viewBox="0 0 88 88" xmlns="http://www.w3.org/2000/svg">
  <defs>
    <clipPath id="clippath3" transform="">
      <path d="M 0 88.44 L 88.212 88.44 L 88.212 0 L 0 0 Z" style="fill: none; clip-rule: nonzero;"></path>
    </clipPath>
  </defs>
  <g transform="matrix(1, 0, 0, -1, 0, 88)">
    <g transform="">
      <path d="M 0 88.44 L 88.212 88.44 L 88.212 0 L 0 0 Z" style="fill: none;"></path>
    </g>
    <g style="clip-path: url(#clippath3);">
      <g transform="translate(42.8276 37.8877)">
        <path d="M 0 0 C -0.047 -0.092 -4.663 -9.227 -5.812 -10.807 C -6.955 -12.375 -8.056 -13.225 -8.066 -13.233 L -8.132 -13.284 L -6.767 -17.542 C -6.75 -17.591 -6.705 -17.623 -6.656 -17.623 C -6.644 -17.623 -6.632 -17.621 -6.621 -17.617 C -6.559 -17.598 -6.525 -17.533 -6.545 -17.471 L -7.861 -13.367 C -7.605 -13.158 -6.629 -12.322 -5.624 -10.943 C -4.463 -9.348 0.017 -0.48 0.207 -0.104 C 0.236 -0.046 0.213 0.023 0.155 0.052 C 0.1 0.077 0.029 0.059 0 0 M 1.908 -3.583 L 16.542 0.574 L 24.03 -23.832 L 9.821 -28.35 Z M 0.543 0.688 L 10.875 3.253 L 15.376 4.37 L 16.473 0.795 L 1.837 -3.361 Z M -2.966 30.321 C -3.029 30.313 -3.075 30.256 -3.068 30.193 C -3.017 29.76 -4.522 27.329 -5.278 26.768 C -5.422 26.661 -5.471 26.675 -5.479 26.685 C -5.804 27.27 -7.276 27.951 -7.583 28.088 C -7.115 28.462 -6.725 28.925 -6.404 29.347 C -6.26 29.54 -6.121 29.785 -5.975 30.044 C -5.708 30.518 -5.406 31.055 -5.038 31.264 C -4.466 31.585 -3.635 31.425 -3.224 30.913 C -3.08 30.731 -2.971 30.524 -2.887 30.303 C -2.907 30.317 -2.932 30.328 -2.966 30.321 M -8.98 27.639 C -10.708 27.275 -12.664 24.874 -12.968 24.177 C -13.195 23.654 -16.355 20.37 -17.667 19.155 C -16.927 20.376 -15.211 23.123 -14.244 23.964 C -12.971 25.069 -8.969 29.695 -8.806 29.885 C -8.785 29.905 -6.693 31.953 -5.678 32.045 L -5.697 32.263 C -5.618 31.972 -5.524 31.665 -5.395 31.304 L -5.33 31.328 C -5.663 31.052 -5.926 30.604 -6.178 30.158 C -6.32 29.906 -6.454 29.667 -6.59 29.488 C -7.154 28.743 -7.936 27.858 -8.98 27.639 M 11.174 26.822 C 10.844 27.568 10.517 28.326 10.198 29.088 C 10.689 29.284 12.729 30.013 14.154 29.325 C 14.811 29.006 15.254 28.425 15.477 27.578 C 15.497 27.529 15.939 26.38 14.026 25.255 L 12.24 24.345 C 11.895 25.181 11.534 26.008 11.174 26.822 M 15.603 4.426 L 15.641 4.435 L 15.563 4.554 L 15.534 4.648 L 15.515 4.643 C 15.091 5.375 15.175 6.563 15.177 6.58 C 15.364 11.298 14.794 16.188 13.53 20.723 C 13.208 21.877 12.786 23.013 12.33 24.13 L 14.138 25.053 C 14.276 25.134 14.402 25.216 14.52 25.298 C 15.657 25.255 16.418 24.981 16.839 24.459 C 17.338 23.84 17.466 22.62 17.246 21.943 C 16.88 20.803 15.364 19.882 14.257 19.209 L 14.031 19.071 C 13.976 19.038 13.959 18.967 13.992 18.912 C 14.015 18.876 14.053 18.856 14.092 18.856 C 14.112 18.856 14.133 18.862 14.152 18.874 L 14.377 19.01 C 15.516 19.702 17.074 20.65 17.468 21.872 C 17.706 22.607 17.581 23.91 17.02 24.604 C 16.474 25.284 15.556 25.465 14.809 25.517 C 16.118 26.599 15.712 27.617 15.696 27.652 C 15.461 28.553 14.976 29.186 14.254 29.534 C 12.714 30.276 10.607 29.506 10.11 29.304 C 9.496 30.79 8.939 32.304 8.591 33.852 C 8.139 35.868 8.321 42.242 8.623 48.191 C 8.544 48.205 8.466 48.219 8.387 48.232 C 8.083 42.27 7.9 35.868 8.365 33.802 C 8.913 31.358 9.955 29.004 10.962 26.728 C 11.83 24.766 12.727 22.739 13.306 20.66 C 14.563 16.148 15.13 11.283 14.945 6.594 C 14.941 6.542 14.854 5.38 15.275 4.583 L 13.64 4.178 L 0.496 0.917 C -0.165 6.431 -0.985 12.019 -1.94 17.527 C -2.049 18.155 -2.155 18.785 -2.262 19.414 C -2.549 21.122 -2.847 22.886 -3.203 24.61 L -3.251 24.6 C -2.795 25.511 -2.47 26.594 -2.416 27.865 C -2.37 28.971 -2.375 30.22 -3.043 31.058 C -3.53 31.665 -4.478 31.847 -5.152 31.466 C -5.167 31.458 -5.179 31.443 -5.193 31.434 C -5.398 32.01 -5.53 32.47 -5.613 32.904 C -5.841 34.108 -5.807 35.385 -5.773 36.621 L -5.766 36.889 C -5.712 39.015 -5.625 43.746 -5.544 48.282 C -5.622 48.27 -5.699 48.254 -5.777 48.242 C -5.857 43.72 -5.945 39.014 -5.999 36.895 L -6.005 36.627 C -6.039 35.379 -6.073 34.089 -5.841 32.861 C -5.806 32.674 -5.755 32.478 -5.701 32.277 C -6.798 32.174 -8.881 30.136 -8.975 30.043 C -9.017 29.995 -13.136 25.233 -14.396 24.14 C -15.65 23.049 -18.024 19.017 -18.211 18.697 C -19.344 18.015 -20.791 16.771 -21.322 15.624 C -22.024 14.106 -22.014 12.141 -22.003 10.242 C -21.999 9.446 -21.995 8.696 -22.044 8.01 C -22.307 4.429 -22.804 1.557 -23.607 -1.029 C -23.839 -1.774 -24.081 -2.509 -24.316 -3.22 C -25.541 -6.934 -26.699 -10.442 -26.083 -14.591 C -26.075 -14.649 -26.025 -14.69 -25.968 -14.69 C -25.963 -14.69 -25.957 -14.69 -25.951 -14.689 C -25.888 -14.679 -25.844 -14.621 -25.853 -14.557 C -26.46 -10.463 -25.312 -6.98 -24.095 -3.293 C -23.86 -2.581 -23.618 -1.845 -23.386 -1.098 C -22.576 1.504 -22.077 4.394 -21.813 7.993 C -21.763 8.688 -21.767 9.443 -21.771 10.243 C -21.781 12.117 -21.792 14.056 -21.111 15.526 C -20.62 16.588 -19.207 17.833 -18.065 18.514 C -17.495 18.854 -13.046 23.415 -12.755 24.083 C -12.495 24.679 -10.591 27.062 -8.933 27.411 C -8.504 27.501 -8.12 27.693 -7.775 27.938 C -7.765 27.926 -7.759 27.911 -7.743 27.905 C -7.259 27.694 -5.945 27.045 -5.682 26.572 C -5.634 26.487 -5.556 26.442 -5.463 26.442 C -5.43 26.442 -5.395 26.448 -5.358 26.459 C -4.642 26.691 -2.859 29.484 -2.84 30.167 C -2.613 29.471 -2.616 28.639 -2.648 27.875 C -2.856 22.968 -7.219 20.926 -7.264 20.905 C -7.322 20.879 -7.348 20.811 -7.321 20.752 C -7.294 20.693 -7.223 20.667 -7.167 20.695 C -7.135 20.709 -4.774 21.822 -3.391 24.35 C -3.054 22.697 -2.766 21.01 -2.491 19.375 C -2.384 18.746 -2.278 18.116 -2.169 17.488 C -2.03 16.684 -1.9 15.876 -1.766 15.07 C -2.037 15.352 -2.266 15.605 -2.35 15.721 L -1.938 16.085 L -2.093 16.259 L -2.485 15.911 C -2.646 16.104 -3.047 16.523 -3.952 17.456 C -4.563 18.089 -5.258 18.806 -5.841 19.429 C -6.582 20.224 -7.114 20.598 -7.447 20.574 C -7.549 20.563 -7.613 20.511 -7.64 20.466 L -7.45 20.335 C -7.449 20.335 -7.162 20.505 -6.01 19.271 C -5.427 18.646 -4.731 17.928 -4.118 17.294 C -3.405 16.559 -2.668 15.798 -2.612 15.7 C -2.555 15.546 -1.977 14.948 -1.699 14.667 C -0.944 10.071 -0.281 5.441 0.268 0.859 L 0.247 0.854 L 0.283 0.742 L 0.296 0.628 L 0.317 0.634 L 9.635 -28.531 L 9.67 -28.641 L 24.32 -23.984 Z M 15.067 15.43 C 15.085 15.42 15.104 15.416 15.123 15.416 C 15.164 15.416 15.204 15.438 15.225 15.475 C 15.753 16.429 15.912 17.276 15.699 17.995 C 15.462 18.792 14.849 19.125 14.823 19.139 C 14.767 19.167 14.696 19.146 14.667 19.09 C 14.636 19.033 14.658 18.962 14.715 18.932 C 14.72 18.93 15.267 18.634 15.476 17.928 C 15.671 17.272 15.519 16.485 15.022 15.588 C 14.991 15.532 15.011 15.461 15.067 15.43 M -7.641 6.806 L -7.067 5.876 C -6.872 5.568 -6.679 5.258 -6.465 4.958 C -6.354 4.811 -6.239 4.665 -6.107 4.531 C -5.979 4.402 -5.827 4.268 -5.635 4.24 C -5.819 4.292 -5.943 4.437 -6.06 4.572 C -6.172 4.713 -6.27 4.865 -6.363 5.019 C -6.556 5.327 -6.729 5.646 -6.902 5.965 C -7.075 6.285 -7.256 6.599 -7.441 6.916 C -7.538 7.072 -7.628 7.227 -7.715 7.381 C -7.797 7.542 -7.88 7.7 -7.955 7.863 C -8.267 8.512 -8.533 9.185 -8.811 9.849 L -9.623 11.863 C -9.442 11.162 -9.224 10.474 -8.986 9.79 C -8.75 9.104 -8.486 8.429 -8.176 7.767 C -8.099 7.6 -8.012 7.439 -7.926 7.276 C -7.833 7.114 -7.738 6.955 -7.641 6.806 M -3.326 23.305 L -7.008 20.598 L -6.871 20.412 L -3.188 23.119 Z M -10.82 12.871 C -10.828 12.893 -11.697 15.217 -10.886 16.002 C -10.012 16.852 -8.158 19.943 -8.08 20.074 C -8.047 20.129 -8.065 20.2 -8.12 20.233 C -8.176 20.266 -8.247 20.248 -8.279 20.193 C -8.298 20.162 -10.196 16.997 -11.048 16.169 C -11.967 15.279 -11.075 12.889 -11.04 12.797 C -11.021 12.734 -9.204 6.462 -9.583 5.069 C -9.975 3.62 -9.553 0.861 -9.534 0.745 C -9.525 0.687 -9.476 0.646 -9.419 0.646 C -9.414 0.646 -9.408 0.646 -9.402 0.647 C -9.338 0.657 -9.295 0.717 -9.305 0.779 C -9.31 0.808 -9.738 3.607 -9.358 5.008 C -8.962 6.465 -10.741 12.601 -10.82 12.871 M -8.025 13.862 C -7.886 13.35 -7.763 12.833 -7.654 12.315 L -7.327 10.756 C -7.251 10.498 -7.204 10.227 -7.084 9.979 L -6.926 9.604 L -6.728 9.245 C -6.173 8.301 -5.39 7.507 -4.534 6.823 C -4.104 6.48 -3.655 6.163 -3.189 5.87 C -2.724 5.575 -2.235 5.318 -1.762 5.043 C -2.667 5.657 -3.596 6.246 -4.412 6.958 C -5.229 7.661 -5.996 8.438 -6.514 9.358 L -6.712 9.701 L -6.868 10.06 C -6.987 10.296 -7.033 10.552 -7.11 10.8 C -7.233 11.314 -7.33 11.841 -7.473 12.354 C -7.743 13.383 -8.026 14.42 -8.503 15.382 C -8.304 14.889 -8.158 14.377 -8.025 13.862" style="fill: rgb(55, 103, 246); fill-opacity: 1;"></path>
      </g>
    </g>
    <g style="clip-path: url(#clippath3);">
      <g transform="translate(45.4404 86.8628)">
        <path d="M 0 0 L -0.001 -0.005 L -0.125 -0.01 L -0.123 -0.106 C -0.064 -0.102 -0.001 -0.099 0.074 -0.099 L 0.509 -0.096 L 0.508 0.012 L 0.171 0.01 C 0.151 0.01 0.132 0.012 0.117 0.015 C 0.03 0.029 -0.031 0.083 -0.032 0.16 C -0.032 0.175 -0.031 0.187 -0.028 0.198 L -0.136 0.198 C -0.14 0.188 -0.141 0.178 -0.141 0.166 C -0.14 0.092 -0.085 0.026 0 0 M -0.052 -0.494 C -0.054 -0.37 0.059 -0.34 0.133 -0.341 L 0.136 -0.661 C 0.056 -0.652 -0.051 -0.604 -0.052 -0.494 M 0.401 -0.287 C 0.42 -0.327 0.435 -0.375 0.436 -0.452 C 0.437 -0.562 0.374 -0.657 0.218 -0.661 L 0.215 -0.238 C 0.204 -0.237 0.184 -0.234 0.161 -0.234 C 0.045 -0.235 -0.136 -0.289 -0.134 -0.486 C -0.134 -0.661 0.018 -0.768 0.208 -0.766 C 0.399 -0.764 0.527 -0.653 0.525 -0.467 C 0.524 -0.371 0.502 -0.304 0.484 -0.267 Z M 0.309 -1.318 C 0.294 -1.32 0.278 -1.322 0.262 -1.324 L 0.153 -1.324 C 0.137 -1.324 0.121 -1.32 0.106 -1.317 C 0.02 -1.297 -0.038 -1.227 -0.039 -1.152 C -0.039 -1.036 0.068 -0.971 0.196 -0.971 C 0.341 -0.97 0.44 -1.036 0.442 -1.151 C 0.442 -1.231 0.389 -1.297 0.309 -1.318 M 0.532 -1.132 C 0.531 -0.99 0.417 -0.859 0.189 -0.861 C -0.003 -0.863 -0.132 -0.974 -0.13 -1.119 C -0.128 -1.218 -0.083 -1.288 -0.005 -1.332 L -0.005 -1.334 L -0.113 -1.341 L -0.112 -1.439 C -0.052 -1.436 0.013 -1.434 0.094 -1.433 L 0.779 -1.428 L 0.778 -1.318 L 0.434 -1.322 L 0.434 -1.319 C 0.496 -1.282 0.532 -1.212 0.532 -1.132 M 0.453 -1.864 C 0.453 -1.921 0.419 -1.969 0.345 -1.969 C 0.221 -1.971 0.198 -1.834 0.2 -1.715 L 0.31 -1.715 C 0.321 -1.714 0.334 -1.718 0.346 -1.721 C 0.4 -1.736 0.452 -1.786 0.453 -1.864 M 0.521 -1.597 C 0.478 -1.604 0.424 -1.607 0.37 -1.607 L 0.133 -1.609 C 0.006 -1.611 -0.126 -1.656 -0.124 -1.841 C -0.123 -1.917 -0.099 -1.988 -0.066 -2.038 L 0.01 -2.013 C -0.019 -1.971 -0.038 -1.913 -0.038 -1.856 C -0.039 -1.733 0.054 -1.72 0.106 -1.718 L 0.12 -1.718 C 0.12 -1.951 0.206 -2.08 0.359 -2.079 C 0.45 -2.077 0.539 -2.015 0.539 -1.893 C 0.538 -1.806 0.492 -1.743 0.443 -1.709 L 0.442 -1.706 L 0.522 -1.696 Z M 0.321 -2.628 C 0.305 -2.63 0.29 -2.632 0.273 -2.634 L 0.164 -2.634 C 0.149 -2.634 0.132 -2.63 0.117 -2.627 C 0.031 -2.607 -0.026 -2.537 -0.027 -2.463 C -0.027 -2.346 0.08 -2.281 0.208 -2.281 C 0.352 -2.28 0.452 -2.346 0.453 -2.461 C 0.453 -2.542 0.4 -2.607 0.321 -2.628 M 0.445 -2.629 C 0.507 -2.592 0.543 -2.522 0.543 -2.442 C 0.542 -2.3 0.429 -2.169 0.201 -2.171 C 0.009 -2.173 -0.121 -2.284 -0.118 -2.429 C -0.117 -2.528 -0.072 -2.598 0.006 -2.642 L 0.006 -2.645 L -0.102 -2.651 L -0.101 -2.749 C -0.04 -2.746 0.024 -2.744 0.105 -2.743 L 0.79 -2.738 L 0.789 -2.628 L 0.445 -2.632 Z M -0.108 -3.118 C -0.112 -3.127 -0.113 -3.138 -0.113 -3.15 C -0.112 -3.223 -0.057 -3.289 0.028 -3.315 L 0.027 -3.321 L -0.096 -3.326 L -0.095 -3.421 C -0.037 -3.417 0.027 -3.415 0.102 -3.415 L 0.537 -3.411 L 0.536 -3.303 L 0.2 -3.306 C 0.18 -3.306 0.161 -3.303 0.145 -3.301 C 0.059 -3.287 -0.003 -3.232 -0.004 -3.155 C -0.004 -3.14 -0.003 -3.128 0 -3.118 Z M 0.162 -3.657 L 0.164 -3.977 C 0.084 -3.968 -0.023 -3.92 -0.024 -3.811 C -0.026 -3.685 0.087 -3.655 0.162 -3.657 M 0.236 -4.082 C 0.428 -4.08 0.555 -3.969 0.553 -3.783 C 0.552 -3.687 0.531 -3.62 0.512 -3.583 L 0.43 -3.603 C 0.449 -3.643 0.463 -3.69 0.464 -3.767 C 0.465 -3.878 0.402 -3.973 0.247 -3.977 L 0.243 -3.554 C 0.232 -3.552 0.211 -3.55 0.188 -3.55 C 0.073 -3.551 -0.108 -3.604 -0.106 -3.802 C -0.106 -3.977 0.046 -4.084 0.236 -4.082 M -0.087 -4.421 L -0.086 -4.514 L 0.001 -4.512 L 0 -4.418 L 0.345 -4.417 C 0.419 -4.417 0.476 -4.405 0.51 -4.373 C 0.542 -4.347 0.557 -4.306 0.556 -4.254 C 0.556 -4.212 0.55 -4.18 0.54 -4.158 L 0.455 -4.164 C 0.458 -4.178 0.463 -4.198 0.463 -4.225 C 0.463 -4.288 0.419 -4.31 0.341 -4.31 L 0 -4.312 L -0.001 -4.155 L -0.088 -4.157 L -0.087 -4.314 L -0.27 -4.314 L -0.238 -4.421 Z M 0.549 -4.735 L 0.547 -4.625 L -0.38 -4.633 L -0.379 -4.742 Z M -0.113 -5.38 L -0.079 -5.38 L -0.079 -5.465 L 0.01 -5.465 L 0.009 -5.38 L 0.554 -5.376 L 0.552 -5.267 L 0.008 -5.271 L 0.005 -5.031 L 0.55 -5.026 L 0.55 -4.918 L -0.083 -4.922 L -0.08 -5.271 L -0.111 -5.271 C -0.212 -5.274 -0.297 -5.239 -0.299 -5.124 C -0.298 -5.072 -0.282 -5.024 -0.262 -4.998 L -0.35 -4.965 C -0.374 -4.998 -0.391 -5.063 -0.39 -5.12 C -0.389 -5.289 -0.28 -5.382 -0.113 -5.38 M -0.005 -6.049 C -0.007 -5.925 0.106 -5.895 0.181 -5.897 L 0.184 -6.216 C 0.103 -6.207 -0.004 -6.16 -0.005 -6.049 M 0.265 -6.216 L 0.262 -5.792 C 0.25 -5.792 0.231 -5.791 0.208 -5.791 C 0.092 -5.791 -0.089 -5.845 -0.087 -6.04 C -0.087 -6.216 0.065 -6.322 0.255 -6.32 C 0.447 -6.318 0.574 -6.209 0.572 -6.022 C 0.571 -5.927 0.55 -5.86 0.531 -5.823 L 0.449 -5.842 C 0.468 -5.881 0.482 -5.929 0.483 -6.007 C 0.485 -6.118 0.421 -6.211 0.265 -6.216 M 0.566 -6.858 L 0.184 -6.86 C 0.162 -6.86 0.146 -6.86 0.13 -6.854 C 0.066 -6.833 0.014 -6.778 0.014 -6.707 C 0.013 -6.604 0.099 -6.567 0.201 -6.565 L 0.564 -6.563 L 0.563 -6.455 L 0.186 -6.457 C -0.032 -6.459 -0.083 -6.589 -0.082 -6.669 C -0.083 -6.711 -0.068 -6.748 -0.048 -6.782 C -0.029 -6.815 0 -6.841 0.033 -6.858 L 0.034 -6.86 L -0.361 -6.865 L -0.36 -6.974 L 0.568 -6.967 Z M 0.48 -7.104 C 0.483 -7.117 0.488 -7.136 0.488 -7.165 C 0.489 -7.228 0.444 -7.249 0.366 -7.249 L 0.024 -7.251 L 0.023 -7.093 L -0.063 -7.095 L -0.062 -7.253 L -0.245 -7.253 L -0.213 -7.36 L -0.062 -7.36 L -0.062 -7.453 L 0.026 -7.451 L 0.025 -7.358 L 0.37 -7.355 C 0.444 -7.355 0.501 -7.345 0.535 -7.312 C 0.567 -7.286 0.583 -7.245 0.583 -7.195 C 0.581 -7.151 0.575 -7.119 0.565 -7.097 Z M -1.58 1.379 L -1.582 1.374 L -1.705 1.369 L -1.704 1.274 C -1.645 1.278 -1.582 1.281 -1.507 1.281 L -1.071 1.284 L -1.072 1.392 L -1.409 1.389 C -1.429 1.389 -1.448 1.392 -1.463 1.394 C -1.55 1.408 -1.612 1.462 -1.613 1.54 C -1.613 1.555 -1.612 1.566 -1.608 1.577 L -1.718 1.577 C -1.72 1.567 -1.721 1.558 -1.721 1.545 C -1.72 1.472 -1.666 1.406 -1.58 1.379 M -1.382 0.665 C -1.501 0.664 -1.628 0.718 -1.628 0.848 C -1.63 0.979 -1.495 1.029 -1.388 1.031 C -1.245 1.032 -1.141 0.954 -1.14 0.849 C -1.14 0.741 -1.243 0.665 -1.382 0.665 M -1.393 1.143 C -1.586 1.142 -1.717 1.022 -1.716 0.849 C -1.714 0.684 -1.588 0.552 -1.377 0.554 C -1.177 0.556 -1.053 0.682 -1.054 0.845 C -1.056 0.99 -1.158 1.144 -1.393 1.143 M -1.625 -0.063 C -1.627 0.061 -1.514 0.091 -1.439 0.089 L -1.437 -0.23 C -1.517 -0.221 -1.624 -0.174 -1.625 -0.063 M -1.171 0.145 C -1.152 0.104 -1.138 0.057 -1.137 -0.021 C -1.136 -0.131 -1.199 -0.226 -1.354 -0.23 L -1.358 0.193 C -1.369 0.194 -1.389 0.196 -1.413 0.196 C -1.528 0.195 -1.709 0.142 -1.707 -0.055 C -1.707 -0.23 -1.555 -0.337 -1.364 -0.335 C -1.173 -0.333 -1.046 -0.223 -1.048 -0.036 C -1.049 0.06 -1.07 0.126 -1.089 0.165 Z M -1.168 -0.429 C -1.153 -0.46 -1.136 -0.501 -1.135 -0.564 C -1.134 -0.684 -1.223 -0.774 -1.369 -0.775 C -1.501 -0.776 -1.609 -0.703 -1.611 -0.564 C -1.611 -0.505 -1.597 -0.463 -1.582 -0.436 L -1.671 -0.413 C -1.686 -0.442 -1.703 -0.499 -1.703 -0.565 C -1.7 -0.761 -1.558 -0.887 -1.363 -0.886 C -1.17 -0.884 -1.042 -0.765 -1.043 -0.584 C -1.044 -0.501 -1.065 -0.439 -1.081 -0.41 Z M -1.23 -1.38 C -1.353 -1.382 -1.376 -1.245 -1.374 -1.126 L -1.264 -1.126 C -1.253 -1.125 -1.24 -1.128 -1.229 -1.131 C -1.174 -1.146 -1.122 -1.197 -1.121 -1.275 C -1.121 -1.332 -1.155 -1.38 -1.23 -1.38 M -1.131 -1.117 L -1.052 -1.107 L -1.053 -1.008 C -1.096 -1.015 -1.149 -1.018 -1.204 -1.018 L -1.441 -1.02 C -1.567 -1.021 -1.7 -1.067 -1.698 -1.251 C -1.696 -1.328 -1.673 -1.399 -1.64 -1.45 L -1.564 -1.423 C -1.593 -1.382 -1.612 -1.324 -1.612 -1.267 C -1.613 -1.144 -1.52 -1.13 -1.467 -1.128 L -1.454 -1.128 C -1.454 -1.362 -1.369 -1.49 -1.215 -1.489 C -1.124 -1.488 -1.035 -1.426 -1.035 -1.304 C -1.036 -1.217 -1.082 -1.154 -1.13 -1.12 Z M -1.709 -1.799 L -1.679 -1.798 L -1.679 -1.882 L -1.589 -1.882 L -1.591 -1.798 L -1.046 -1.793 L -1.047 -1.686 L -1.592 -1.689 L -1.593 -1.543 L -1.681 -1.544 L -1.68 -1.69 L -1.713 -1.691 C -1.811 -1.69 -1.896 -1.667 -1.897 -1.574 C -1.897 -1.543 -1.891 -1.521 -1.884 -1.504 L -1.973 -1.49 C -1.982 -1.512 -1.991 -1.545 -1.989 -1.584 C -1.989 -1.636 -1.973 -1.69 -1.931 -1.731 C -1.878 -1.781 -1.797 -1.799 -1.709 -1.799 M -1.688 -1.957 C -1.69 -1.966 -1.691 -1.977 -1.691 -1.988 C -1.69 -2.062 -1.636 -2.127 -1.55 -2.154 L -1.552 -2.16 L -1.675 -2.164 L -1.674 -2.26 C -1.615 -2.255 -1.552 -2.253 -1.477 -2.253 L -1.042 -2.25 L -1.042 -2.142 L -1.379 -2.144 C -1.399 -2.144 -1.418 -2.142 -1.434 -2.14 C -1.521 -2.125 -1.582 -2.071 -1.583 -1.994 C -1.583 -1.979 -1.582 -1.967 -1.578 -1.957 Z M -1.143 -2.534 L -1.143 -2.531 L -1.04 -2.524 L -1.041 -2.427 C -1.091 -2.431 -1.147 -2.434 -1.213 -2.434 L -1.673 -2.437 L -1.672 -2.547 L -1.283 -2.543 C -1.263 -2.543 -1.242 -2.547 -1.226 -2.552 C -1.174 -2.572 -1.12 -2.624 -1.12 -2.697 C -1.119 -2.797 -1.2 -2.831 -1.319 -2.832 L -1.67 -2.835 L -1.669 -2.945 L -1.299 -2.942 C -1.076 -2.941 -1.023 -2.827 -1.023 -2.732 C -1.025 -2.625 -1.092 -2.563 -1.143 -2.534 M -1.211 -3.079 C -1.306 -3.08 -1.359 -3.133 -1.401 -3.239 C -1.432 -3.318 -1.455 -3.354 -1.507 -3.354 C -1.554 -3.355 -1.594 -3.318 -1.594 -3.254 C -1.594 -3.198 -1.574 -3.153 -1.559 -3.129 L -1.642 -3.104 C -1.663 -3.137 -1.681 -3.191 -1.681 -3.253 C -1.679 -3.381 -1.595 -3.459 -1.493 -3.458 C -1.417 -3.458 -1.354 -3.407 -1.315 -3.298 C -1.284 -3.216 -1.255 -3.186 -1.2 -3.185 C -1.148 -3.185 -1.105 -3.221 -1.105 -3.302 C -1.105 -3.356 -1.127 -3.414 -1.149 -3.446 L -1.062 -3.472 C -1.036 -3.43 -1.019 -3.37 -1.019 -3.303 C -1.02 -3.16 -1.101 -3.078 -1.211 -3.079 M -1.59 -4.093 C -1.593 -3.969 -1.479 -3.939 -1.404 -3.94 L -1.402 -4.26 C -1.482 -4.251 -1.589 -4.204 -1.59 -4.093 M -1.32 -4.26 L -1.324 -3.837 C -1.334 -3.835 -1.354 -3.833 -1.378 -3.833 C -1.494 -3.834 -1.675 -3.888 -1.672 -4.084 C -1.672 -4.26 -1.52 -4.366 -1.33 -4.364 C -1.139 -4.362 -1.011 -4.252 -1.014 -4.064 C -1.015 -3.969 -1.036 -3.903 -1.054 -3.865 L -1.137 -3.886 C -1.118 -3.926 -1.103 -3.974 -1.102 -4.052 C -1.101 -4.161 -1.165 -4.256 -1.32 -4.26 M -1.446 -4.619 C -1.431 -4.615 -1.412 -4.614 -1.397 -4.614 L -1.289 -4.613 C -1.268 -4.613 -1.252 -4.614 -1.237 -4.617 C -1.151 -4.638 -1.1 -4.704 -1.1 -4.777 C -1.098 -4.895 -1.203 -4.957 -1.332 -4.957 C -1.471 -4.957 -1.577 -4.892 -1.577 -4.779 C -1.577 -4.696 -1.519 -4.636 -1.446 -4.619 M -1.572 -4.617 C -1.623 -4.646 -1.668 -4.708 -1.667 -4.801 C -1.666 -4.948 -1.535 -5.07 -1.326 -5.067 C -1.134 -5.065 -1.005 -4.953 -1.006 -4.807 C -1.007 -4.708 -1.061 -4.636 -1.131 -4.603 L -1.131 -4.601 L -1.022 -4.594 L -1.022 -4.497 C -1.066 -4.501 -1.13 -4.503 -1.186 -4.503 L -1.95 -4.507 L -1.949 -4.617 L -1.573 -4.615 Z M -1.827 -5.198 C -1.867 -5.198 -1.899 -5.224 -1.898 -5.265 C -1.898 -5.306 -1.867 -5.334 -1.826 -5.333 C -1.787 -5.333 -1.756 -5.306 -1.756 -5.267 C -1.756 -5.224 -1.788 -5.196 -1.827 -5.198 M -1.017 -5.202 L -1.649 -5.208 L -1.648 -5.319 L -1.016 -5.313 Z M -1.19 -5.456 C -1.286 -5.456 -1.339 -5.51 -1.38 -5.617 C -1.412 -5.695 -1.435 -5.729 -1.487 -5.729 C -1.534 -5.732 -1.574 -5.695 -1.574 -5.63 C -1.574 -5.576 -1.554 -5.53 -1.538 -5.506 L -1.622 -5.48 C -1.643 -5.515 -1.661 -5.569 -1.661 -5.63 C -1.659 -5.758 -1.575 -5.836 -1.473 -5.836 C -1.397 -5.836 -1.334 -5.784 -1.295 -5.675 C -1.264 -5.593 -1.235 -5.562 -1.18 -5.562 C -1.128 -5.562 -1.085 -5.597 -1.085 -5.678 C -1.085 -5.732 -1.107 -5.791 -1.129 -5.823 L -1.042 -5.849 C -1.016 -5.808 -0.999 -5.747 -0.999 -5.68 C -1 -5.537 -1.081 -5.454 -1.19 -5.456 M -1.374 -6.099 L -1.009 -6.094 L -1.01 -5.986 L -1.388 -5.988 C -1.604 -5.99 -1.655 -6.12 -1.655 -6.203 C -1.655 -6.303 -1.595 -6.372 -1.534 -6.402 L -1.535 -6.405 L -1.64 -6.411 L -1.638 -6.509 C -1.586 -6.504 -1.533 -6.502 -1.467 -6.502 L -1.006 -6.498 L -1.007 -6.39 L -1.387 -6.392 C -1.407 -6.392 -1.426 -6.39 -1.44 -6.385 C -1.505 -6.368 -1.56 -6.312 -1.56 -6.24 C -1.561 -6.136 -1.475 -6.099 -1.374 -6.099 M -1.636 -6.795 L -1.003 -6.789 L -1.004 -6.68 L -1.637 -6.685 Z M -1.744 -6.743 C -1.744 -6.7 -1.776 -6.674 -1.815 -6.674 C -1.854 -6.674 -1.887 -6.702 -1.886 -6.741 C -1.886 -6.782 -1.853 -6.811 -1.813 -6.811 C -1.774 -6.811 -1.744 -6.782 -1.744 -6.743 M -1.376 -7.299 L -1.374 -7.62 C -1.454 -7.612 -1.561 -7.564 -1.562 -7.453 C -1.564 -7.33 -1.451 -7.299 -1.376 -7.299 M -1.302 -7.725 C -1.11 -7.722 -0.983 -7.612 -0.985 -7.425 C -0.986 -7.33 -1.007 -7.264 -1.026 -7.225 L -1.108 -7.245 C -1.089 -7.286 -1.075 -7.334 -1.074 -7.412 C -1.073 -7.521 -1.136 -7.616 -1.292 -7.62 L -1.295 -7.197 C -1.306 -7.195 -1.326 -7.193 -1.35 -7.193 C -1.465 -7.195 -1.646 -7.247 -1.644 -7.444 C -1.644 -7.62 -1.492 -7.727 -1.302 -7.725 M -0.991 -8.261 L -1.373 -8.265 C -1.395 -8.265 -1.412 -8.263 -1.427 -8.256 C -1.491 -8.237 -1.543 -8.18 -1.543 -8.111 C -1.544 -8.007 -1.458 -7.972 -1.356 -7.97 L -0.993 -7.968 L -0.994 -7.857 L -1.371 -7.859 C -1.588 -7.861 -1.641 -7.992 -1.639 -8.074 C -1.64 -8.115 -1.625 -8.152 -1.605 -8.185 C -1.586 -8.217 -1.557 -8.246 -1.524 -8.263 L -1.523 -8.265 L -1.919 -8.27 L -1.918 -8.378 L -0.989 -8.372 Z M -1.077 -8.506 C -1.073 -8.519 -1.069 -8.541 -1.069 -8.569 C -1.068 -8.632 -1.112 -8.651 -1.191 -8.654 L -1.533 -8.656 L -1.534 -8.497 L -1.621 -8.5 L -1.619 -8.656 L -1.802 -8.658 L -1.77 -8.764 L -1.619 -8.762 L -1.618 -8.855 L -1.53 -8.855 L -1.531 -8.762 L -1.187 -8.76 C -1.112 -8.76 -1.056 -8.747 -1.022 -8.716 C -0.99 -8.69 -0.975 -8.649 -0.976 -8.597 C -0.976 -8.556 -0.982 -8.521 -0.993 -8.501 Z M -2.625 -0.607 L -3.007 -0.61 C -3.029 -0.61 -3.046 -0.609 -3.061 -0.603 C -3.125 -0.584 -3.177 -0.527 -3.177 -0.458 C -3.178 -0.354 -3.093 -0.317 -2.99 -0.316 L -2.627 -0.312 L -2.628 -0.204 L -3.005 -0.206 C -3.223 -0.208 -3.275 -0.338 -3.272 -0.419 C -3.274 -0.461 -3.259 -0.498 -3.239 -0.532 C -3.22 -0.564 -3.19 -0.592 -3.158 -0.608 L -3.157 -0.612 L -3.553 -0.615 L -3.552 -0.724 L -2.624 -0.717 Z M -2.733 -0.864 C -2.719 -0.896 -2.701 -0.937 -2.7 -0.999 C -2.699 -1.119 -2.789 -1.209 -2.934 -1.21 C -3.067 -1.211 -3.174 -1.138 -3.176 -0.999 C -3.176 -0.94 -3.162 -0.899 -3.146 -0.871 L -3.237 -0.848 C -3.251 -0.878 -3.268 -0.935 -3.268 -1 C -3.265 -1.197 -3.123 -1.322 -2.929 -1.321 C -2.735 -1.319 -2.607 -1.2 -2.609 -1.019 C -2.61 -0.937 -2.63 -0.874 -2.646 -0.846 Z M -2.72 -1.56 L -2.72 -1.557 L -2.617 -1.55 L -2.618 -1.452 C -2.668 -1.457 -2.725 -1.458 -2.79 -1.458 L -3.25 -1.462 L -3.249 -1.572 L -2.86 -1.569 C -2.84 -1.569 -2.819 -1.572 -2.802 -1.578 C -2.751 -1.598 -2.697 -1.649 -2.697 -1.723 C -2.695 -1.822 -2.777 -1.856 -2.896 -1.858 L -3.247 -1.861 L -3.246 -1.97 L -2.875 -1.968 C -2.654 -1.967 -2.6 -1.852 -2.6 -1.758 C -2.602 -1.65 -2.669 -1.588 -2.72 -1.56 M -2.923 -2.581 C -3.043 -2.582 -3.169 -2.528 -3.169 -2.398 C -3.171 -2.268 -3.036 -2.217 -2.929 -2.216 C -2.786 -2.215 -2.683 -2.292 -2.681 -2.396 C -2.681 -2.504 -2.785 -2.581 -2.923 -2.581 M -2.934 -2.104 C -3.127 -2.104 -3.258 -2.223 -3.257 -2.396 C -3.255 -2.563 -3.129 -2.693 -2.918 -2.692 C -2.718 -2.69 -2.595 -2.565 -2.596 -2.401 C -2.597 -2.255 -2.699 -2.103 -2.934 -2.104 M -3.389 -3.02 L -2.605 -3.015 L -2.605 -2.904 L -3.39 -2.912 L -3.392 -2.655 L -3.488 -2.655 L -3.483 -3.277 L -3.386 -3.275 Z M -2.688 -3.526 C -2.685 -3.54 -2.68 -3.561 -2.68 -3.588 C -2.68 -3.65 -2.724 -3.672 -2.803 -3.673 L -3.144 -3.675 L -3.145 -3.518 L -3.232 -3.52 L -3.23 -3.676 L -3.413 -3.677 L -3.382 -3.785 L -3.23 -3.783 L -3.229 -3.876 L -3.142 -3.876 L -3.143 -3.783 L -2.798 -3.78 C -2.724 -3.78 -2.667 -3.767 -2.634 -3.737 C -2.602 -3.71 -2.586 -3.668 -2.587 -3.618 C -2.587 -3.575 -2.594 -3.542 -2.604 -3.52 Z M -2.908 -4.423 C -3.027 -4.423 -3.153 -4.369 -3.153 -4.238 C -3.156 -4.108 -3.02 -4.058 -2.914 -4.056 C -2.771 -4.056 -2.667 -4.133 -2.666 -4.238 C -2.666 -4.345 -2.77 -4.423 -2.908 -4.423 M -2.918 -3.944 C -3.111 -3.945 -3.243 -4.064 -3.242 -4.238 C -3.239 -4.404 -3.113 -4.534 -2.902 -4.534 C -2.703 -4.531 -2.579 -4.405 -2.58 -4.243 C -2.581 -4.096 -2.684 -3.943 -2.918 -3.944 M -2.586 -5.202 L -2.963 -5.204 C -3.108 -5.207 -3.214 -5.208 -3.325 -5.217 L -3.327 -5.213 C -3.232 -5.169 -3.132 -5.113 -3.034 -5.052 L -2.589 -4.783 L -2.59 -4.673 L -3.47 -4.68 L -3.469 -4.783 L -3.102 -4.781 C -2.964 -4.778 -2.857 -4.774 -2.739 -4.765 L -2.738 -4.767 C -2.829 -4.807 -2.921 -4.857 -3.024 -4.92 L -3.466 -5.193 L -3.465 -5.311 L -2.585 -5.304 Z M -2.893 -6.19 C -3.012 -6.192 -3.139 -6.138 -3.139 -6.007 C -3.141 -5.877 -3.005 -5.825 -2.898 -5.825 C -2.755 -5.823 -2.651 -5.901 -2.65 -6.005 C -2.65 -6.114 -2.754 -6.19 -2.893 -6.19 M -2.903 -5.712 C -3.097 -5.714 -3.228 -5.832 -3.226 -6.005 C -3.224 -6.172 -3.099 -6.303 -2.888 -6.303 C -2.688 -6.3 -2.564 -6.175 -2.565 -6.01 C -2.566 -5.864 -2.668 -5.712 -2.903 -5.712 M -2.661 -6.98 L -3.355 -6.984 C -3.363 -6.956 -3.369 -6.915 -3.369 -6.856 C -3.371 -6.63 -3.24 -6.516 -3.032 -6.516 C -2.794 -6.513 -2.658 -6.639 -2.655 -6.872 C -2.655 -6.913 -2.655 -6.952 -2.661 -6.98 M -3.038 -6.402 C -3.179 -6.402 -3.281 -6.448 -3.352 -6.522 C -3.423 -6.598 -3.459 -6.707 -3.458 -6.865 C -3.458 -6.95 -3.45 -7.028 -3.438 -7.095 L -2.573 -7.086 C -2.566 -7.032 -2.563 -6.969 -2.564 -6.889 C -2.565 -6.728 -2.611 -6.598 -2.694 -6.52 C -2.775 -6.441 -2.893 -6.402 -3.038 -6.402" style="fill: rgb(89, 34, 225); fill-opacity: 1;"></path>
      </g>
    </g>
    <g style="clip-path: url(#clippath3);">
      <g transform="translate(42.0063 15.6987)">
        <path d="M 0 0 L 3.241 2.362 L 1.992 6.623 L 1.513 5.027 C -1.719 6.028 -2.907 9.542 -2.907 9.542 L -5.366 6.831 C -3.382 2.861 -0.732 1.86 0.483 1.606 Z" style="fill: rgb(251, 42, 105); fill-opacity: 1;"></path>
      </g>
    </g>
    <g style="clip-path: url(#clippath3);">
      <g transform="translate(69.0454 25.4585)">
        <path d="M 0 0 L -3.829 1.265 L -3.986 5.694 L -3.026 4.324 C -0.271 6.251 -0.251 9.953 -0.251 9.953 L 2.944 8.116 C 2.313 3.742 0.11 1.988 -0.967 1.38 Z" style="fill: rgb(251, 42, 105); fill-opacity: 1;"></path>
      </g>
    </g>
    <g style="clip-path: url(#clippath3);">
      <g transform="translate(44.1064 85.2065)">
        <path d="M 0 0 C -22.664 0 -41.101 -18.438 -41.101 -41.102 C -41.101 -63.764 -22.664 -82.202 0 -82.202 C 22.664 -82.202 41.102 -63.764 41.102 -41.102 C 41.102 -18.438 22.664 0 0 0 M 0 -85.207 C -24.32 -85.207 -44.106 -65.421 -44.106 -41.102 C -44.106 -16.781 -24.32 3.005 0 3.005 C 24.321 3.005 44.106 -16.781 44.106 -41.102 C 44.106 -65.421 24.321 -85.207 0 -85.207" style="fill: rgb(89, 34, 225); fill-opacity: 1;"></path>
      </g>
    </g>
  </g>
</svg>