<svg viewBox="0 0 88 88" xmlns="http://www.w3.org/2000/svg">
  <defs>
    <clipPath id="clippath5" transform="">
      <path d="M 0 88.214 L 88.214 88.214 L 88.214 0 L 0 0 Z" style="fill: none; clip-rule: nonzero;"></path>
    </clipPath>
  </defs>
  <g transform="matrix(1, 0, 0, -1, 0, 88)">
    <g transform="">
      <path d="M 0 88.214 L 88.214 88.214 L 88.214 0 L 0 0 Z" style="fill: none;"></path>
    </g>
    <g style="clip-path: url(#clippath5);">
      <g transform="translate(70.9258 64.4307)">
        <path d="M 0 0 L -0.076 -0.006 L -0.072 -0.064 C -0.037 -0.061 0.002 -0.057 0.048 -0.054 L 0.312 -0.039 L 0.309 0.026 L 0.104 0.016 L 0.07 0.016 C 0.018 0.022 -0.022 0.055 -0.025 0.103 L -0.023 0.124 L -0.089 0.12 L -0.091 0.103 C -0.088 0.057 -0.055 0.018 0 0.002 Z M -0.018 -0.299 C -0.021 -0.224 0.046 -0.201 0.09 -0.199 L 0.104 -0.395 C 0.055 -0.393 -0.013 -0.366 -0.018 -0.299 M 0.253 -0.16 C 0.266 -0.185 0.275 -0.213 0.279 -0.26 C 0.283 -0.325 0.247 -0.386 0.153 -0.393 L 0.137 -0.135 L 0.105 -0.135 C 0.033 -0.139 -0.075 -0.176 -0.067 -0.295 C -0.061 -0.403 0.033 -0.462 0.15 -0.458 C 0.266 -0.451 0.341 -0.377 0.334 -0.267 C 0.331 -0.208 0.314 -0.169 0.303 -0.146 Z M 0.228 -0.79 L 0.199 -0.794 L 0.134 -0.799 L 0.104 -0.794 C 0.051 -0.785 0.014 -0.744 0.012 -0.698 C 0.008 -0.627 0.071 -0.586 0.148 -0.581 C 0.236 -0.577 0.3 -0.614 0.305 -0.686 C 0.308 -0.733 0.275 -0.774 0.228 -0.79 M 0.359 -0.671 C 0.354 -0.584 0.28 -0.508 0.141 -0.517 C 0.023 -0.521 -0.05 -0.593 -0.045 -0.682 C -0.041 -0.742 -0.011 -0.783 0.038 -0.808 L 0.038 -0.81 L -0.028 -0.816 L -0.025 -0.877 C 0.012 -0.872 0.052 -0.868 0.101 -0.866 L 0.518 -0.844 L 0.514 -0.777 L 0.305 -0.79 L 0.305 -0.788 C 0.341 -0.764 0.361 -0.719 0.359 -0.671 M 0.333 -1.12 C 0.335 -1.152 0.315 -1.183 0.271 -1.185 C 0.195 -1.189 0.177 -1.106 0.175 -1.035 L 0.241 -1.031 L 0.264 -1.033 C 0.296 -1.042 0.33 -1.072 0.333 -1.12 M 0.37 -1.014 L 0.367 -0.953 C 0.34 -0.959 0.309 -0.964 0.274 -0.964 L 0.131 -0.973 C 0.053 -0.977 -0.026 -1.009 -0.019 -1.122 C -0.016 -1.168 0 -1.211 0.022 -1.239 L 0.067 -1.222 C 0.049 -1.196 0.036 -1.161 0.033 -1.129 C 0.029 -1.053 0.087 -1.042 0.117 -1.039 L 0.126 -1.039 C 0.134 -1.181 0.188 -1.257 0.282 -1.252 C 0.338 -1.248 0.39 -1.207 0.386 -1.133 C 0.382 -1.081 0.354 -1.044 0.322 -1.024 L 0.322 -1.022 Z M 0.247 -1.593 L 0.18 -1.596 L 0.152 -1.593 C 0.1 -1.582 0.062 -1.543 0.06 -1.498 C 0.056 -1.426 0.119 -1.383 0.196 -1.378 C 0.284 -1.374 0.348 -1.413 0.352 -1.482 C 0.354 -1.53 0.324 -1.571 0.274 -1.589 Z M 0.352 -1.584 C 0.389 -1.561 0.408 -1.518 0.406 -1.47 C 0.4 -1.383 0.328 -1.305 0.189 -1.313 C 0.071 -1.319 -0.003 -1.389 0.003 -1.479 C 0.007 -1.539 0.037 -1.58 0.085 -1.606 L 0.02 -1.612 L 0.022 -1.674 C 0.06 -1.669 0.1 -1.665 0.148 -1.662 L 0.565 -1.641 L 0.562 -1.573 L 0.352 -1.587 Z M 0.03 -1.899 L 0.028 -1.917 C 0.031 -1.962 0.066 -2.001 0.119 -2.015 L 0.119 -2.017 L 0.043 -2.022 L 0.048 -2.084 C 0.082 -2.077 0.121 -2.075 0.167 -2.073 L 0.432 -2.058 L 0.429 -1.992 L 0.223 -2.003 L 0.191 -2.003 C 0.138 -1.997 0.098 -1.964 0.096 -1.917 L 0.097 -1.895 Z M 0.104 -2.316 C 0.098 -2.242 0.166 -2.221 0.211 -2.219 L 0.223 -2.414 C 0.174 -2.409 0.107 -2.386 0.104 -2.316 M 0.272 -2.411 L 0.257 -2.153 L 0.225 -2.153 C 0.154 -2.157 0.045 -2.194 0.052 -2.313 C 0.059 -2.42 0.154 -2.48 0.271 -2.477 C 0.387 -2.468 0.46 -2.396 0.454 -2.283 C 0.45 -2.225 0.436 -2.186 0.422 -2.164 L 0.372 -2.177 C 0.387 -2.203 0.396 -2.229 0.398 -2.277 C 0.402 -2.344 0.367 -2.405 0.272 -2.411 M 0.446 -2.646 C 0.464 -2.629 0.473 -2.603 0.47 -2.572 C 0.469 -2.546 0.464 -2.526 0.458 -2.514 L 0.405 -2.52 L 0.412 -2.557 C 0.415 -2.596 0.389 -2.609 0.341 -2.611 L 0.133 -2.622 L 0.127 -2.526 L 0.074 -2.531 L 0.079 -2.626 L -0.03 -2.631 L -0.009 -2.696 L 0.084 -2.691 L 0.087 -2.748 L 0.14 -2.746 L 0.137 -2.689 L 0.348 -2.677 C 0.393 -2.674 0.426 -2.665 0.446 -2.646 M 0.477 -2.798 L -0.088 -2.828 L -0.085 -2.896 L 0.479 -2.865 Z M 0.117 -3.275 L 0.12 -3.327 L 0.175 -3.323 L 0.172 -3.271 L 0.504 -3.254 L 0.499 -3.188 L 0.167 -3.206 L 0.158 -3.059 L 0.49 -3.041 L 0.486 -2.976 L 0.102 -2.995 L 0.114 -3.208 L 0.096 -3.21 C 0.035 -3.213 -0.02 -3.195 -0.023 -3.126 C -0.026 -3.093 -0.018 -3.063 -0.006 -3.048 L -0.06 -3.03 C -0.074 -3.05 -0.081 -3.091 -0.08 -3.126 C -0.074 -3.229 -0.004 -3.282 0.098 -3.277 Z M 0.184 -3.68 C 0.179 -3.605 0.247 -3.584 0.292 -3.581 L 0.304 -3.777 C 0.255 -3.772 0.187 -3.749 0.184 -3.68 M 0.354 -3.774 L 0.339 -3.517 L 0.306 -3.517 C 0.234 -3.521 0.126 -3.558 0.134 -3.677 C 0.139 -3.785 0.234 -3.844 0.352 -3.84 C 0.467 -3.833 0.542 -3.76 0.535 -3.648 C 0.532 -3.588 0.516 -3.551 0.504 -3.527 L 0.454 -3.54 C 0.467 -3.566 0.478 -3.595 0.479 -3.643 C 0.484 -3.707 0.448 -3.769 0.354 -3.774 M 0.557 -4.157 L 0.324 -4.17 L 0.291 -4.165 C 0.252 -4.157 0.218 -4.124 0.216 -4.081 C 0.212 -4.018 0.263 -3.992 0.324 -3.989 L 0.546 -3.977 L 0.542 -3.909 L 0.312 -3.925 C 0.18 -3.931 0.154 -4.012 0.156 -4.062 C 0.157 -4.085 0.167 -4.109 0.18 -4.126 L 0.231 -4.172 L 0.231 -4.174 L -0.009 -4.187 L -0.004 -4.255 L 0.561 -4.224 Z M 0.564 -4.302 L 0.512 -4.309 L 0.519 -4.346 C 0.521 -4.385 0.495 -4.397 0.447 -4.4 L 0.239 -4.413 L 0.233 -4.315 L 0.18 -4.319 L 0.187 -4.415 L 0.076 -4.422 L 0.098 -4.484 L 0.189 -4.48 L 0.193 -4.537 L 0.246 -4.534 L 0.243 -4.479 L 0.454 -4.467 C 0.499 -4.463 0.532 -4.454 0.553 -4.435 C 0.57 -4.417 0.578 -4.392 0.576 -4.36 C 0.575 -4.335 0.57 -4.315 0.564 -4.302 M -1.006 0.797 L -1.081 0.79 L -1.078 0.731 C -1.042 0.736 -1.004 0.738 -0.958 0.74 L -0.693 0.756 L -0.697 0.821 L -0.902 0.81 L -0.935 0.812 C -0.987 0.818 -1.027 0.849 -1.03 0.896 L -1.029 0.919 L -1.097 0.916 L -1.098 0.896 C -1.094 0.852 -1.06 0.814 -1.007 0.799 Z M -0.863 0.369 C -0.936 0.365 -1.014 0.396 -1.018 0.474 C -1.023 0.554 -0.943 0.589 -0.877 0.593 C -0.79 0.598 -0.725 0.554 -0.722 0.488 C -0.718 0.424 -0.778 0.374 -0.863 0.369 M -0.884 0.66 C -1.002 0.653 -1.077 0.578 -1.071 0.474 C -1.064 0.371 -0.985 0.296 -0.856 0.302 C -0.734 0.309 -0.663 0.389 -0.669 0.488 C -0.674 0.578 -0.741 0.669 -0.884 0.66 M -0.988 -0.08 C -0.993 -0.006 -0.925 0.018 -0.88 0.02 L -0.868 -0.178 C -0.917 -0.174 -0.984 -0.147 -0.988 -0.08 M -0.719 0.059 C -0.705 0.035 -0.694 0.007 -0.691 -0.041 C -0.688 -0.108 -0.724 -0.167 -0.818 -0.176 L -0.834 0.083 L -0.866 0.085 C -0.937 0.081 -1.046 0.042 -1.039 -0.078 C -1.033 -0.185 -0.937 -0.245 -0.82 -0.238 C -0.705 -0.232 -0.631 -0.16 -0.637 -0.048 C -0.641 0.011 -0.655 0.05 -0.669 0.074 Z M -0.699 -0.291 C -0.689 -0.308 -0.676 -0.334 -0.674 -0.371 C -0.67 -0.444 -0.722 -0.501 -0.811 -0.506 C -0.891 -0.51 -0.958 -0.469 -0.964 -0.386 C -0.967 -0.35 -0.958 -0.323 -0.949 -0.306 L -1.005 -0.295 C -1.014 -0.312 -1.022 -0.35 -1.021 -0.389 C -1.012 -0.508 -0.923 -0.581 -0.803 -0.575 C -0.685 -0.568 -0.611 -0.492 -0.617 -0.382 C -0.621 -0.332 -0.635 -0.293 -0.646 -0.275 Z M -0.644 -0.805 C -0.642 -0.838 -0.661 -0.868 -0.707 -0.87 C -0.781 -0.875 -0.8 -0.794 -0.802 -0.721 L -0.736 -0.716 L -0.713 -0.719 C -0.681 -0.727 -0.646 -0.758 -0.644 -0.805 M -0.847 -0.657 C -0.924 -0.662 -1.003 -0.692 -0.995 -0.808 C -0.992 -0.853 -0.977 -0.896 -0.953 -0.925 L -0.908 -0.907 C -0.928 -0.881 -0.941 -0.849 -0.943 -0.813 C -0.947 -0.738 -0.891 -0.727 -0.858 -0.725 L -0.851 -0.725 C -0.844 -0.866 -0.788 -0.941 -0.694 -0.937 C -0.64 -0.936 -0.587 -0.895 -0.592 -0.818 C -0.595 -0.766 -0.623 -0.729 -0.654 -0.71 L -0.654 -0.707 L -0.606 -0.698 L -0.61 -0.638 C -0.637 -0.645 -0.669 -0.648 -0.702 -0.648 Z M -0.966 -1.14 L -0.964 -1.189 L -0.91 -1.187 L -0.913 -1.135 L -0.582 -1.117 L -0.585 -1.053 L -0.917 -1.07 L -0.923 -0.98 L -0.977 -0.985 L -0.971 -1.072 L -0.992 -1.074 C -1.05 -1.076 -1.103 -1.065 -1.107 -1.009 L -1.101 -0.966 L -1.155 -0.959 L -1.163 -1.016 C -1.161 -1.048 -1.148 -1.081 -1.122 -1.104 C -1.089 -1.133 -1.039 -1.142 -0.985 -1.14 Z M -0.807 -1.339 C -0.86 -1.333 -0.899 -1.302 -0.902 -1.255 L -0.9 -1.232 L -0.968 -1.235 L -0.969 -1.255 C -0.966 -1.3 -0.932 -1.337 -0.878 -1.353 L -0.878 -1.354 L -0.954 -1.36 L -0.949 -1.419 C -0.915 -1.415 -0.876 -1.413 -0.83 -1.411 L -0.565 -1.396 L -0.568 -1.33 L -0.775 -1.341 Z M -0.944 -1.528 L -0.939 -1.596 L -0.703 -1.582 L -0.668 -1.587 C -0.636 -1.596 -0.602 -1.626 -0.598 -1.669 C -0.595 -1.732 -0.643 -1.754 -0.717 -1.758 L -0.929 -1.771 L -0.926 -1.836 L -0.7 -1.825 C -0.564 -1.816 -0.536 -1.747 -0.539 -1.688 C -0.543 -1.623 -0.586 -1.587 -0.619 -1.571 L -0.619 -1.569 L -0.555 -1.562 L -0.559 -1.504 C -0.59 -1.509 -0.624 -1.511 -0.664 -1.513 Z M -0.643 -1.905 C -0.7 -1.908 -0.731 -1.942 -0.752 -2.008 C -0.77 -2.058 -0.782 -2.079 -0.815 -2.081 C -0.842 -2.084 -0.868 -2.062 -0.87 -2.022 C -0.873 -1.988 -0.861 -1.962 -0.854 -1.947 L -0.905 -1.932 C -0.916 -1.953 -0.925 -1.986 -0.923 -2.022 C -0.918 -2.104 -0.865 -2.148 -0.803 -2.145 C -0.756 -2.143 -0.721 -2.109 -0.699 -2.042 C -0.683 -1.992 -0.666 -1.971 -0.633 -1.969 C -0.601 -1.969 -0.574 -1.99 -0.571 -2.038 C -0.568 -2.07 -0.582 -2.107 -0.594 -2.127 L -0.539 -2.14 C -0.525 -2.114 -0.517 -2.077 -0.519 -2.036 C -0.525 -1.949 -0.575 -1.901 -0.643 -1.905 M -0.842 -2.533 C -0.848 -2.459 -0.779 -2.438 -0.734 -2.436 L -0.723 -2.631 C -0.771 -2.626 -0.838 -2.601 -0.842 -2.533 M -0.673 -2.629 L -0.688 -2.37 L -0.721 -2.37 C -0.791 -2.372 -0.9 -2.411 -0.894 -2.531 C -0.886 -2.638 -0.791 -2.698 -0.675 -2.691 C -0.559 -2.685 -0.485 -2.613 -0.491 -2.5 C -0.495 -2.441 -0.51 -2.402 -0.523 -2.379 L -0.573 -2.395 C -0.559 -2.418 -0.549 -2.446 -0.546 -2.494 C -0.543 -2.562 -0.578 -2.622 -0.673 -2.629 M -0.738 -2.85 L -0.709 -2.846 L -0.643 -2.841 L -0.611 -2.844 C -0.558 -2.853 -0.524 -2.892 -0.522 -2.937 C -0.518 -3.009 -0.58 -3.048 -0.658 -3.052 C -0.743 -3.057 -0.809 -3.02 -0.812 -2.952 C -0.816 -2.899 -0.782 -2.863 -0.738 -2.85 M -0.866 -2.967 C -0.861 -3.057 -0.778 -3.128 -0.651 -3.119 C -0.534 -3.112 -0.459 -3.041 -0.465 -2.952 C -0.468 -2.892 -0.504 -2.85 -0.547 -2.83 L -0.48 -2.824 L -0.484 -2.763 C -0.512 -2.768 -0.551 -2.77 -0.583 -2.771 L -1.049 -2.796 L -1.044 -2.863 L -0.815 -2.853 C -0.845 -2.872 -0.87 -2.911 -0.866 -2.967 M -0.952 -3.213 C -0.977 -3.215 -0.995 -3.229 -0.993 -3.256 C -0.992 -3.279 -0.973 -3.297 -0.947 -3.295 L -0.906 -3.254 C -0.908 -3.226 -0.929 -3.21 -0.952 -3.213 M -0.84 -3.282 L -0.454 -3.26 L -0.459 -3.195 L -0.844 -3.215 Z M -0.557 -3.352 C -0.614 -3.355 -0.646 -3.391 -0.666 -3.456 C -0.684 -3.503 -0.697 -3.527 -0.729 -3.529 C -0.757 -3.529 -0.782 -3.508 -0.785 -3.471 C -0.787 -3.437 -0.776 -3.408 -0.767 -3.393 L -0.819 -3.38 C -0.83 -3.401 -0.839 -3.434 -0.837 -3.471 C -0.832 -3.549 -0.779 -3.595 -0.717 -3.593 C -0.67 -3.588 -0.635 -3.556 -0.613 -3.488 C -0.597 -3.438 -0.58 -3.419 -0.547 -3.417 C -0.515 -3.414 -0.487 -3.437 -0.484 -3.483 C -0.483 -3.519 -0.496 -3.554 -0.508 -3.575 L -0.454 -3.588 C -0.438 -3.56 -0.431 -3.525 -0.433 -3.483 C -0.438 -3.397 -0.488 -3.35 -0.557 -3.352 M -0.816 -3.82 C -0.812 -3.881 -0.775 -3.922 -0.737 -3.938 L -0.737 -3.939 L -0.8 -3.948 L -0.797 -4.007 C -0.766 -4.003 -0.732 -4 -0.692 -3.998 L -0.411 -3.98 L -0.416 -3.916 L -0.646 -3.929 L -0.681 -3.925 C -0.72 -3.916 -0.754 -3.883 -0.758 -3.84 C -0.761 -3.777 -0.71 -3.751 -0.648 -3.749 L -0.426 -3.735 L -0.43 -3.671 L -0.66 -3.682 C -0.792 -3.69 -0.819 -3.771 -0.816 -3.82 M -0.787 -4.181 L -0.4 -4.161 L -0.405 -4.094 L -0.79 -4.113 Z M -0.854 -4.152 C -0.855 -4.126 -0.876 -4.109 -0.898 -4.111 C -0.924 -4.113 -0.942 -4.131 -0.939 -4.154 C -0.938 -4.181 -0.918 -4.196 -0.895 -4.193 Z M -0.721 -4.578 C -0.725 -4.504 -0.658 -4.482 -0.613 -4.48 L -0.602 -4.676 C -0.65 -4.671 -0.717 -4.647 -0.721 -4.578 M -0.552 -4.674 L -0.566 -4.415 L -0.6 -4.415 C -0.67 -4.42 -0.779 -4.456 -0.771 -4.576 C -0.764 -4.685 -0.67 -4.743 -0.554 -4.738 C -0.437 -4.732 -0.363 -4.658 -0.37 -4.548 C -0.373 -4.486 -0.389 -4.45 -0.4 -4.426 L -0.45 -4.439 C -0.437 -4.465 -0.428 -4.493 -0.425 -4.541 C -0.421 -4.606 -0.457 -4.667 -0.552 -4.674 M -0.348 -5.056 L -0.58 -5.068 L -0.614 -5.064 C -0.653 -5.056 -0.686 -5.022 -0.688 -4.979 C -0.693 -4.917 -0.643 -4.891 -0.58 -4.889 L -0.358 -4.878 L -0.362 -4.808 L -0.592 -4.823 C -0.724 -4.83 -0.752 -4.91 -0.749 -4.96 C -0.748 -4.983 -0.738 -5.008 -0.724 -5.025 L -0.673 -5.07 L -0.672 -5.073 L -0.912 -5.086 L -0.908 -5.153 L -0.344 -5.123 Z M -0.394 -5.207 L -0.387 -5.244 C -0.384 -5.283 -0.41 -5.297 -0.458 -5.299 L -0.666 -5.312 L -0.672 -5.214 L -0.725 -5.219 L -0.72 -5.313 L -0.829 -5.32 L -0.808 -5.383 L -0.715 -5.379 L -0.712 -5.436 L -0.659 -5.434 L -0.662 -5.377 L -0.451 -5.366 C -0.406 -5.361 -0.372 -5.353 -0.353 -5.333 C -0.335 -5.316 -0.325 -5.29 -0.328 -5.26 C -0.329 -5.233 -0.335 -5.214 -0.341 -5.201 Z M -1.581 -0.44 L -1.812 -0.453 L -1.847 -0.449 C -1.886 -0.438 -1.919 -0.408 -1.921 -0.364 C -1.926 -0.302 -1.874 -0.275 -1.812 -0.273 L -1.591 -0.26 L -1.596 -0.193 L -1.824 -0.206 C -1.957 -0.215 -1.984 -0.295 -1.98 -0.343 C -1.979 -0.369 -1.97 -0.391 -1.957 -0.41 L -1.906 -0.456 L -1.906 -0.458 L -2.146 -0.471 L -2.142 -0.538 L -1.576 -0.506 Z M -1.639 -0.601 C -1.628 -0.618 -1.616 -0.643 -1.614 -0.682 C -1.609 -0.753 -1.662 -0.812 -1.751 -0.816 C -1.831 -0.82 -1.898 -0.777 -1.903 -0.694 C -1.906 -0.657 -1.898 -0.632 -1.89 -0.616 L -1.945 -0.604 C -1.952 -0.623 -1.962 -0.657 -1.96 -0.696 C -1.951 -0.816 -1.861 -0.89 -1.743 -0.883 C -1.626 -0.877 -1.551 -0.801 -1.558 -0.69 C -1.561 -0.64 -1.575 -0.604 -1.586 -0.586 Z M -1.935 -0.979 L -1.931 -1.046 L -1.694 -1.033 L -1.657 -1.037 C -1.627 -1.046 -1.592 -1.076 -1.589 -1.122 C -1.586 -1.183 -1.634 -1.204 -1.707 -1.211 L -1.92 -1.222 L -1.916 -1.287 L -1.691 -1.276 C -1.556 -1.268 -1.527 -1.198 -1.53 -1.14 C -1.533 -1.074 -1.577 -1.037 -1.608 -1.022 L -1.608 -1.02 L -1.547 -1.014 L -1.55 -0.955 C -1.58 -0.959 -1.615 -0.961 -1.654 -0.964 Z M -1.701 -1.651 C -1.774 -1.654 -1.852 -1.623 -1.856 -1.545 C -1.861 -1.467 -1.781 -1.433 -1.715 -1.428 C -1.628 -1.424 -1.562 -1.467 -1.56 -1.53 C -1.556 -1.596 -1.616 -1.647 -1.701 -1.651 M -1.722 -1.358 C -1.84 -1.365 -1.917 -1.441 -1.91 -1.548 C -1.903 -1.649 -1.823 -1.726 -1.694 -1.717 C -1.572 -1.713 -1.501 -1.63 -1.507 -1.53 C -1.512 -1.443 -1.579 -1.353 -1.722 -1.358 M -1.971 -1.932 L -1.493 -1.905 L -1.498 -1.838 L -1.975 -1.864 L -1.984 -1.708 L -2.043 -1.71 L -2.02 -2.09 L -1.962 -2.086 Z M -1.521 -2.258 C -1.52 -2.294 -1.547 -2.31 -1.595 -2.312 L -1.802 -2.322 L -1.807 -2.227 L -1.86 -2.231 L -1.854 -2.327 L -1.966 -2.331 L -1.942 -2.396 L -1.851 -2.39 L -1.848 -2.448 L -1.794 -2.444 L -1.797 -2.388 L -1.587 -2.377 C -1.541 -2.375 -1.509 -2.366 -1.488 -2.344 C -1.471 -2.329 -1.462 -2.303 -1.464 -2.272 C -1.465 -2.246 -1.471 -2.227 -1.477 -2.214 L -1.529 -2.221 Z M -1.635 -2.771 C -1.707 -2.774 -1.785 -2.746 -1.79 -2.665 C -1.795 -2.587 -1.714 -2.553 -1.648 -2.548 C -1.562 -2.544 -1.497 -2.587 -1.493 -2.652 C -1.489 -2.718 -1.55 -2.768 -1.635 -2.771 M -1.655 -2.48 C -1.773 -2.487 -1.849 -2.563 -1.843 -2.668 C -1.837 -2.77 -1.756 -2.846 -1.628 -2.839 C -1.507 -2.833 -1.434 -2.752 -1.439 -2.652 C -1.445 -2.563 -1.513 -2.473 -1.655 -2.48 M -1.414 -3.236 L -1.644 -3.249 C -1.733 -3.254 -1.797 -3.258 -1.863 -3.267 L -1.864 -3.265 C -1.809 -3.236 -1.75 -3.197 -1.692 -3.158 L -1.43 -2.982 L -1.434 -2.915 L -1.97 -2.943 L -1.966 -3.006 L -1.742 -2.995 C -1.657 -2.989 -1.594 -2.984 -1.521 -2.974 L -1.521 -2.976 C -1.574 -3.004 -1.628 -3.037 -1.689 -3.078 L -1.95 -3.256 L -1.946 -3.327 L -1.411 -3.299 Z M -1.57 -3.849 C -1.644 -3.851 -1.722 -3.822 -1.726 -3.744 C -1.731 -3.664 -1.649 -3.629 -1.585 -3.625 C -1.498 -3.62 -1.433 -3.664 -1.43 -3.729 C -1.425 -3.794 -1.486 -3.844 -1.57 -3.849 M -1.591 -3.558 C -1.709 -3.564 -1.784 -3.64 -1.779 -3.744 C -1.772 -3.847 -1.692 -3.922 -1.564 -3.916 C -1.442 -3.909 -1.37 -3.829 -1.376 -3.729 C -1.382 -3.64 -1.449 -3.549 -1.591 -3.558 M -1.404 -4.321 L -1.828 -4.344 C -1.832 -4.328 -1.837 -4.302 -1.84 -4.268 C -1.849 -4.129 -1.771 -4.055 -1.645 -4.051 C -1.5 -4.042 -1.413 -4.113 -1.404 -4.255 C -1.403 -4.28 -1.402 -4.305 -1.404 -4.321 M -1.439 -4.044 C -1.491 -3.998 -1.564 -3.977 -1.652 -3.98 C -1.737 -3.985 -1.8 -4.016 -1.841 -4.063 C -1.881 -4.109 -1.9 -4.179 -1.896 -4.274 C -1.892 -4.326 -1.884 -4.374 -1.874 -4.413 L -1.347 -4.385 C -1.346 -4.353 -1.346 -4.313 -1.348 -4.266 C -1.354 -4.165 -1.386 -4.087 -1.439 -4.044 M -10.721 -3.143 L -10.795 -3.149 L -10.792 -3.208 C -10.757 -3.204 -10.718 -3.201 -10.673 -3.199 L -10.408 -3.185 L -10.411 -3.119 L -10.617 -3.13 L -10.648 -3.128 C -10.702 -3.121 -10.742 -3.091 -10.744 -3.043 L -10.743 -3.021 L -10.81 -3.023 L -10.812 -3.043 C -10.809 -3.089 -10.773 -3.126 -10.721 -3.141 Z M -10.736 -3.442 C -10.741 -3.369 -10.674 -3.347 -10.629 -3.343 L -10.617 -3.54 C -10.666 -3.536 -10.732 -3.51 -10.736 -3.442 M -10.467 -3.304 C -10.453 -3.327 -10.443 -3.355 -10.44 -3.403 C -10.438 -3.471 -10.472 -3.531 -10.567 -3.538 L -10.582 -3.279 L -10.615 -3.277 C -10.686 -3.282 -10.794 -3.321 -10.787 -3.44 C -10.78 -3.547 -10.686 -3.607 -10.569 -3.601 C -10.453 -3.595 -10.379 -3.522 -10.386 -3.41 C -10.39 -3.352 -10.404 -3.313 -10.416 -3.288 Z M -10.491 -3.936 L -10.52 -3.939 L -10.586 -3.941 L -10.615 -3.939 C -10.668 -3.929 -10.705 -3.89 -10.707 -3.844 C -10.712 -3.772 -10.648 -3.731 -10.57 -3.725 C -10.482 -3.721 -10.42 -3.76 -10.415 -3.831 C -10.413 -3.879 -10.443 -3.92 -10.491 -3.936 M -10.361 -3.816 C -10.366 -3.729 -10.439 -3.653 -10.578 -3.66 C -10.695 -3.666 -10.77 -3.738 -10.764 -3.827 C -10.761 -3.886 -10.731 -3.927 -10.683 -3.953 L -10.747 -3.959 L -10.744 -4.02 C -10.707 -4.018 -10.667 -4.014 -10.618 -4.012 L -10.201 -3.987 L -10.206 -3.922 L -10.415 -3.934 L -10.415 -3.931 C -10.379 -3.907 -10.359 -3.863 -10.361 -3.816 M -10.386 -4.263 C -10.384 -4.298 -10.404 -4.328 -10.45 -4.33 C -10.523 -4.335 -10.543 -4.252 -10.546 -4.179 L -10.479 -4.177 L -10.457 -4.179 C -10.423 -4.187 -10.39 -4.216 -10.386 -4.263 M -10.35 -4.159 L -10.353 -4.099 C -10.38 -4.104 -10.412 -4.106 -10.444 -4.109 L -10.589 -4.118 C -10.666 -4.122 -10.745 -4.152 -10.739 -4.266 C -10.735 -4.311 -10.72 -4.354 -10.697 -4.383 L -10.652 -4.365 C -10.671 -4.341 -10.685 -4.307 -10.687 -4.271 C -10.691 -4.196 -10.634 -4.185 -10.602 -4.185 L -10.595 -4.183 C -10.586 -4.326 -10.53 -4.402 -10.438 -4.397 C -10.382 -4.394 -10.33 -4.353 -10.334 -4.278 C -10.337 -4.227 -10.366 -4.187 -10.396 -4.17 L -10.396 -4.168 Z M -10.472 -4.736 L -10.539 -4.74 L -10.568 -4.736 C -10.62 -4.728 -10.658 -4.687 -10.661 -4.641 C -10.665 -4.569 -10.6 -4.528 -10.523 -4.523 C -10.436 -4.52 -10.372 -4.557 -10.367 -4.628 C -10.365 -4.676 -10.396 -4.717 -10.444 -4.732 Z M -10.367 -4.729 C -10.331 -4.706 -10.312 -4.66 -10.313 -4.612 C -10.318 -4.525 -10.393 -4.45 -10.53 -4.459 C -10.647 -4.463 -10.723 -4.534 -10.717 -4.623 C -10.714 -4.685 -10.683 -4.726 -10.635 -4.749 L -10.635 -4.752 L -10.7 -4.758 L -10.696 -4.819 C -10.661 -4.814 -10.62 -4.811 -10.571 -4.808 L -10.155 -4.786 L -10.158 -4.719 L -10.367 -4.732 Z M -10.688 -5.042 L -10.691 -5.062 C -10.688 -5.107 -10.653 -5.145 -10.6 -5.16 L -10.6 -5.162 L -10.676 -5.168 L -10.673 -5.227 C -10.637 -5.223 -10.598 -5.219 -10.552 -5.216 L -10.288 -5.203 L -10.292 -5.138 L -10.497 -5.148 L -10.529 -5.146 C -10.582 -5.141 -10.623 -5.109 -10.625 -5.062 L -10.624 -5.04 Z M -10.617 -5.461 C -10.621 -5.388 -10.553 -5.363 -10.509 -5.361 L -10.497 -5.557 C -10.546 -5.555 -10.613 -5.528 -10.617 -5.461 M -10.447 -5.555 L -10.462 -5.299 L -10.494 -5.299 C -10.566 -5.301 -10.675 -5.34 -10.667 -5.459 C -10.661 -5.565 -10.566 -5.626 -10.449 -5.62 C -10.334 -5.613 -10.259 -5.542 -10.266 -5.429 C -10.269 -5.37 -10.285 -5.331 -10.297 -5.308 L -10.347 -5.322 C -10.334 -5.347 -10.323 -5.375 -10.32 -5.422 C -10.316 -5.489 -10.353 -5.548 -10.447 -5.555 M -10.274 -5.789 C -10.256 -5.771 -10.247 -5.748 -10.249 -5.716 C -10.25 -5.689 -10.256 -5.67 -10.262 -5.657 L -10.314 -5.663 L -10.307 -5.702 C -10.305 -5.739 -10.332 -5.755 -10.38 -5.757 L -10.587 -5.768 L -10.592 -5.672 L -10.646 -5.674 L -10.64 -5.77 L -10.751 -5.776 L -10.728 -5.841 L -10.636 -5.835 L -10.633 -5.892 L -10.579 -5.889 L -10.582 -5.833 L -10.373 -5.821 C -10.327 -5.817 -10.294 -5.809 -10.274 -5.789 M -10.243 -5.943 L -10.809 -5.972 L -10.805 -6.039 L -10.239 -6.009 Z M -10.602 -6.421 L -10.599 -6.471 L -10.546 -6.469 L -10.549 -6.417 L -10.217 -6.399 L -10.221 -6.334 L -10.552 -6.352 L -10.561 -6.204 L -10.229 -6.187 L -10.233 -6.119 L -10.617 -6.141 L -10.605 -6.354 L -10.624 -6.354 C -10.686 -6.358 -10.739 -6.341 -10.743 -6.269 C -10.745 -6.236 -10.736 -6.208 -10.726 -6.19 L -10.78 -6.176 C -10.793 -6.195 -10.801 -6.236 -10.8 -6.269 C -10.793 -6.373 -10.725 -6.428 -10.621 -6.421 Z M -10.536 -6.824 C -10.54 -6.751 -10.473 -6.727 -10.429 -6.725 L -10.415 -6.922 C -10.465 -6.918 -10.531 -6.892 -10.536 -6.824 M -10.365 -6.92 L -10.382 -6.662 L -10.413 -6.66 C -10.484 -6.664 -10.594 -6.703 -10.586 -6.822 C -10.579 -6.929 -10.484 -6.989 -10.367 -6.983 C -10.253 -6.977 -10.178 -6.905 -10.185 -6.792 C -10.188 -6.733 -10.204 -6.694 -10.216 -6.671 L -10.266 -6.686 C -10.253 -6.71 -10.243 -6.738 -10.24 -6.785 C -10.236 -6.853 -10.271 -6.911 -10.365 -6.92 M -10.162 -7.302 L -10.395 -7.313 L -10.43 -7.311 C -10.469 -7.3 -10.501 -7.268 -10.503 -7.224 C -10.508 -7.163 -10.457 -7.138 -10.395 -7.133 L -10.174 -7.122 L -10.178 -7.055 L -10.406 -7.067 C -10.539 -7.074 -10.566 -7.157 -10.564 -7.204 C -10.563 -7.229 -10.552 -7.252 -10.539 -7.271 L -10.487 -7.317 L -10.728 -7.33 L -10.724 -7.397 L -10.159 -7.367 Z M -10.208 -7.454 L -10.2 -7.491 C -10.198 -7.528 -10.226 -7.543 -10.273 -7.545 L -10.48 -7.557 L -10.486 -7.461 L -10.54 -7.465 L -10.532 -7.561 L -10.645 -7.564 L -10.621 -7.63 L -10.529 -7.623 L -10.526 -7.68 L -10.473 -7.678 L -10.477 -7.621 L -10.267 -7.61 C -10.221 -7.608 -10.188 -7.6 -10.168 -7.578 C -10.149 -7.562 -10.141 -7.537 -10.143 -7.506 C -10.145 -7.48 -10.149 -7.461 -10.155 -7.445 Z M -11.726 -2.349 L -11.802 -2.355 L -11.798 -2.414 C -11.763 -2.409 -11.724 -2.405 -11.678 -2.402 L -11.413 -2.39 L -11.416 -2.322 L -11.622 -2.333 L -11.655 -2.333 C -11.708 -2.327 -11.748 -2.297 -11.75 -2.249 L -11.749 -2.225 L -11.815 -2.229 L -11.816 -2.249 C -11.813 -2.292 -11.778 -2.331 -11.726 -2.347 Z M -11.582 -2.774 C -11.656 -2.78 -11.734 -2.75 -11.738 -2.67 C -11.744 -2.59 -11.662 -2.557 -11.598 -2.553 C -11.511 -2.546 -11.444 -2.592 -11.441 -2.654 C -11.437 -2.72 -11.497 -2.77 -11.582 -2.774 M -11.604 -2.483 C -11.721 -2.489 -11.797 -2.565 -11.792 -2.672 C -11.785 -2.771 -11.705 -2.85 -11.576 -2.841 C -11.455 -2.837 -11.383 -2.755 -11.388 -2.657 C -11.394 -2.567 -11.462 -2.477 -11.604 -2.483 M -11.708 -3.226 C -11.713 -3.149 -11.646 -3.128 -11.601 -3.126 L -11.588 -3.321 C -11.638 -3.318 -11.704 -3.293 -11.708 -3.226 M -11.438 -3.087 C -11.425 -3.11 -11.415 -3.139 -11.412 -3.187 C -11.408 -3.252 -11.443 -3.313 -11.538 -3.318 L -11.554 -3.061 L -11.586 -3.061 C -11.657 -3.064 -11.766 -3.102 -11.758 -3.224 C -11.753 -3.33 -11.657 -3.389 -11.54 -3.384 C -11.425 -3.378 -11.35 -3.304 -11.356 -3.193 C -11.36 -3.135 -11.376 -3.096 -11.388 -3.071 Z M -11.418 -3.437 C -11.408 -3.453 -11.396 -3.479 -11.394 -3.517 C -11.389 -3.588 -11.441 -3.646 -11.53 -3.651 C -11.61 -3.655 -11.679 -3.614 -11.685 -3.529 C -11.687 -3.492 -11.679 -3.467 -11.669 -3.451 L -11.726 -3.438 C -11.733 -3.458 -11.742 -3.492 -11.739 -3.531 C -11.732 -3.651 -11.642 -3.725 -11.522 -3.719 C -11.405 -3.712 -11.33 -3.636 -11.337 -3.525 C -11.34 -3.476 -11.355 -3.438 -11.366 -3.421 Z M -11.363 -3.948 C -11.36 -3.983 -11.382 -4.014 -11.427 -4.016 C -11.501 -4.02 -11.521 -3.938 -11.522 -3.863 L -11.455 -3.861 L -11.434 -3.863 C -11.399 -3.872 -11.366 -3.9 -11.363 -3.948 M -11.566 -3.803 C -11.643 -3.808 -11.723 -3.838 -11.716 -3.95 C -11.713 -3.996 -11.696 -4.039 -11.674 -4.07 L -11.629 -4.051 C -11.647 -4.026 -11.661 -3.992 -11.664 -3.957 C -11.668 -3.883 -11.61 -3.87 -11.579 -3.868 L -11.571 -3.868 C -11.563 -4.012 -11.507 -4.087 -11.414 -4.083 C -11.358 -4.079 -11.307 -4.037 -11.311 -3.964 C -11.314 -3.911 -11.344 -3.872 -11.374 -3.855 L -11.374 -3.853 L -11.326 -3.844 L -11.329 -3.783 C -11.356 -3.79 -11.389 -3.794 -11.422 -3.794 Z M -11.687 -4.282 L -11.685 -4.335 L -11.631 -4.333 L -11.635 -4.28 L -11.301 -4.263 L -11.306 -4.196 L -11.638 -4.216 L -11.643 -4.126 L -11.696 -4.129 L -11.69 -4.218 L -11.711 -4.218 C -11.77 -4.222 -11.823 -4.209 -11.827 -4.152 L -11.821 -4.109 L -11.875 -4.103 L -11.883 -4.161 C -11.881 -4.191 -11.869 -4.227 -11.842 -4.248 C -11.808 -4.278 -11.759 -4.287 -11.705 -4.285 Z M -11.527 -4.484 C -11.58 -4.479 -11.62 -4.447 -11.622 -4.397 L -11.621 -4.376 L -11.688 -4.38 L -11.688 -4.397 C -11.686 -4.443 -11.65 -4.482 -11.598 -4.498 L -11.598 -4.5 L -11.674 -4.506 L -11.67 -4.564 C -11.635 -4.561 -11.596 -4.557 -11.55 -4.554 L -11.285 -4.541 L -11.289 -4.474 L -11.494 -4.484 Z M -11.664 -4.671 L -11.659 -4.738 L -11.424 -4.726 L -11.387 -4.729 C -11.355 -4.74 -11.321 -4.771 -11.318 -4.814 C -11.314 -4.875 -11.362 -4.899 -11.436 -4.903 L -11.649 -4.914 L -11.646 -4.981 L -11.421 -4.969 C -11.285 -4.962 -11.256 -4.891 -11.259 -4.834 C -11.262 -4.769 -11.306 -4.732 -11.338 -4.715 L -11.275 -4.706 L -11.279 -4.647 C -11.309 -4.651 -11.344 -4.654 -11.384 -4.656 Z M -11.362 -5.049 C -11.421 -5.054 -11.451 -5.088 -11.473 -5.153 C -11.489 -5.201 -11.503 -5.225 -11.534 -5.227 C -11.563 -5.227 -11.588 -5.205 -11.59 -5.166 C -11.592 -5.134 -11.581 -5.105 -11.572 -5.09 L -11.625 -5.077 C -11.636 -5.099 -11.646 -5.132 -11.643 -5.168 C -11.638 -5.246 -11.584 -5.292 -11.522 -5.29 C -11.476 -5.285 -11.44 -5.253 -11.419 -5.186 C -11.402 -5.136 -11.386 -5.116 -11.352 -5.114 C -11.32 -5.112 -11.293 -5.134 -11.291 -5.182 C -11.289 -5.214 -11.301 -5.251 -11.313 -5.272 L -11.259 -5.285 C -11.244 -5.258 -11.237 -5.223 -11.239 -5.182 C -11.244 -5.095 -11.295 -5.047 -11.362 -5.049 M -11.563 -5.679 C -11.567 -5.603 -11.499 -5.581 -11.455 -5.579 L -11.442 -5.774 C -11.491 -5.771 -11.559 -5.746 -11.563 -5.679 M -11.393 -5.771 L -11.407 -5.514 L -11.44 -5.514 C -11.512 -5.518 -11.62 -5.555 -11.612 -5.677 C -11.607 -5.782 -11.512 -5.841 -11.395 -5.837 C -11.279 -5.83 -11.204 -5.759 -11.211 -5.646 C -11.214 -5.587 -11.23 -5.548 -11.242 -5.524 L -11.292 -5.539 C -11.279 -5.563 -11.269 -5.592 -11.267 -5.64 C -11.262 -5.704 -11.298 -5.766 -11.393 -5.771 M -11.457 -5.995 L -11.428 -5.991 L -11.362 -5.986 L -11.33 -5.986 C -11.277 -5.998 -11.243 -6.037 -11.241 -6.082 C -11.237 -6.154 -11.299 -6.193 -11.377 -6.197 C -11.463 -6.201 -11.528 -6.165 -11.532 -6.096 C -11.535 -6.045 -11.502 -6.006 -11.457 -5.995 M -11.534 -5.998 C -11.563 -6.015 -11.591 -6.054 -11.587 -6.11 C -11.581 -6.199 -11.499 -6.273 -11.37 -6.265 C -11.253 -6.258 -11.179 -6.187 -11.184 -6.098 C -11.188 -6.037 -11.223 -5.993 -11.268 -5.976 L -11.268 -5.974 L -11.2 -5.967 L -11.203 -5.908 C -11.23 -5.911 -11.27 -5.915 -11.302 -5.915 L -11.768 -5.941 L -11.764 -6.009 L -11.534 -5.995 Z M -11.672 -6.358 C -11.696 -6.358 -11.716 -6.375 -11.713 -6.401 C -11.711 -6.425 -11.691 -6.442 -11.667 -6.44 L -11.627 -6.397 C -11.629 -6.371 -11.648 -6.355 -11.672 -6.358 M -11.56 -6.428 L -11.174 -6.405 L -11.179 -6.339 L -11.563 -6.36 Z M -11.276 -6.497 C -11.335 -6.499 -11.365 -6.534 -11.387 -6.599 C -11.403 -6.648 -11.416 -6.671 -11.447 -6.673 C -11.477 -6.675 -11.502 -6.653 -11.504 -6.614 C -11.506 -6.579 -11.495 -6.554 -11.486 -6.538 L -11.539 -6.525 C -11.55 -6.545 -11.559 -6.579 -11.557 -6.616 C -11.552 -6.694 -11.499 -6.74 -11.437 -6.735 C -11.39 -6.733 -11.354 -6.701 -11.334 -6.634 C -11.316 -6.584 -11.3 -6.562 -11.267 -6.56 C -11.233 -6.56 -11.208 -6.581 -11.204 -6.629 C -11.203 -6.662 -11.215 -6.699 -11.228 -6.719 L -11.173 -6.731 C -11.159 -6.705 -11.151 -6.668 -11.153 -6.627 C -11.159 -6.54 -11.209 -6.492 -11.276 -6.497 M -11.535 -6.966 C -11.532 -7.026 -11.494 -7.065 -11.456 -7.083 L -11.456 -7.085 L -11.521 -7.092 L -11.517 -7.15 C -11.484 -7.146 -11.452 -7.144 -11.412 -7.142 L -11.131 -7.126 L -11.135 -7.06 L -11.366 -7.072 L -11.399 -7.07 C -11.438 -7.062 -11.475 -7.028 -11.477 -6.983 C -11.48 -6.92 -11.431 -6.896 -11.367 -6.892 L -11.146 -6.881 L -11.15 -6.813 L -11.38 -6.827 C -11.512 -6.833 -11.539 -6.914 -11.535 -6.966 M -11.572 -7.296 C -11.574 -7.27 -11.596 -7.255 -11.618 -7.257 C -11.643 -7.259 -11.661 -7.274 -11.659 -7.3 C -11.658 -7.324 -11.639 -7.342 -11.613 -7.339 Z M -11.506 -7.326 L -11.121 -7.305 L -11.125 -7.237 L -11.51 -7.259 Z M -11.441 -7.724 C -11.445 -7.649 -11.377 -7.626 -11.332 -7.623 L -11.32 -7.821 C -11.369 -7.816 -11.437 -7.791 -11.441 -7.724 M -11.271 -7.819 L -11.286 -7.561 L -11.318 -7.561 C -11.39 -7.562 -11.499 -7.602 -11.491 -7.721 C -11.485 -7.827 -11.39 -7.889 -11.272 -7.882 C -11.158 -7.875 -11.083 -7.804 -11.09 -7.69 C -11.093 -7.632 -11.109 -7.593 -11.121 -7.569 L -11.171 -7.584 C -11.158 -7.608 -11.146 -7.637 -11.144 -7.685 C -11.141 -7.752 -11.176 -7.811 -11.271 -7.819 M -11.067 -8.201 L -11.3 -8.212 L -11.334 -8.21 C -11.373 -8.199 -11.406 -8.166 -11.408 -8.123 C -11.413 -8.063 -11.362 -8.036 -11.3 -8.031 L -11.078 -8.021 L -11.083 -7.953 L -11.312 -7.967 C -11.444 -7.973 -11.471 -8.056 -11.468 -8.104 C -11.467 -8.127 -11.457 -8.151 -11.444 -8.171 L -11.393 -8.216 L -11.632 -8.231 L -11.629 -8.297 L -11.063 -8.266 Z M -11.113 -8.353 L -11.105 -8.39 C -11.104 -8.427 -11.13 -8.441 -11.178 -8.444 L -11.386 -8.455 L -11.392 -8.359 L -11.444 -8.363 L -11.438 -8.459 L -11.549 -8.464 L -11.527 -8.528 L -11.435 -8.522 L -11.432 -8.581 L -11.378 -8.576 L -11.382 -8.521 L -11.171 -8.509 C -11.125 -8.507 -11.093 -8.498 -11.072 -8.477 C -11.055 -8.461 -11.046 -8.436 -11.048 -8.405 C -11.049 -8.379 -11.055 -8.359 -11.061 -8.344 Z M -12.3 -3.584 L -12.532 -3.597 L -12.566 -3.595 C -12.605 -3.584 -12.639 -3.551 -12.641 -3.508 C -12.645 -3.447 -12.594 -3.421 -12.532 -3.417 L -12.311 -3.405 L -12.314 -3.339 L -12.544 -3.352 C -12.676 -3.358 -12.704 -3.438 -12.701 -3.488 C -12.7 -3.512 -12.689 -3.536 -12.676 -3.556 L -12.624 -3.601 L -12.865 -3.614 L -12.86 -3.682 L -12.297 -3.651 Z M -12.358 -3.744 C -12.349 -3.762 -12.336 -3.788 -12.333 -3.827 C -12.329 -3.898 -12.381 -3.955 -12.47 -3.959 C -12.551 -3.966 -12.617 -3.922 -12.624 -3.84 C -12.626 -3.803 -12.617 -3.777 -12.609 -3.76 L -12.664 -3.749 C -12.673 -3.766 -12.682 -3.803 -12.68 -3.842 C -12.672 -3.961 -12.582 -4.035 -12.463 -4.028 C -12.346 -4.022 -12.271 -3.944 -12.277 -3.836 C -12.28 -3.785 -12.294 -3.746 -12.307 -3.729 Z M -12.654 -4.124 L -12.651 -4.189 L -12.415 -4.177 L -12.378 -4.181 C -12.347 -4.191 -12.312 -4.222 -12.309 -4.266 C -12.305 -4.326 -12.353 -4.35 -12.427 -4.354 L -12.64 -4.365 L -12.636 -4.433 L -12.41 -4.42 C -12.275 -4.413 -12.246 -4.341 -12.25 -4.285 C -12.253 -4.22 -12.297 -4.183 -12.329 -4.168 L -12.329 -4.165 L -12.266 -4.157 L -12.27 -4.099 C -12.3 -4.103 -12.334 -4.104 -12.375 -4.106 Z M -12.42 -4.795 C -12.494 -4.799 -12.572 -4.769 -12.576 -4.69 C -12.582 -4.61 -12.5 -4.576 -12.436 -4.571 C -12.349 -4.567 -12.282 -4.612 -12.279 -4.676 C -12.274 -4.74 -12.337 -4.791 -12.42 -4.795 M -12.441 -4.504 C -12.559 -4.511 -12.636 -4.587 -12.63 -4.693 C -12.624 -4.793 -12.543 -4.869 -12.414 -4.862 C -12.293 -4.855 -12.221 -4.775 -12.226 -4.676 C -12.231 -4.587 -12.3 -4.495 -12.441 -4.504 M -12.69 -5.075 L -12.213 -5.049 L -12.217 -4.983 L -12.693 -5.01 L -12.703 -4.852 L -12.763 -4.855 L -12.739 -5.233 L -12.682 -5.231 Z M -12.241 -5.402 C -12.239 -5.439 -12.266 -5.455 -12.313 -5.457 L -12.521 -5.468 L -12.526 -5.372 L -12.581 -5.375 L -12.574 -5.47 L -12.685 -5.477 L -12.662 -5.542 L -12.57 -5.535 L -12.566 -5.594 L -12.514 -5.59 L -12.517 -5.533 L -12.308 -5.522 C -12.262 -5.518 -12.228 -5.512 -12.208 -5.489 C -12.19 -5.473 -12.182 -5.448 -12.184 -5.416 C -12.185 -5.39 -12.19 -5.37 -12.195 -5.359 L -12.249 -5.363 Z M -12.354 -5.915 C -12.428 -5.92 -12.505 -5.889 -12.509 -5.811 C -12.516 -5.73 -12.435 -5.698 -12.368 -5.693 C -12.282 -5.687 -12.216 -5.732 -12.213 -5.796 C -12.208 -5.861 -12.27 -5.911 -12.354 -5.915 M -12.376 -5.624 C -12.493 -5.631 -12.568 -5.707 -12.563 -5.813 C -12.556 -5.913 -12.477 -5.991 -12.348 -5.982 C -12.226 -5.979 -12.154 -5.896 -12.159 -5.798 C -12.165 -5.709 -12.232 -5.618 -12.376 -5.624 M -12.134 -6.382 L -12.362 -6.393 C -12.453 -6.399 -12.517 -6.403 -12.584 -6.412 L -12.585 -6.41 C -12.528 -6.38 -12.469 -6.343 -12.411 -6.304 L -12.148 -6.126 L -12.154 -6.061 L -12.689 -6.089 L -12.685 -6.151 L -12.461 -6.139 C -12.377 -6.135 -12.313 -6.13 -12.241 -6.119 L -12.24 -6.121 C -12.293 -6.147 -12.349 -6.182 -12.409 -6.224 L -12.671 -6.399 L -12.666 -6.473 L -12.13 -6.442 Z M -12.29 -6.992 C -12.363 -6.996 -12.44 -6.968 -12.445 -6.888 C -12.451 -6.808 -12.37 -6.774 -12.304 -6.771 C -12.218 -6.764 -12.152 -6.81 -12.148 -6.872 C -12.145 -6.937 -12.205 -6.987 -12.29 -6.992 M -12.312 -6.701 C -12.429 -6.707 -12.505 -6.783 -12.499 -6.89 C -12.493 -6.989 -12.412 -7.067 -12.283 -7.06 C -12.161 -7.055 -12.09 -6.973 -12.096 -6.875 C -12.101 -6.785 -12.169 -6.694 -12.312 -6.701 M -12.125 -7.467 L -12.548 -7.489 C -12.553 -7.472 -12.557 -7.447 -12.559 -7.413 C -12.567 -7.271 -12.49 -7.2 -12.365 -7.193 C -12.221 -7.187 -12.134 -7.259 -12.125 -7.4 C -12.124 -7.426 -12.122 -7.45 -12.125 -7.467 M -12.158 -7.187 C -12.211 -7.142 -12.283 -7.12 -12.371 -7.126 C -12.458 -7.131 -12.519 -7.159 -12.561 -7.209 C -12.602 -7.255 -12.62 -7.324 -12.614 -7.417 C -12.611 -7.47 -12.604 -7.518 -12.595 -7.559 L -12.066 -7.528 C -12.065 -7.495 -12.065 -7.456 -12.067 -7.408 C -12.072 -7.311 -12.105 -7.232 -12.158 -7.187 M -20.615 -6.812 L -20.69 -6.818 L -20.687 -6.877 C -20.651 -6.872 -20.612 -6.87 -20.567 -6.868 L -20.304 -6.853 L -20.307 -6.788 L -20.512 -6.799 L -20.544 -6.797 C -20.598 -6.79 -20.638 -6.76 -20.64 -6.712 L -20.639 -6.69 L -20.704 -6.692 L -20.706 -6.712 C -20.703 -6.758 -20.669 -6.794 -20.615 -6.81 Z M -20.632 -7.111 C -20.637 -7.037 -20.569 -7.016 -20.524 -7.014 L -20.512 -7.209 C -20.561 -7.204 -20.628 -7.179 -20.632 -7.111 M -20.362 -6.973 C -20.349 -6.996 -20.339 -7.024 -20.336 -7.072 C -20.331 -7.14 -20.367 -7.2 -20.462 -7.207 L -20.479 -6.948 L -20.51 -6.946 C -20.581 -6.95 -20.689 -6.989 -20.682 -7.109 C -20.676 -7.216 -20.581 -7.276 -20.464 -7.27 C -20.349 -7.263 -20.274 -7.191 -20.28 -7.079 C -20.284 -7.021 -20.3 -6.98 -20.312 -6.957 Z M -20.387 -7.604 L -20.415 -7.608 L -20.481 -7.61 L -20.511 -7.608 C -20.563 -7.598 -20.601 -7.559 -20.603 -7.513 C -20.607 -7.441 -20.543 -7.4 -20.466 -7.394 C -20.378 -7.389 -20.314 -7.428 -20.31 -7.5 C -20.308 -7.548 -20.339 -7.589 -20.387 -7.604 M -20.256 -7.484 C -20.261 -7.397 -20.335 -7.321 -20.474 -7.328 C -20.59 -7.335 -20.665 -7.406 -20.659 -7.495 C -20.656 -7.554 -20.626 -7.596 -20.577 -7.621 L -20.642 -7.63 L -20.639 -7.688 C -20.603 -7.687 -20.562 -7.682 -20.514 -7.68 L -20.097 -7.656 L -20.102 -7.591 L -20.31 -7.602 L -20.31 -7.6 C -20.274 -7.576 -20.253 -7.532 -20.256 -7.484 M -20.281 -7.932 C -20.279 -7.967 -20.299 -7.997 -20.345 -7.999 C -20.42 -8.003 -20.437 -7.921 -20.44 -7.847 L -20.374 -7.845 L -20.352 -7.847 C -20.318 -7.855 -20.285 -7.884 -20.281 -7.932 M -20.245 -7.827 L -20.248 -7.767 C -20.275 -7.773 -20.307 -7.775 -20.34 -7.777 L -20.483 -7.784 C -20.562 -7.791 -20.64 -7.821 -20.633 -7.934 C -20.63 -7.979 -20.615 -8.022 -20.591 -8.051 L -20.547 -8.034 C -20.566 -8.01 -20.579 -7.976 -20.581 -7.94 C -20.586 -7.864 -20.528 -7.854 -20.496 -7.854 L -20.489 -7.852 C -20.481 -7.995 -20.426 -8.07 -20.333 -8.066 C -20.277 -8.063 -20.226 -8.021 -20.229 -7.947 C -20.232 -7.895 -20.261 -7.855 -20.292 -7.839 L -20.292 -7.836 Z M -20.367 -8.405 L -20.434 -8.409 L -20.463 -8.405 C -20.515 -8.396 -20.553 -8.355 -20.555 -8.31 C -20.56 -8.238 -20.495 -8.196 -20.418 -8.192 C -20.33 -8.188 -20.268 -8.225 -20.263 -8.297 C -20.261 -8.344 -20.291 -8.386 -20.339 -8.4 Z M -20.263 -8.398 C -20.227 -8.375 -20.206 -8.329 -20.209 -8.281 C -20.214 -8.194 -20.287 -8.118 -20.425 -8.127 C -20.543 -8.132 -20.617 -8.203 -20.611 -8.292 C -20.608 -8.353 -20.577 -8.395 -20.529 -8.418 L -20.529 -8.42 L -20.596 -8.427 L -20.592 -8.487 C -20.555 -8.483 -20.515 -8.479 -20.466 -8.477 L -20.049 -8.455 L -20.053 -8.388 L -20.263 -8.4 Z M -20.584 -8.711 L -20.587 -8.73 C -20.583 -8.776 -20.549 -8.813 -20.495 -8.828 L -20.495 -8.83 L -20.571 -8.837 L -20.567 -8.896 C -20.532 -8.892 -20.493 -8.889 -20.447 -8.885 L -20.183 -8.872 L -20.187 -8.807 L -20.393 -8.817 L -20.424 -8.815 C -20.479 -8.809 -20.518 -8.778 -20.52 -8.73 L -20.519 -8.709 Z M -20.512 -9.13 C -20.516 -9.057 -20.449 -9.032 -20.404 -9.03 L -20.393 -9.226 C -20.441 -9.224 -20.508 -9.197 -20.512 -9.13 M -20.343 -9.224 L -20.357 -8.967 L -20.391 -8.967 C -20.461 -8.97 -20.57 -9.009 -20.562 -9.128 C -20.557 -9.234 -20.461 -9.295 -20.345 -9.288 C -20.229 -9.282 -20.154 -9.21 -20.161 -9.098 C -20.164 -9.039 -20.18 -9 -20.191 -8.976 L -20.242 -8.991 C -20.229 -9.015 -20.219 -9.043 -20.216 -9.091 C -20.212 -9.158 -20.248 -9.217 -20.343 -9.224 M -20.169 -9.458 C -20.151 -9.44 -20.143 -9.417 -20.145 -9.384 C -20.146 -9.36 -20.151 -9.339 -20.156 -9.325 L -20.21 -9.332 L -20.202 -9.371 C -20.2 -9.408 -20.227 -9.423 -20.274 -9.425 L -20.482 -9.437 L -20.488 -9.341 L -20.541 -9.343 L -20.534 -9.438 L -20.646 -9.444 L -20.623 -9.51 L -20.531 -9.503 L -20.528 -9.56 L -20.475 -9.558 L -20.479 -9.501 L -20.268 -9.49 C -20.222 -9.486 -20.189 -9.478 -20.169 -9.458 M -20.139 -9.612 L -20.703 -9.641 L -20.699 -9.707 L -20.135 -9.677 Z M -20.496 -10.09 L -20.493 -10.14 L -20.44 -10.138 L -20.443 -10.085 L -20.111 -10.067 L -20.115 -10.003 L -20.446 -10.021 L -20.456 -9.872 L -20.123 -9.853 L -20.127 -9.788 L -20.513 -9.81 L -20.501 -10.022 L -20.52 -10.022 C -20.58 -10.026 -20.633 -10.009 -20.639 -9.938 C -20.641 -9.905 -20.631 -9.877 -20.62 -9.859 L -20.675 -9.844 C -20.688 -9.863 -20.696 -9.905 -20.695 -9.938 C -20.688 -10.042 -20.619 -10.096 -20.518 -10.09 Z M -20.432 -10.493 C -20.436 -10.42 -20.367 -10.396 -20.323 -10.394 L -20.311 -10.591 C -20.359 -10.587 -20.427 -10.561 -20.432 -10.493 M -20.261 -10.589 L -20.276 -10.33 L -20.309 -10.328 C -20.381 -10.333 -20.489 -10.372 -20.481 -10.491 C -20.476 -10.598 -20.381 -10.658 -20.263 -10.651 C -20.148 -10.646 -20.073 -10.573 -20.08 -10.461 C -20.083 -10.402 -20.1 -10.363 -20.111 -10.339 L -20.161 -10.354 C -20.148 -10.378 -20.137 -10.406 -20.135 -10.454 C -20.131 -10.521 -20.166 -10.58 -20.261 -10.589 M -20.058 -10.971 L -20.29 -10.981 L -20.324 -10.979 C -20.363 -10.969 -20.396 -10.937 -20.398 -10.893 C -20.403 -10.832 -20.353 -10.806 -20.29 -10.802 L -20.068 -10.791 L -20.073 -10.724 L -20.302 -10.736 C -20.435 -10.743 -20.461 -10.825 -20.459 -10.873 C -20.457 -10.897 -20.447 -10.921 -20.435 -10.94 L -20.384 -10.986 L -20.623 -10.999 L -20.619 -11.066 L -20.054 -11.036 Z M -20.104 -11.123 L -20.096 -11.16 C -20.094 -11.196 -20.12 -11.212 -20.168 -11.214 L -20.376 -11.225 L -20.382 -11.129 L -20.435 -11.134 L -20.428 -11.229 L -20.539 -11.233 L -20.518 -11.299 L -20.425 -11.292 L -20.422 -11.349 L -20.368 -11.347 L -20.372 -11.29 L -20.161 -11.279 C -20.115 -11.277 -20.082 -11.269 -20.062 -11.246 C -20.045 -11.231 -20.036 -11.205 -20.038 -11.175 C -20.039 -11.148 -20.045 -11.129 -20.051 -11.114 Z M -21.621 -6.018 L -21.696 -6.023 L -21.692 -6.082 C -21.657 -6.078 -21.619 -6.073 -21.573 -6.071 L -21.309 -6.057 L -21.312 -5.991 L -21.517 -6.002 L -21.549 -6.002 C -21.603 -5.995 -21.643 -5.963 -21.645 -5.915 L -21.644 -5.894 L -21.711 -5.897 L -21.712 -5.915 C -21.708 -5.961 -21.674 -6 -21.621 -6.015 Z M -21.478 -6.442 C -21.551 -6.447 -21.629 -6.419 -21.633 -6.339 C -21.639 -6.258 -21.558 -6.226 -21.492 -6.221 C -21.405 -6.217 -21.34 -6.26 -21.337 -6.323 C -21.332 -6.389 -21.393 -6.438 -21.478 -6.442 M -21.498 -6.151 C -21.616 -6.158 -21.691 -6.234 -21.687 -6.341 C -21.68 -6.44 -21.6 -6.519 -21.471 -6.51 C -21.35 -6.506 -21.278 -6.423 -21.283 -6.325 C -21.289 -6.236 -21.356 -6.146 -21.498 -6.151 M -21.604 -6.895 C -21.607 -6.818 -21.539 -6.797 -21.495 -6.794 L -21.483 -6.989 C -21.532 -6.987 -21.598 -6.961 -21.604 -6.895 M -21.333 -6.755 C -21.319 -6.779 -21.31 -6.808 -21.308 -6.855 C -21.303 -6.92 -21.339 -6.98 -21.434 -6.987 L -21.448 -6.729 L -21.48 -6.729 C -21.552 -6.733 -21.661 -6.771 -21.653 -6.892 C -21.647 -6.998 -21.552 -7.057 -21.436 -7.053 C -21.319 -7.046 -21.245 -6.973 -21.252 -6.861 C -21.255 -6.803 -21.271 -6.764 -21.283 -6.74 Z M -21.313 -7.104 C -21.303 -7.122 -21.291 -7.148 -21.289 -7.185 C -21.284 -7.257 -21.337 -7.315 -21.426 -7.319 C -21.506 -7.324 -21.573 -7.282 -21.578 -7.198 C -21.581 -7.161 -21.573 -7.135 -21.564 -7.12 L -21.62 -7.106 C -21.627 -7.126 -21.637 -7.161 -21.635 -7.2 C -21.626 -7.319 -21.536 -7.394 -21.418 -7.387 C -21.3 -7.381 -21.226 -7.305 -21.232 -7.193 C -21.235 -7.144 -21.25 -7.106 -21.261 -7.09 Z M -21.259 -7.617 C -21.256 -7.651 -21.275 -7.682 -21.321 -7.685 C -21.396 -7.688 -21.415 -7.606 -21.417 -7.532 L -21.351 -7.53 L -21.328 -7.532 C -21.294 -7.541 -21.262 -7.569 -21.259 -7.617 M -21.461 -7.472 C -21.538 -7.476 -21.616 -7.506 -21.61 -7.619 C -21.606 -7.665 -21.592 -7.708 -21.567 -7.738 L -21.523 -7.719 C -21.543 -7.695 -21.556 -7.66 -21.558 -7.626 C -21.562 -7.552 -21.506 -7.539 -21.474 -7.537 L -21.466 -7.537 C -21.458 -7.68 -21.402 -7.756 -21.31 -7.752 C -21.254 -7.747 -21.201 -7.706 -21.206 -7.632 C -21.21 -7.58 -21.238 -7.541 -21.27 -7.523 L -21.27 -7.521 L -21.222 -7.513 L -21.225 -7.452 C -21.252 -7.459 -21.283 -7.463 -21.317 -7.463 Z M -21.581 -7.951 L -21.578 -8.003 L -21.525 -8.001 L -21.527 -7.949 L -21.196 -7.932 L -21.2 -7.864 L -21.532 -7.884 L -21.537 -7.795 L -21.592 -7.797 L -21.585 -7.886 L -21.606 -7.886 C -21.664 -7.891 -21.718 -7.88 -21.722 -7.821 L -21.716 -7.777 L -21.77 -7.771 L -21.778 -7.83 C -21.776 -7.86 -21.763 -7.895 -21.737 -7.917 C -21.703 -7.947 -21.653 -7.956 -21.601 -7.953 Z M -21.421 -8.153 C -21.476 -8.146 -21.515 -8.114 -21.517 -8.066 L -21.516 -8.045 L -21.583 -8.049 L -21.584 -8.066 C -21.581 -8.112 -21.546 -8.151 -21.493 -8.166 L -21.493 -8.168 L -21.568 -8.175 L -21.564 -8.233 C -21.529 -8.229 -21.49 -8.225 -21.445 -8.223 L -21.181 -8.207 L -21.184 -8.143 L -21.39 -8.153 Z M -21.558 -8.34 L -21.554 -8.407 L -21.318 -8.395 L -21.282 -8.398 C -21.251 -8.409 -21.216 -8.439 -21.213 -8.483 C -21.21 -8.544 -21.258 -8.567 -21.331 -8.572 L -21.544 -8.583 L -21.541 -8.65 L -21.314 -8.638 C -21.18 -8.631 -21.151 -8.56 -21.154 -8.503 C -21.157 -8.438 -21.201 -8.4 -21.232 -8.383 L -21.17 -8.375 L -21.174 -8.316 C -21.204 -8.32 -21.239 -8.322 -21.278 -8.324 Z M -21.258 -8.718 C -21.314 -8.722 -21.347 -8.757 -21.367 -8.822 C -21.385 -8.869 -21.397 -8.894 -21.43 -8.896 C -21.457 -8.896 -21.483 -8.874 -21.485 -8.835 C -21.487 -8.803 -21.477 -8.774 -21.468 -8.759 L -21.52 -8.746 C -21.531 -8.768 -21.539 -8.8 -21.537 -8.837 C -21.533 -8.915 -21.479 -8.961 -21.418 -8.959 C -21.371 -8.954 -21.336 -8.922 -21.313 -8.854 C -21.298 -8.805 -21.281 -8.785 -21.248 -8.782 C -21.215 -8.78 -21.189 -8.803 -21.187 -8.85 C -21.185 -8.883 -21.196 -8.92 -21.209 -8.941 L -21.154 -8.954 C -21.141 -8.926 -21.132 -8.892 -21.134 -8.85 C -21.141 -8.763 -21.19 -8.716 -21.258 -8.718 M -21.457 -9.347 C -21.461 -9.271 -21.395 -9.249 -21.35 -9.247 L -21.338 -9.442 C -21.387 -9.44 -21.453 -9.414 -21.457 -9.347 M -21.288 -9.44 L -21.303 -9.182 L -21.336 -9.182 C -21.406 -9.187 -21.516 -9.224 -21.507 -9.345 C -21.5 -9.451 -21.406 -9.51 -21.29 -9.506 C -21.174 -9.499 -21.1 -9.428 -21.106 -9.314 C -21.109 -9.256 -21.125 -9.217 -21.137 -9.193 L -21.187 -9.208 C -21.174 -9.232 -21.164 -9.261 -21.161 -9.308 C -21.157 -9.373 -21.193 -9.434 -21.288 -9.44 M -21.352 -9.664 L -21.323 -9.66 L -21.256 -9.655 L -21.226 -9.657 C -21.173 -9.666 -21.139 -9.705 -21.137 -9.751 C -21.133 -9.822 -21.194 -9.861 -21.272 -9.866 C -21.358 -9.87 -21.424 -9.833 -21.428 -9.764 C -21.431 -9.714 -21.396 -9.675 -21.352 -9.664 M -21.43 -9.666 C -21.459 -9.684 -21.485 -9.723 -21.482 -9.779 C -21.477 -9.868 -21.393 -9.941 -21.266 -9.934 C -21.148 -9.927 -21.073 -9.855 -21.079 -9.766 C -21.083 -9.705 -21.117 -9.662 -21.162 -9.645 L -21.162 -9.643 L -21.096 -9.636 L -21.099 -9.577 C -21.126 -9.579 -21.164 -9.584 -21.197 -9.584 L -21.663 -9.609 L -21.659 -9.677 L -21.43 -9.664 Z M -21.455 -10.096 L -21.068 -10.074 L -21.073 -10.007 L -21.458 -10.028 Z M -21.566 -10.026 C -21.592 -10.026 -21.61 -10.044 -21.607 -10.07 C -21.606 -10.094 -21.586 -10.111 -21.562 -10.109 L -21.521 -10.065 C -21.523 -10.04 -21.544 -10.024 -21.566 -10.026 M -21.172 -10.165 C -21.229 -10.168 -21.261 -10.202 -21.281 -10.268 C -21.299 -10.317 -21.312 -10.339 -21.343 -10.342 C -21.371 -10.344 -21.397 -10.322 -21.399 -10.283 C -21.401 -10.248 -21.391 -10.222 -21.381 -10.207 L -21.435 -10.193 C -21.445 -10.213 -21.454 -10.248 -21.451 -10.285 C -21.447 -10.363 -21.395 -10.408 -21.331 -10.404 C -21.284 -10.402 -21.25 -10.369 -21.229 -10.303 C -21.212 -10.252 -21.194 -10.232 -21.162 -10.229 C -21.129 -10.229 -21.103 -10.25 -21.099 -10.298 C -21.098 -10.33 -21.111 -10.367 -21.123 -10.387 L -21.068 -10.4 C -21.054 -10.374 -21.046 -10.337 -21.048 -10.296 C -21.054 -10.209 -21.104 -10.161 -21.172 -10.165 M -21.431 -10.635 C -21.428 -10.695 -21.39 -10.734 -21.352 -10.752 L -21.352 -10.754 L -21.415 -10.761 L -21.41 -10.819 C -21.38 -10.814 -21.348 -10.813 -21.308 -10.811 L -21.026 -10.795 L -21.03 -10.728 L -21.262 -10.741 L -21.295 -10.738 C -21.334 -10.729 -21.369 -10.697 -21.371 -10.651 C -21.376 -10.589 -21.324 -10.564 -21.263 -10.561 L -21.04 -10.55 L -21.045 -10.482 L -21.274 -10.495 C -21.407 -10.502 -21.435 -10.582 -21.431 -10.635 M -21.401 -10.995 L -21.016 -10.973 L -21.02 -10.905 L -21.405 -10.928 Z M -21.468 -10.964 C -21.47 -10.938 -21.489 -10.923 -21.514 -10.925 C -21.537 -10.928 -21.557 -10.942 -21.555 -10.969 C -21.554 -10.992 -21.533 -11.01 -21.509 -11.008 Z M -21.336 -11.392 C -21.34 -11.318 -21.272 -11.294 -21.229 -11.292 L -21.216 -11.489 C -21.265 -11.485 -21.331 -11.459 -21.336 -11.392 M -21.166 -11.487 L -21.182 -11.229 L -21.214 -11.229 C -21.284 -11.231 -21.395 -11.271 -21.386 -11.39 C -21.379 -11.496 -21.284 -11.557 -21.168 -11.551 C -21.052 -11.544 -20.979 -11.473 -20.985 -11.359 C -20.988 -11.301 -21.003 -11.262 -21.016 -11.238 L -21.065 -11.253 C -21.052 -11.277 -21.042 -11.305 -21.039 -11.353 C -21.036 -11.42 -21.072 -11.479 -21.166 -11.487 M -20.962 -11.869 L -21.194 -11.881 L -21.229 -11.878 C -21.269 -11.867 -21.301 -11.835 -21.303 -11.791 C -21.309 -11.73 -21.256 -11.704 -21.194 -11.7 L -20.973 -11.689 L -20.978 -11.622 L -21.206 -11.635 C -21.339 -11.642 -21.366 -11.724 -21.363 -11.771 C -21.362 -11.796 -21.353 -11.819 -21.339 -11.839 L -21.288 -11.885 L -21.287 -11.885 L -21.526 -11.9 L -21.523 -11.965 L -20.959 -11.935 Z M -21.009 -12.02 L -21.001 -12.059 C -20.998 -12.096 -21.025 -12.11 -21.073 -12.112 L -21.281 -12.123 L -21.287 -12.028 L -21.34 -12.032 L -21.333 -12.128 L -21.444 -12.132 L -21.422 -12.197 L -21.33 -12.19 L -21.327 -12.249 L -21.272 -12.245 L -21.275 -12.188 L -21.066 -12.178 C -21.021 -12.176 -20.987 -12.167 -20.968 -12.146 C -20.949 -12.13 -20.94 -12.104 -20.942 -12.073 C -20.943 -12.048 -20.949 -12.028 -20.956 -12.013 Z M -22.195 -7.252 L -22.428 -7.266 L -22.461 -7.263 C -22.5 -7.252 -22.534 -7.22 -22.536 -7.177 C -22.54 -7.115 -22.489 -7.09 -22.428 -7.085 L -22.206 -7.074 L -22.21 -7.007 L -22.439 -7.021 C -22.572 -7.026 -22.599 -7.106 -22.596 -7.157 C -22.595 -7.181 -22.585 -7.204 -22.572 -7.224 L -22.52 -7.27 L -22.761 -7.282 L -22.756 -7.35 L -22.191 -7.319 Z M -22.253 -7.413 C -22.243 -7.431 -22.23 -7.456 -22.229 -7.495 C -22.225 -7.567 -22.276 -7.623 -22.365 -7.628 C -22.446 -7.635 -22.513 -7.591 -22.519 -7.509 C -22.521 -7.472 -22.513 -7.445 -22.505 -7.428 L -22.56 -7.417 C -22.567 -7.435 -22.576 -7.472 -22.574 -7.511 C -22.566 -7.63 -22.477 -7.704 -22.357 -7.697 C -22.239 -7.69 -22.166 -7.612 -22.172 -7.504 C -22.176 -7.454 -22.189 -7.415 -22.2 -7.397 Z M -22.549 -7.793 L -22.546 -7.858 L -22.309 -7.845 L -22.272 -7.85 C -22.242 -7.86 -22.207 -7.891 -22.204 -7.934 C -22.2 -7.995 -22.248 -8.019 -22.321 -8.022 L -22.535 -8.034 L -22.531 -8.102 L -22.306 -8.088 C -22.17 -8.082 -22.142 -8.01 -22.146 -7.953 C -22.148 -7.889 -22.191 -7.852 -22.224 -7.836 L -22.224 -7.834 L -22.161 -7.825 L -22.165 -7.767 C -22.195 -7.771 -22.229 -7.773 -22.269 -7.775 Z M -22.315 -8.464 C -22.39 -8.468 -22.467 -8.438 -22.471 -8.359 C -22.477 -8.279 -22.396 -8.244 -22.33 -8.24 C -22.243 -8.235 -22.178 -8.281 -22.175 -8.344 C -22.17 -8.409 -22.23 -8.459 -22.315 -8.464 M -22.336 -8.173 C -22.454 -8.18 -22.531 -8.255 -22.525 -8.361 C -22.519 -8.461 -22.438 -8.537 -22.309 -8.531 C -22.187 -8.524 -22.116 -8.444 -22.121 -8.344 C -22.127 -8.255 -22.194 -8.164 -22.336 -8.173 M -22.586 -8.743 L -22.107 -8.718 L -22.111 -8.652 L -22.589 -8.679 L -22.599 -8.521 L -22.657 -8.524 L -22.635 -8.902 L -22.576 -8.9 Z M -22.137 -9.071 C -22.135 -9.108 -22.16 -9.123 -22.208 -9.126 L -22.417 -9.137 L -22.422 -9.041 L -22.476 -9.043 L -22.47 -9.139 L -22.579 -9.146 L -22.558 -9.21 L -22.466 -9.204 L -22.462 -9.263 L -22.409 -9.258 L -22.412 -9.201 L -22.201 -9.19 C -22.156 -9.187 -22.123 -9.18 -22.103 -9.158 C -22.086 -9.141 -22.077 -9.117 -22.079 -9.084 C -22.08 -9.059 -22.086 -9.039 -22.091 -9.028 L -22.145 -9.032 Z M -22.249 -9.584 C -22.322 -9.588 -22.4 -9.558 -22.404 -9.479 C -22.41 -9.399 -22.328 -9.366 -22.264 -9.362 C -22.177 -9.355 -22.111 -9.401 -22.108 -9.464 C -22.104 -9.529 -22.165 -9.579 -22.249 -9.584 M -22.27 -9.293 C -22.389 -9.3 -22.463 -9.375 -22.458 -9.481 C -22.451 -9.582 -22.371 -9.66 -22.243 -9.651 C -22.121 -9.646 -22.049 -9.564 -22.055 -9.467 C -22.061 -9.378 -22.128 -9.286 -22.27 -9.293 M -22.029 -10.051 L -22.258 -10.062 C -22.348 -10.067 -22.412 -10.072 -22.479 -10.081 L -22.479 -10.079 C -22.423 -10.048 -22.364 -10.012 -22.307 -9.973 L -22.044 -9.797 L -22.049 -9.729 L -22.585 -9.758 L -22.58 -9.82 L -22.356 -9.808 C -22.272 -9.803 -22.207 -9.799 -22.137 -9.788 L -22.136 -9.79 C -22.188 -9.816 -22.243 -9.851 -22.305 -9.892 L -22.565 -10.067 L -22.561 -10.142 L -22.025 -10.111 Z M -22.186 -10.66 C -22.258 -10.665 -22.336 -10.637 -22.341 -10.557 C -22.346 -10.476 -22.266 -10.443 -22.199 -10.437 C -22.112 -10.433 -22.048 -10.479 -22.044 -10.541 C -22.04 -10.606 -22.101 -10.656 -22.186 -10.66 M -22.206 -10.369 C -22.324 -10.376 -22.399 -10.452 -22.394 -10.559 C -22.388 -10.658 -22.307 -10.736 -22.179 -10.728 C -22.057 -10.724 -21.985 -10.641 -21.991 -10.543 C -21.996 -10.454 -22.063 -10.363 -22.206 -10.369 M -22.02 -11.136 L -22.442 -11.157 C -22.447 -11.141 -22.451 -11.116 -22.454 -11.082 C -22.463 -10.94 -22.386 -10.869 -22.259 -10.862 C -22.115 -10.855 -22.028 -10.928 -22.02 -11.068 C -22.019 -11.095 -22.018 -11.118 -22.02 -11.136 M -22.054 -10.855 C -22.106 -10.811 -22.179 -10.788 -22.266 -10.795 C -22.353 -10.8 -22.414 -10.83 -22.456 -10.878 C -22.496 -10.923 -22.516 -10.992 -22.51 -11.086 C -22.507 -11.138 -22.498 -11.186 -22.489 -11.227 L -21.962 -11.196 C -21.961 -11.164 -21.961 -11.125 -21.963 -11.077 C -21.969 -10.979 -22.001 -10.901 -22.054 -10.855 M -32.435 -11.266 L -32.51 -11.272 L -32.506 -11.331 C -32.471 -11.327 -32.433 -11.324 -32.387 -11.322 L -32.122 -11.308 L -32.125 -11.242 L -32.33 -11.253 L -32.363 -11.253 C -32.416 -11.246 -32.456 -11.214 -32.459 -11.166 L -32.457 -11.145 L -32.523 -11.146 L -32.525 -11.166 C -32.522 -11.212 -32.488 -11.251 -32.435 -11.264 Z M -32.451 -11.565 C -32.455 -11.492 -32.388 -11.47 -32.344 -11.468 L -32.332 -11.663 C -32.381 -11.659 -32.446 -11.633 -32.451 -11.565 M -32.181 -11.427 C -32.168 -11.45 -32.158 -11.479 -32.156 -11.526 C -32.151 -11.594 -32.187 -11.654 -32.281 -11.661 L -32.297 -11.402 L -32.329 -11.4 C -32.4 -11.405 -32.509 -11.444 -32.501 -11.563 C -32.495 -11.67 -32.4 -11.73 -32.284 -11.724 C -32.168 -11.718 -32.093 -11.646 -32.101 -11.533 C -32.104 -11.475 -32.119 -11.436 -32.131 -11.414 Z M -32.206 -12.059 L -32.234 -12.063 L -32.3 -12.064 L -32.329 -12.063 C -32.383 -12.052 -32.42 -12.013 -32.422 -11.967 C -32.426 -11.896 -32.363 -11.854 -32.285 -11.85 C -32.197 -11.846 -32.134 -11.883 -32.13 -11.954 C -32.127 -12 -32.158 -12.043 -32.206 -12.059 M -32.074 -11.939 C -32.08 -11.853 -32.153 -11.776 -32.293 -11.783 C -32.41 -11.789 -32.483 -11.861 -32.479 -11.95 C -32.475 -12.009 -32.444 -12.05 -32.396 -12.076 L -32.396 -12.078 L -32.462 -12.084 L -32.459 -12.143 C -32.422 -12.141 -32.382 -12.137 -32.333 -12.135 L -31.916 -12.11 L -31.92 -12.045 L -32.13 -12.057 L -32.13 -12.054 C -32.093 -12.032 -32.072 -11.986 -32.074 -11.939 M -32.101 -12.386 C -32.099 -12.421 -32.118 -12.451 -32.163 -12.453 C -32.238 -12.458 -32.257 -12.375 -32.259 -12.302 L -32.192 -12.3 L -32.17 -12.302 C -32.138 -12.311 -32.104 -12.339 -32.101 -12.386 M -32.063 -12.282 L -32.066 -12.222 C -32.094 -12.228 -32.125 -12.232 -32.159 -12.232 L -32.303 -12.241 C -32.381 -12.245 -32.46 -12.277 -32.453 -12.389 C -32.449 -12.434 -32.434 -12.478 -32.412 -12.508 L -32.366 -12.488 C -32.385 -12.464 -32.397 -12.43 -32.4 -12.395 C -32.405 -12.321 -32.348 -12.308 -32.316 -12.308 L -32.308 -12.306 C -32.3 -12.449 -32.245 -12.525 -32.151 -12.521 C -32.096 -12.517 -32.044 -12.476 -32.048 -12.401 C -32.052 -12.35 -32.08 -12.311 -32.111 -12.293 L -32.111 -12.291 Z M -32.187 -12.859 L -32.254 -12.863 L -32.281 -12.859 C -32.334 -12.851 -32.371 -12.81 -32.374 -12.764 C -32.378 -12.692 -32.314 -12.651 -32.237 -12.646 C -32.149 -12.643 -32.086 -12.68 -32.082 -12.751 C -32.08 -12.799 -32.11 -12.84 -32.158 -12.855 Z M -32.082 -12.853 C -32.045 -12.829 -32.025 -12.783 -32.027 -12.735 C -32.033 -12.651 -32.107 -12.573 -32.245 -12.582 C -32.362 -12.586 -32.437 -12.657 -32.432 -12.746 C -32.427 -12.808 -32.396 -12.849 -32.349 -12.872 L -32.349 -12.875 L -32.414 -12.881 L -32.411 -12.942 C -32.374 -12.938 -32.334 -12.934 -32.285 -12.931 L -31.868 -12.909 L -31.871 -12.842 L -32.082 -12.855 Z M -32.403 -13.165 L -32.405 -13.185 C -32.402 -13.23 -32.367 -13.268 -32.314 -13.283 L -32.314 -13.285 L -32.391 -13.291 L -32.387 -13.35 C -32.352 -13.346 -32.313 -13.344 -32.267 -13.342 L -32.002 -13.326 L -32.006 -13.261 L -32.211 -13.271 L -32.244 -13.27 C -32.297 -13.264 -32.337 -13.232 -32.339 -13.185 L -32.338 -13.163 Z M -32.332 -13.584 C -32.336 -13.511 -32.268 -13.486 -32.223 -13.484 L -32.211 -13.683 C -32.26 -13.678 -32.327 -13.651 -32.332 -13.584 M -32.161 -13.68 L -32.177 -13.422 L -32.209 -13.422 C -32.28 -13.424 -32.389 -13.463 -32.382 -13.582 C -32.375 -13.688 -32.28 -13.749 -32.163 -13.743 C -32.048 -13.736 -31.974 -13.665 -31.979 -13.552 C -31.983 -13.493 -31.999 -13.454 -32.012 -13.431 L -32.062 -13.445 C -32.048 -13.47 -32.037 -13.498 -32.035 -13.545 C -32.031 -13.612 -32.066 -13.671 -32.161 -13.68 M -31.987 -13.912 C -31.97 -13.897 -31.962 -13.871 -31.964 -13.839 C -31.965 -13.814 -31.97 -13.793 -31.976 -13.78 L -32.028 -13.786 L -32.021 -13.825 C -32.019 -13.862 -32.046 -13.878 -32.094 -13.88 L -32.301 -13.891 L -32.307 -13.795 L -32.359 -13.797 L -32.354 -13.895 L -32.465 -13.899 L -32.442 -13.965 L -32.35 -13.958 L -32.347 -14.015 L -32.294 -14.012 L -32.297 -13.956 L -32.088 -13.945 C -32.042 -13.942 -32.008 -13.932 -31.987 -13.912 M -31.957 -14.066 L -32.521 -14.097 L -32.519 -14.162 L -31.954 -14.132 Z M -32.316 -14.544 L -32.313 -14.594 L -32.26 -14.592 L -32.264 -14.54 L -31.931 -14.522 L -31.936 -14.457 L -32.267 -14.475 L -32.275 -14.327 L -31.943 -14.31 L -31.947 -14.242 L -32.332 -14.264 L -32.319 -14.477 L -32.338 -14.479 C -32.4 -14.481 -32.453 -14.464 -32.457 -14.395 C -32.46 -14.359 -32.451 -14.331 -32.44 -14.313 L -32.494 -14.299 C -32.508 -14.318 -32.515 -14.359 -32.514 -14.395 C -32.508 -14.496 -32.438 -14.551 -32.336 -14.544 Z M -32.25 -14.947 C -32.255 -14.874 -32.188 -14.853 -32.143 -14.85 L -32.13 -15.045 C -32.179 -15.041 -32.246 -15.015 -32.25 -14.947 M -32.08 -15.043 L -32.096 -14.785 L -32.128 -14.783 C -32.199 -14.787 -32.308 -14.826 -32.3 -14.945 C -32.294 -15.052 -32.199 -15.112 -32.082 -15.106 C -31.967 -15.1 -31.892 -15.028 -31.898 -14.915 C -31.901 -14.856 -31.918 -14.817 -31.93 -14.796 L -31.979 -14.809 C -31.967 -14.833 -31.957 -14.861 -31.954 -14.908 C -31.949 -14.976 -31.985 -15.037 -32.08 -15.043 M -31.877 -15.426 L -32.109 -15.437 L -32.144 -15.434 C -32.182 -15.423 -32.216 -15.391 -32.218 -15.35 C -32.222 -15.286 -32.171 -15.261 -32.109 -15.258 L -31.888 -15.245 L -31.892 -15.178 L -32.121 -15.19 C -32.254 -15.197 -32.279 -15.28 -32.277 -15.327 C -32.276 -15.354 -32.267 -15.375 -32.254 -15.395 L -32.201 -15.44 L -32.201 -15.442 L -32.442 -15.456 L -32.438 -15.521 L -31.873 -15.492 Z M -31.922 -15.577 L -31.915 -15.614 C -31.912 -15.651 -31.939 -15.666 -31.987 -15.668 L -32.195 -15.68 L -32.2 -15.584 L -32.254 -15.588 L -32.247 -15.684 L -32.358 -15.688 L -32.336 -15.753 L -32.244 -15.746 L -32.24 -15.805 L -32.188 -15.803 L -32.19 -15.744 L -31.981 -15.733 C -31.936 -15.731 -31.901 -15.723 -31.881 -15.701 C -31.863 -15.686 -31.855 -15.66 -31.857 -15.629 C -31.858 -15.604 -31.863 -15.584 -31.869 -15.57 Z M -33.439 -10.472 L -33.516 -10.479 L -33.513 -10.537 C -33.477 -10.532 -33.438 -10.528 -33.392 -10.525 L -33.127 -10.513 L -33.131 -10.445 L -33.337 -10.459 L -33.368 -10.456 C -33.423 -10.45 -33.462 -10.42 -33.464 -10.372 L -33.463 -10.348 L -33.53 -10.353 L -33.531 -10.372 C -33.527 -10.417 -33.493 -10.454 -33.439 -10.47 Z M -33.297 -10.899 C -33.37 -10.903 -33.447 -10.873 -33.452 -10.793 C -33.458 -10.715 -33.377 -10.68 -33.311 -10.676 C -33.224 -10.671 -33.158 -10.715 -33.155 -10.777 C -33.151 -10.843 -33.212 -10.895 -33.297 -10.899 M -33.317 -10.606 C -33.436 -10.612 -33.512 -10.688 -33.506 -10.795 C -33.498 -10.897 -33.419 -10.973 -33.29 -10.964 C -33.167 -10.96 -33.097 -10.878 -33.103 -10.78 C -33.107 -10.69 -33.175 -10.6 -33.317 -10.606 M -33.423 -11.349 C -33.427 -11.272 -33.358 -11.251 -33.314 -11.249 L -33.302 -11.444 C -33.351 -11.442 -33.418 -11.416 -33.423 -11.349 M -33.152 -11.21 C -33.139 -11.233 -33.129 -11.262 -33.125 -11.31 C -33.122 -11.377 -33.157 -11.436 -33.252 -11.442 L -33.269 -11.184 L -33.3 -11.184 C -33.371 -11.188 -33.479 -11.225 -33.473 -11.347 C -33.467 -11.453 -33.371 -11.512 -33.254 -11.507 C -33.139 -11.501 -33.064 -11.429 -33.07 -11.316 C -33.074 -11.258 -33.09 -11.219 -33.103 -11.194 Z M -33.133 -11.56 C -33.123 -11.576 -33.109 -11.603 -33.107 -11.64 C -33.104 -11.711 -33.155 -11.77 -33.244 -11.774 C -33.324 -11.778 -33.393 -11.737 -33.398 -11.652 C -33.4 -11.615 -33.393 -11.592 -33.383 -11.574 L -33.439 -11.562 C -33.447 -11.581 -33.456 -11.615 -33.454 -11.654 C -33.446 -11.776 -33.356 -11.848 -33.236 -11.842 C -33.119 -11.835 -33.045 -11.759 -33.051 -11.648 C -33.055 -11.601 -33.069 -11.562 -33.08 -11.544 Z M -33.077 -12.071 C -33.075 -12.106 -33.095 -12.137 -33.141 -12.139 C -33.215 -12.143 -33.233 -12.061 -33.235 -11.986 L -33.17 -11.984 L -33.146 -11.986 C -33.114 -11.995 -33.08 -12.023 -33.077 -12.071 M -33.28 -11.926 C -33.357 -11.931 -33.437 -11.961 -33.43 -12.073 C -33.426 -12.119 -33.41 -12.163 -33.389 -12.193 L -33.343 -12.174 C -33.361 -12.149 -33.375 -12.115 -33.377 -12.08 C -33.381 -12.006 -33.324 -11.995 -33.293 -11.993 L -33.284 -11.993 C -33.277 -12.135 -33.222 -12.21 -33.128 -12.206 C -33.073 -12.202 -33.021 -12.16 -33.025 -12.087 C -33.028 -12.034 -33.057 -11.998 -33.088 -11.979 L -33.088 -11.976 L -33.04 -11.967 L -33.044 -11.906 C -33.07 -11.913 -33.103 -11.917 -33.136 -11.917 Z M -33.4 -12.405 L -33.398 -12.458 L -33.346 -12.456 L -33.348 -12.403 L -33.016 -12.386 L -33.02 -12.321 L -33.352 -12.339 L -33.357 -12.249 L -33.41 -12.252 L -33.405 -12.341 L -33.425 -12.341 C -33.484 -12.345 -33.537 -12.334 -33.542 -12.277 L -33.535 -12.234 L -33.59 -12.228 L -33.598 -12.284 C -33.595 -12.314 -33.583 -12.35 -33.556 -12.373 C -33.522 -12.401 -33.473 -12.41 -33.419 -12.408 Z M -33.241 -12.607 C -33.294 -12.602 -33.334 -12.57 -33.337 -12.523 L -33.336 -12.499 L -33.401 -12.504 L -33.403 -12.523 C -33.399 -12.568 -33.365 -12.605 -33.312 -12.621 L -33.312 -12.623 L -33.388 -12.629 L -33.385 -12.688 C -33.349 -12.684 -33.31 -12.68 -33.264 -12.677 L -32.999 -12.664 L -33.002 -12.597 L -33.209 -12.609 Z M -33.378 -12.797 L -33.373 -12.861 L -33.138 -12.849 L -33.102 -12.853 C -33.069 -12.863 -33.035 -12.895 -33.031 -12.938 C -33.028 -12.998 -33.076 -13.022 -33.15 -13.026 L -33.362 -13.037 L -33.358 -13.104 L -33.135 -13.092 C -32.999 -13.085 -32.97 -13.016 -32.973 -12.957 C -32.977 -12.892 -33.02 -12.855 -33.053 -12.84 L -33.053 -12.838 L -32.988 -12.831 L -32.994 -12.771 C -33.023 -12.774 -33.058 -12.777 -33.098 -12.779 Z M -33.076 -13.172 C -33.135 -13.177 -33.165 -13.211 -33.187 -13.276 C -33.203 -13.326 -33.216 -13.348 -33.249 -13.35 C -33.277 -13.35 -33.302 -13.33 -33.304 -13.291 C -33.307 -13.257 -33.295 -13.229 -33.287 -13.213 L -33.339 -13.2 C -33.35 -13.222 -33.358 -13.255 -33.356 -13.291 C -33.352 -13.372 -33.299 -13.415 -33.236 -13.413 C -33.19 -13.408 -33.154 -13.378 -33.133 -13.309 C -33.116 -13.259 -33.1 -13.239 -33.066 -13.237 C -33.034 -13.237 -33.008 -13.257 -33.006 -13.305 C -33.004 -13.339 -33.016 -13.376 -33.027 -13.396 L -32.973 -13.408 C -32.959 -13.383 -32.951 -13.346 -32.953 -13.305 C -32.959 -13.218 -33.009 -13.17 -33.076 -13.172 M -33.277 -13.802 C -33.281 -13.726 -33.213 -13.704 -33.168 -13.702 L -33.156 -13.897 C -33.205 -13.895 -33.272 -13.869 -33.277 -13.802 M -33.106 -13.895 L -33.122 -13.639 L -33.154 -13.639 C -33.226 -13.641 -33.334 -13.678 -33.327 -13.8 C -33.32 -13.905 -33.226 -13.967 -33.108 -13.96 C -32.994 -13.953 -32.919 -13.882 -32.926 -13.769 C -32.929 -13.71 -32.943 -13.671 -32.957 -13.647 L -33.007 -13.663 C -32.994 -13.687 -32.982 -13.715 -32.979 -13.763 C -32.977 -13.83 -33.012 -13.889 -33.106 -13.895 M -33.172 -14.118 L -33.143 -14.114 L -33.076 -14.109 L -33.045 -14.112 C -32.991 -14.121 -32.958 -14.16 -32.956 -14.205 C -32.951 -14.277 -33.014 -14.316 -33.092 -14.32 C -33.177 -14.324 -33.242 -14.288 -33.246 -14.219 C -33.25 -14.168 -33.216 -14.129 -33.172 -14.118 M -33.249 -14.121 C -33.278 -14.138 -33.305 -14.177 -33.302 -14.233 C -33.295 -14.322 -33.213 -14.396 -33.085 -14.388 C -32.968 -14.381 -32.893 -14.31 -32.898 -14.221 C -32.901 -14.16 -32.938 -14.116 -32.981 -14.099 L -32.914 -14.09 L -32.918 -14.031 C -32.945 -14.034 -32.984 -14.038 -33.017 -14.038 L -33.482 -14.064 L -33.478 -14.132 L -33.249 -14.118 Z M -33.273 -14.551 L -32.889 -14.528 L -32.893 -14.462 L -33.277 -14.483 Z M -33.386 -14.481 C -33.41 -14.481 -33.429 -14.498 -33.427 -14.524 C -33.426 -14.548 -33.406 -14.565 -33.381 -14.563 L -33.34 -14.521 C -33.342 -14.494 -33.362 -14.479 -33.386 -14.481 M -32.99 -14.62 C -33.048 -14.622 -33.079 -14.657 -33.102 -14.725 C -33.117 -14.771 -33.131 -14.794 -33.162 -14.796 C -33.191 -14.798 -33.216 -14.776 -33.219 -14.737 C -33.221 -14.702 -33.21 -14.677 -33.201 -14.661 L -33.253 -14.648 C -33.264 -14.668 -33.272 -14.702 -33.271 -14.739 C -33.266 -14.817 -33.213 -14.863 -33.151 -14.861 C -33.104 -14.856 -33.068 -14.824 -33.047 -14.757 C -33.03 -14.707 -33.015 -14.688 -32.98 -14.686 C -32.948 -14.683 -32.922 -14.705 -32.919 -14.752 C -32.918 -14.785 -32.93 -14.822 -32.941 -14.842 L -32.888 -14.854 C -32.873 -14.828 -32.865 -14.791 -32.868 -14.75 C -32.873 -14.663 -32.923 -14.615 -32.99 -14.62 M -33.25 -15.089 C -33.246 -15.149 -33.209 -15.188 -33.171 -15.206 L -33.171 -15.208 L -33.234 -15.215 L -33.23 -15.273 C -33.199 -15.269 -33.166 -15.267 -33.126 -15.265 L -32.845 -15.249 L -32.85 -15.183 L -33.08 -15.197 L -33.114 -15.193 C -33.153 -15.185 -33.189 -15.151 -33.191 -15.108 C -33.194 -15.043 -33.145 -15.02 -33.082 -15.018 L -32.859 -15.004 L -32.864 -14.937 L -33.095 -14.95 C -33.226 -14.956 -33.253 -15.037 -33.25 -15.089 M -33.287 -15.421 C -33.289 -15.393 -33.31 -15.378 -33.332 -15.38 C -33.357 -15.382 -33.376 -15.397 -33.373 -15.423 C -33.372 -15.447 -33.353 -15.465 -33.328 -15.462 Z M -33.221 -15.449 L -32.834 -15.428 L -32.839 -15.36 L -33.224 -15.382 Z M -33.155 -15.847 C -33.16 -15.772 -33.092 -15.751 -33.047 -15.749 L -33.035 -15.944 C -33.084 -15.939 -33.151 -15.914 -33.155 -15.847 M -32.985 -15.942 L -33 -15.684 L -33.033 -15.684 C -33.104 -15.686 -33.213 -15.725 -33.205 -15.845 C -33.199 -15.95 -33.104 -16.012 -32.987 -16.005 C -32.872 -15.998 -32.797 -15.927 -32.804 -15.813 C -32.807 -15.755 -32.822 -15.716 -32.835 -15.694 L -32.885 -15.707 C -32.872 -15.731 -32.861 -15.76 -32.858 -15.808 C -32.854 -15.875 -32.891 -15.936 -32.985 -15.942 M -32.782 -16.324 L -33.015 -16.335 L -33.048 -16.333 C -33.087 -16.322 -33.121 -16.289 -33.123 -16.248 C -33.127 -16.186 -33.076 -16.159 -33.015 -16.157 L -32.793 -16.144 L -32.797 -16.076 L -33.026 -16.09 C -33.158 -16.096 -33.185 -16.179 -33.183 -16.227 C -33.182 -16.252 -33.172 -16.274 -33.158 -16.294 L -33.107 -16.339 L -33.106 -16.342 L -33.347 -16.354 L -33.343 -16.42 L -32.777 -16.392 Z M -32.828 -16.476 L -32.82 -16.513 C -32.817 -16.55 -32.844 -16.565 -32.892 -16.567 L -33.1 -16.578 L -33.105 -16.482 L -33.158 -16.486 L -33.152 -16.582 L -33.263 -16.587 L -33.241 -16.651 L -33.148 -16.647 L -33.146 -16.704 L -33.093 -16.702 L -33.096 -16.644 L -32.885 -16.632 C -32.84 -16.63 -32.807 -16.621 -32.786 -16.602 C -32.769 -16.585 -32.761 -16.559 -32.763 -16.528 C -32.764 -16.502 -32.769 -16.482 -32.774 -16.47 Z M -34.015 -11.707 L -34.246 -11.72 L -34.281 -11.718 C -34.319 -11.707 -34.353 -11.674 -34.354 -11.631 C -34.359 -11.57 -34.309 -11.544 -34.246 -11.54 L -34.024 -11.528 L -34.029 -11.462 L -34.258 -11.475 C -34.391 -11.481 -34.419 -11.563 -34.416 -11.611 C -34.413 -11.635 -34.403 -11.659 -34.391 -11.679 L -34.34 -11.724 L -34.579 -11.739 L -34.575 -11.805 L -34.011 -11.774 Z M -34.072 -11.867 C -34.062 -11.885 -34.05 -11.911 -34.048 -11.95 C -34.043 -12.021 -34.096 -12.08 -34.185 -12.084 C -34.265 -12.089 -34.332 -12.045 -34.338 -11.963 C -34.34 -11.926 -34.332 -11.9 -34.323 -11.883 L -34.379 -11.872 C -34.387 -11.892 -34.396 -11.926 -34.394 -11.965 C -34.385 -12.084 -34.295 -12.158 -34.177 -12.151 C -34.059 -12.146 -33.984 -12.067 -33.991 -11.959 C -33.994 -11.908 -34.009 -11.869 -34.02 -11.854 Z M -34.369 -12.247 L -34.365 -12.313 L -34.129 -12.3 L -34.092 -12.304 C -34.061 -12.314 -34.025 -12.345 -34.022 -12.389 C -34.02 -12.449 -34.067 -12.473 -34.141 -12.478 L -34.354 -12.488 L -34.35 -12.556 L -34.125 -12.543 C -33.99 -12.536 -33.961 -12.467 -33.964 -12.408 C -33.967 -12.343 -34.011 -12.306 -34.043 -12.291 L -34.043 -12.288 L -33.98 -12.282 L -33.983 -12.222 C -34.014 -12.226 -34.049 -12.228 -34.089 -12.229 Z M -34.135 -12.918 C -34.208 -12.923 -34.285 -12.892 -34.29 -12.813 C -34.296 -12.733 -34.215 -12.699 -34.148 -12.694 C -34.063 -12.69 -33.996 -12.735 -33.993 -12.799 C -33.989 -12.863 -34.05 -12.914 -34.135 -12.918 M -34.156 -12.627 C -34.273 -12.634 -34.351 -12.71 -34.344 -12.816 C -34.339 -12.916 -34.257 -12.994 -34.128 -12.985 C -34.006 -12.979 -33.935 -12.898 -33.94 -12.799 C -33.945 -12.712 -34.014 -12.621 -34.156 -12.627 M -34.404 -13.198 L -33.927 -13.174 L -33.932 -13.106 L -34.408 -13.133 L -34.418 -12.975 L -34.477 -12.979 L -34.453 -13.358 L -34.396 -13.354 Z M -33.955 -13.525 C -33.953 -13.563 -33.98 -13.578 -34.028 -13.58 L -34.235 -13.591 L -34.241 -13.495 L -34.294 -13.498 L -34.288 -13.593 L -34.399 -13.6 L -34.377 -13.665 L -34.284 -13.658 L -34.281 -13.717 L -34.228 -13.713 L -34.231 -13.656 L -34.021 -13.644 C -33.975 -13.641 -33.942 -13.635 -33.922 -13.612 C -33.904 -13.596 -33.896 -13.571 -33.897 -13.539 C -33.898 -13.515 -33.904 -13.493 -33.91 -13.482 L -33.963 -13.486 Z M -34.068 -14.04 C -34.142 -14.043 -34.219 -14.012 -34.224 -13.934 C -34.229 -13.855 -34.148 -13.821 -34.082 -13.816 C -33.995 -13.813 -33.931 -13.855 -33.927 -13.919 C -33.923 -13.984 -33.983 -14.036 -34.068 -14.04 M -34.089 -13.747 C -34.207 -13.756 -34.283 -13.83 -34.276 -13.937 C -34.271 -14.038 -34.19 -14.114 -34.062 -14.105 C -33.94 -14.102 -33.868 -14.019 -33.874 -13.921 C -33.879 -13.832 -33.946 -13.741 -34.089 -13.747 M -33.848 -14.505 L -34.077 -14.518 C -34.167 -14.522 -34.231 -14.526 -34.299 -14.535 L -34.3 -14.533 C -34.242 -14.503 -34.184 -14.466 -34.126 -14.427 L -33.863 -14.251 L -33.867 -14.184 L -34.403 -14.212 L -34.399 -14.274 L -34.176 -14.262 C -34.091 -14.258 -34.027 -14.253 -33.955 -14.242 L -33.954 -14.244 C -34.008 -14.271 -34.062 -14.305 -34.123 -14.347 L -34.384 -14.524 L -34.38 -14.596 L -33.845 -14.567 Z M -34.004 -15.117 C -34.078 -15.119 -34.155 -15.091 -34.159 -15.011 C -34.165 -14.933 -34.084 -14.897 -34.019 -14.894 C -33.932 -14.889 -33.866 -14.933 -33.863 -14.995 C -33.858 -15.061 -33.92 -15.11 -34.004 -15.117 M -34.024 -14.824 C -34.144 -14.83 -34.219 -14.906 -34.213 -15.013 C -34.206 -15.115 -34.127 -15.19 -33.998 -15.183 C -33.875 -15.178 -33.805 -15.096 -33.81 -14.998 C -33.815 -14.908 -33.883 -14.817 -34.024 -14.824 M -33.839 -15.59 L -34.263 -15.612 C -34.267 -15.597 -34.271 -15.57 -34.273 -15.536 C -34.282 -15.395 -34.205 -15.323 -34.079 -15.319 C -33.935 -15.311 -33.848 -15.382 -33.839 -15.523 C -33.838 -15.549 -33.836 -15.573 -33.839 -15.59 M -33.873 -15.311 C -33.925 -15.265 -33.998 -15.243 -34.086 -15.249 C -34.173 -15.254 -34.233 -15.284 -34.274 -15.332 C -34.315 -15.378 -34.334 -15.447 -34.329 -15.54 C -34.325 -15.595 -34.318 -15.643 -34.31 -15.682 L -33.78 -15.653 C -33.779 -15.618 -33.779 -15.579 -33.781 -15.531 C -33.787 -15.434 -33.819 -15.355 -33.873 -15.311" style="fill: rgb(89, 34, 225); fill-opacity: 1;"></path>
      </g>
    </g>
    <g style="clip-path: url(#clippath5);">
      <g transform="translate(80.9072 35.3428)">
        <path d="M 0 0 L -1.12 -0.369 L -8.775 -2.938 L -8.586 -3.449 L -3.434 -17.154 C -0.977 -14.128 1.062 -10.764 2.591 -7.138 Z M -11.848 -3.517 L -19.496 -6.081 L -19.305 -6.593 L -13.911 -20.941 L -5.403 -17.792 L -10.72 -3.146 Z M -21.736 -7.184 L -29.391 -9.749 L -29.199 -10.269 L -23.808 -24.61 L -15.299 -21.461 L -20.615 -6.814 Z M -33.528 -11.643 L -41.183 -14.208 L -40.991 -14.728 L -35.6 -29.069 L -27.091 -25.92 L -32.407 -11.273 Z" style="fill: rgb(171, 173, 176); fill-opacity: 1;"></path>
      </g>
    </g>
    <g style="clip-path: url(#clippath5);">
      <g transform="translate(80.7998 35.5225)">
        <path d="M 0 0 L -0.016 -0.013 L -0.037 -0.02 L -0.058 -0.025 L -0.076 -0.048 C -0.143 -0.094 -0.214 -0.123 -0.284 -0.157 L -8.722 -2.982 L -9.635 -0.554 L -0.722 2.104 L 0.032 0.025 Z M -11.67 9.63 C -11.993 11.054 -12.289 12.491 -12.658 13.908 L -12.659 13.913 L -12.66 13.915 L -14.068 17.977 L -14.069 17.979 C -14.195 18.28 -14.308 18.582 -14.382 18.893 C -14.57 19.67 -14.579 20.512 -14.6 21.315 C -14.652 23.378 -15.028 34.497 -15.035 34.688 L -12.531 34.986 C -12.332 34.661 -12.207 34.274 -12.21 33.808 L -12.193 33.808 L -11.351 33.808 L -8.688 33.808 C -8.688 33.808 -8.646 34.555 -9.003 35.406 L -6.246 35.734 C -6.26 35.218 -6.336 32.043 -6.336 28.624 C -6.336 26.805 -6.315 24.919 -6.251 23.332 C -6.185 21.745 -6.079 20.462 -5.904 19.832 C -5.14 17.086 -3.387 14.664 -2.487 11.97 C -1.574 9.232 -1.086 6.315 -1.053 3.445 L -1.053 3.408 C -1.052 3.25 -1.032 2.661 -0.779 2.236 L -9.672 -0.416 C -10.249 2.947 -10.916 6.3 -11.67 9.63 M -15.186 34.748 C -15.186 34.746 -15.18 34.583 -15.17 34.29 C -15.158 33.958 -15.141 33.451 -15.12 32.843 L -16.826 32.28 C -16.82 32.527 -16.817 32.667 -16.817 32.668 L -16.815 32.751 L -19.786 32.397 C -19.986 32.828 -20.295 33.272 -20.766 33.658 L -13.681 35.994 C -13.27 35.781 -12.892 35.497 -12.62 35.119 L -15.188 34.813 Z M -16.625 16.689 C -15.858 13.941 -14.106 11.519 -13.207 8.824 C -12.293 6.087 -11.805 3.17 -11.773 0.3 L -11.773 0.263 C -11.772 0.105 -11.753 -0.485 -11.498 -0.908 L -16.981 -2.544 L -20.392 -3.56 C -20.969 -0.195 -21.637 3.155 -22.39 6.486 C -22.712 7.91 -23.009 9.346 -23.377 10.763 L -23.378 10.768 L -23.38 10.77 L -24.788 14.831 L -24.789 14.833 C -24.915 15.137 -25.027 15.438 -25.103 15.747 C -25.291 16.524 -25.3 17.368 -25.319 18.17 C -25.37 20.153 -25.748 31.322 -25.756 31.543 L -23.251 31.841 C -23.052 31.515 -22.928 31.129 -22.931 30.662 L -19.408 30.662 C -19.408 30.662 -19.399 30.853 -19.432 31.144 L -19.472 31.408 C -19.517 31.659 -19.594 31.951 -19.724 32.261 L -16.967 32.588 C -16.969 32.517 -17.056 28.192 -17.056 25.479 C -17.056 23.659 -17.034 21.773 -16.971 20.188 C -16.905 18.602 -16.799 17.318 -16.625 16.689 M -10.687 -3.12 L -10.721 -3.146 L -10.735 -3.156 L -10.757 -3.165 L -10.777 -3.171 L -10.796 -3.194 C -10.858 -3.237 -10.927 -3.264 -10.993 -3.297 L -19.442 -6.129 L -20.355 -3.699 L -11.441 -1.04 Z M -13.804 -21.121 L -19.377 -6.299 L -19.375 -6.298 L -19.331 -6.295 L -19.324 -6.295 L -19.317 -6.293 C -17.478 -5.83 -15.739 -5.069 -13.957 -4.477 C -13.938 -4.48 -13.921 -4.484 -13.896 -4.484 C -13.788 -4.486 -13.707 -4.441 -13.651 -4.381 C -13.174 -4.226 -12.693 -4.083 -12.206 -3.968 C -12.099 -3.944 -12.033 -3.877 -11.998 -3.803 C -11.824 -3.768 -11.65 -3.72 -11.493 -3.642 L -11.493 -3.643 C -11.306 -3.585 -11.12 -3.516 -10.938 -3.427 L -10.697 -3.347 L -5.296 -17.972 Z M -25.905 31.603 C -25.905 31.603 -25.899 31.437 -25.89 31.145 C -25.876 30.745 -25.854 30.102 -25.827 29.313 L -26.711 29.021 L -26.71 29.082 L -29.68 28.729 C -29.764 28.909 -29.864 29.091 -29.99 29.272 C -30.227 29.634 -30.553 29.986 -30.998 30.285 L -23.984 32.597 C -23.737 32.425 -23.516 32.22 -23.34 31.974 L -25.907 31.668 Z M -26.52 13.021 C -25.754 10.272 -24.001 7.85 -23.102 5.156 C -22.188 2.418 -21.7 -0.499 -21.668 -3.369 L -21.668 -3.406 C -21.667 -3.563 -21.647 -4.155 -21.393 -4.577 L -24.248 -5.429 L -30.286 -7.228 C -30.864 -3.864 -31.531 -0.513 -32.285 2.818 C -32.607 4.242 -32.903 5.677 -33.272 7.095 L -33.275 7.101 L -34.683 11.162 L -34.684 11.164 C -34.81 11.466 -34.923 11.771 -34.996 12.078 C -35.186 12.855 -35.194 13.7 -35.215 14.501 C -35.268 16.568 -35.644 27.683 -35.65 27.874 L -33.157 28.171 C -32.986 27.863 -32.879 27.506 -32.881 27.078 L -29.303 26.994 C -29.303 26.994 -29.281 27.355 -29.388 27.862 L -29.452 28.118 C -29.494 28.27 -29.549 28.428 -29.618 28.592 L -26.881 28.928 C -26.881 28.928 -26.951 24.888 -26.951 21.81 C -26.951 19.991 -26.93 18.104 -26.866 16.52 C -26.8 14.931 -26.694 13.65 -26.52 13.021 M -20.582 -6.788 L -20.615 -6.813 L -20.631 -6.825 L -20.652 -6.833 L -20.673 -6.84 L -20.693 -6.864 C -20.755 -6.906 -20.822 -6.933 -20.887 -6.965 L -29.336 -9.797 L -30.25 -7.367 L -23.743 -5.425 L -21.337 -4.708 Z M -23.699 -24.79 L -29.271 -9.967 C -29.271 -9.967 -29.271 -9.967 -29.271 -9.967 L -29.227 -9.964 L -29.22 -9.964 L -29.212 -9.962 C -27.373 -9.499 -25.634 -8.737 -23.853 -8.146 C -23.834 -8.149 -23.816 -8.153 -23.791 -8.153 C -23.683 -8.155 -23.602 -8.109 -23.545 -8.049 C -23.067 -7.894 -22.588 -7.751 -22.101 -7.637 C -21.993 -7.613 -21.928 -7.545 -21.892 -7.472 C -21.713 -7.435 -21.534 -7.388 -21.376 -7.307 C -21.196 -7.251 -21.019 -7.185 -20.843 -7.102 L -20.592 -7.018 L -15.191 -21.641 Z M -35.801 27.934 C -35.801 27.934 -35.794 27.769 -35.784 27.476 C -35.773 27.147 -35.756 26.646 -35.735 26.046 L -40.894 24.346 L -41.499 24.274 C -41.822 24.968 -42.43 25.701 -43.543 26.15 L -34.314 29.192 C -33.896 28.978 -33.51 28.689 -33.234 28.305 L -35.803 27.999 Z M -38.681 24.465 C -38.694 23.946 -38.771 20.772 -38.771 17.355 C -38.771 15.536 -38.749 13.65 -38.685 12.065 C -38.618 10.477 -38.513 9.195 -38.339 8.566 C -37.573 5.818 -35.82 3.396 -34.922 0.701 C -34.007 -2.036 -33.52 -4.953 -33.487 -7.823 L -33.487 -7.86 C -33.486 -8.017 -33.466 -8.607 -33.213 -9.032 L -42.105 -11.684 C -42.683 -8.322 -43.35 -4.969 -44.104 -1.637 C -44.425 -0.213 -44.723 1.223 -45.092 2.64 L -45.093 2.645 L -45.094 2.646 L -46.503 6.708 L -46.504 6.71 C -46.629 7.012 -46.741 7.315 -46.815 7.624 C -47.004 8.401 -47.014 9.245 -47.033 10.047 C -47.091 12.238 -47.464 23.27 -47.47 23.42 L -44.964 23.718 C -44.85 23.531 -44.764 23.321 -44.709 23.088 L -44.669 22.825 C -44.658 22.731 -44.643 22.64 -44.644 22.539 L -41.121 22.539 C -41.121 22.539 -41.088 23.163 -41.353 23.918 L -41.346 23.92 C -41.382 24.035 -41.412 24.131 -41.412 24.131 L -40.292 24.268 L -40.264 24.277 Z M -32.4 -11.243 L -32.434 -11.269 L -32.45 -11.281 L -32.471 -11.288 L -32.492 -11.294 L -32.51 -11.316 C -32.574 -11.361 -32.645 -11.389 -32.712 -11.422 L -41.156 -14.251 L -42.069 -11.822 L -38.117 -10.643 L -33.155 -9.164 Z M -35.519 -29.244 L -41.092 -14.422 L -41.09 -14.421 L -41.045 -14.418 L -41.039 -14.418 L -41.031 -14.416 C -39.193 -13.953 -37.454 -13.192 -35.671 -12.6 C -35.652 -12.604 -35.635 -12.607 -35.609 -12.607 C -35.503 -12.609 -35.422 -12.564 -35.365 -12.504 C -34.887 -12.351 -34.407 -12.208 -33.92 -12.091 C -33.816 -12.067 -33.753 -12.003 -33.715 -11.932 C -33.536 -11.894 -33.358 -11.845 -33.199 -11.763 C -33.016 -11.706 -32.835 -11.639 -32.658 -11.554 L -32.412 -11.472 L -27.01 -26.095 Z M -0.58 2.146 L -0.557 2.153 L -0.608 2.225 L -0.629 2.281 L -0.637 2.279 C -0.879 2.652 -0.906 3.256 -0.905 3.408 L -0.904 3.443 L -0.904 3.445 C -0.938 6.33 -1.427 9.261 -2.346 12.014 C -3.257 14.731 -5.007 17.153 -5.762 19.869 C -5.93 20.471 -6.038 21.756 -6.102 23.336 C -6.166 24.921 -6.188 26.805 -6.188 28.624 C -6.188 30.491 -6.165 32.288 -6.143 33.619 C -6.131 34.283 -6.12 34.833 -6.111 35.215 C -6.103 35.597 -6.097 35.812 -6.096 35.813 L -6.095 35.895 L -9.064 35.542 C -9.531 36.544 -10.571 37.642 -12.906 37.821 L -16.07 36.626 C -16.07 36.626 -15.03 36.571 -14.029 36.156 L -21.021 33.851 C -21.632 34.269 -22.468 34.587 -23.627 34.676 L -26.79 33.482 C -26.79 33.482 -25.387 33.409 -24.272 32.779 L -31.301 30.462 C -31.877 30.78 -32.612 31.017 -33.579 31.092 L -36.74 29.896 C -36.74 29.896 -36.654 29.891 -36.518 29.877 L -36.685 29.813 C -36.685 29.813 -35.659 29.76 -34.666 29.353 L -43.939 26.296 C -44.346 26.421 -44.808 26.512 -45.341 26.553 L -48.504 25.359 C -48.504 25.359 -47.991 25.333 -47.342 25.174 L -56.041 22.307 L -74.863 27.112 C -74.904 27.032 -74.948 26.954 -74.988 26.874 L -56.07 22.045 C -56.044 22.038 -56.017 22.038 -55.99 22.047 L -46.889 25.047 C -46.214 24.831 -45.492 24.463 -45.054 23.851 L -47.622 23.545 L -47.619 23.479 C -47.619 23.479 -47.614 23.314 -47.604 23.021 C -47.596 22.801 -47.586 22.495 -47.573 22.144 L -55.028 19.687 L -75.864 25.005 C -75.899 24.924 -75.938 24.844 -75.973 24.763 L -55.059 19.425 C -55.031 19.418 -55.005 19.418 -54.979 19.427 L -47.564 21.871 C -47.459 18.804 -47.238 12.223 -47.183 10.044 C -47.161 9.243 -47.154 8.391 -46.962 7.594 C -46.884 7.272 -46.769 6.962 -46.642 6.658 L -45.236 2.607 C -44.868 1.192 -44.57 -0.241 -44.248 -1.667 C -43.496 -5.003 -42.826 -8.359 -42.249 -11.727 L -42.261 -11.73 L -42.237 -11.793 L -42.224 -11.867 L -42.211 -11.863 L -35.607 -29.429 L -35.536 -29.403 L -29.153 -27.04 L -26.822 -26.178 L -26.879 -26.025 L -33.014 -9.122 L -32.99 -9.115 L -33.044 -9.038 L -33.063 -8.987 L -33.069 -8.989 C -33.313 -8.619 -33.34 -8.011 -33.339 -7.86 L -33.338 -7.825 L -33.338 -7.823 C -33.372 -4.938 -33.861 -2.008 -34.779 0.745 C -35.69 3.465 -37.44 5.885 -38.195 8.601 C -38.363 9.202 -38.472 10.487 -38.536 12.069 C -38.6 13.652 -38.622 15.539 -38.622 17.355 C -38.622 19.223 -38.599 21.02 -38.576 22.351 C -38.564 23.015 -38.554 23.564 -38.545 23.946 C -38.537 24.328 -38.529 24.543 -38.529 24.545 L -38.528 24.628 L -39.579 24.503 L -35.727 25.773 C -35.616 22.527 -35.417 16.554 -35.363 14.499 C -35.343 13.698 -35.335 12.845 -35.142 12.048 C -35.064 11.729 -34.951 11.422 -34.823 11.117 L -33.416 7.062 L -33.417 7.062 C -33.049 5.646 -32.753 4.214 -32.43 2.787 C -31.676 -0.548 -31.008 -3.904 -30.429 -7.272 L -30.441 -7.276 L -30.416 -7.343 L -30.405 -7.413 L -30.392 -7.409 L -23.789 -24.975 L -15.004 -21.723 L -15.061 -21.569 L -21.195 -4.665 L -21.172 -4.658 L -21.223 -4.59 L -21.243 -4.532 L -21.252 -4.535 C -21.494 -4.165 -21.521 -3.557 -21.521 -3.406 L -21.52 -3.371 L -21.52 -3.369 C -21.553 -0.481 -22.041 2.446 -22.961 5.199 C -23.871 7.919 -25.622 10.34 -26.376 13.056 C -26.545 13.656 -26.653 14.941 -26.716 16.524 C -26.781 18.106 -26.803 19.993 -26.803 21.81 C -26.803 23.677 -26.78 25.475 -26.757 26.805 C -26.745 27.472 -26.734 28.019 -26.726 28.4 C -26.723 28.541 -26.72 28.649 -26.718 28.742 L -25.817 29.039 C -25.705 25.724 -25.52 20.143 -25.469 18.167 C -25.447 17.366 -25.439 16.514 -25.247 15.717 C -25.169 15.396 -25.056 15.087 -24.928 14.781 L -23.521 10.73 C -23.155 9.315 -22.857 7.882 -22.534 6.456 C -21.781 3.12 -21.112 -0.235 -20.534 -3.604 L -20.547 -3.607 L -20.521 -3.674 L -20.51 -3.744 L -20.497 -3.74 L -13.894 -21.306 L -5.108 -18.054 L -5.164 -17.902 L -11.3 -0.996 L -11.276 -0.989 L -11.327 -0.918 L -11.348 -0.863 L -11.355 -0.866 C -11.599 -0.496 -11.627 0.112 -11.626 0.263 L -11.625 0.298 L -11.625 0.3 C -11.657 3.187 -12.146 6.115 -13.066 8.868 C -13.976 11.588 -15.727 14.008 -16.48 16.724 C -16.649 17.325 -16.758 18.61 -16.821 20.192 C -16.886 21.775 -16.908 23.662 -16.908 25.479 C -16.908 27.346 -16.885 29.143 -16.863 30.474 C -16.851 31.104 -16.84 31.623 -16.832 32.001 L -15.111 32.568 C -15 29.317 -14.802 23.363 -14.748 21.311 C -14.728 20.51 -14.719 19.659 -14.527 18.86 C -14.45 18.542 -14.335 18.232 -14.208 17.929 L -12.802 13.876 L -12.803 13.876 C -12.435 12.461 -12.138 11.025 -11.814 9.6 C -11.061 6.265 -10.393 2.908 -9.814 -0.458 L -9.826 -0.462 L -9.803 -0.524 L -9.79 -0.599 L -9.776 -0.595 L -8.833 -3.104 L -8.834 -3.104 L -3.434 -17.468 C -3.397 -17.424 -3.362 -17.378 -3.326 -17.334 L -8.657 -3.153 C -8.657 -3.153 -8.656 -3.153 -8.656 -3.153 L -8.611 -3.149 L -8.605 -3.149 L -8.598 -3.147 C -6.761 -2.687 -5.021 -1.924 -3.239 -1.332 C -3.22 -1.336 -3.201 -1.342 -3.176 -1.342 C -3.068 -1.344 -2.986 -1.296 -2.931 -1.235 C -2.453 -1.082 -1.973 -0.939 -1.486 -0.822 C -1.381 -0.799 -1.318 -0.734 -1.281 -0.664 C -1.101 -0.625 -0.922 -0.578 -0.76 -0.492 C -0.577 -0.438 -0.396 -0.37 -0.22 -0.284 L 0.021 -0.203 L 2.673 -7.38 C 2.71 -7.292 2.744 -7.202 2.78 -7.113 Z" style="fill: rgb(55, 103, 246); fill-opacity: 1;"></path>
      </g>
    </g>
    <g style="clip-path: url(#clippath5);">
      <g transform="translate(44.1074 85.2085)">
        <path d="M 0 0 C -22.664 0 -41.104 -18.439 -41.104 -41.103 C -41.104 -63.766 -22.664 -82.205 0 -82.205 C 22.664 -82.205 41.103 -63.766 41.103 -41.103 C 41.103 -18.439 22.664 0 0 0 M 0 -85.208 C -24.322 -85.208 -44.107 -65.423 -44.107 -41.103 C -44.107 -16.782 -24.322 3.005 0 3.005 C 24.321 3.005 44.106 -16.782 44.106 -41.103 C 44.106 -65.423 24.321 -85.208 0 -85.208" style="fill: rgb(89, 34, 225); fill-opacity: 1;"></path>
      </g>
    </g>
  </g>
</svg>