<svg viewBox="0 0 88 88" xmlns="http://www.w3.org/2000/svg">
  <defs>
    <clipPath id="clippath1" transform="">
      <path d="M 0 88.213 L 88.214 88.213 L 88.214 0 L 0 0 Z" style="fill: none; clip-rule: nonzero;"></path>
    </clipPath>
  </defs>
  <g transform="matrix(1, 0, 0, -1, 0, 88)">
    <g transform="">
      <path d="M 0 88.213 L 88.214 88.213 L 88.214 0 L 0 0 Z" style="fill: none;"></path>
    </g>
    <g style="clip-path: url(#clippath1);">
      <g transform="translate(44.4468 31.9082)">
        <path d="M 0 0 C -0.049 0.093 -0.032 0.241 0.223 0.312 C 0.504 0.388 0.673 0.283 0.734 0.201 Z M 1.002 0.237 C 0.901 0.364 0.623 0.531 0.17 0.407 C -0.232 0.296 -0.347 0.064 -0.18 -0.146 C -0.014 -0.355 0.352 -0.426 0.778 -0.308 C 0.998 -0.248 1.132 -0.184 1.204 -0.14 L 1.089 -0.061 C 1.011 -0.106 0.915 -0.152 0.734 -0.202 C 0.484 -0.271 0.211 -0.26 0.069 -0.091 L 1.041 0.176 C 1.033 0.189 1.021 0.211 1.002 0.237 M 1.776 0.723 C 1.914 0.762 2.021 0.771 2.094 0.77 L 2.075 0.883 C 1.992 0.881 1.846 0.865 1.697 0.824 C 1.247 0.7 1.078 0.464 1.248 0.252 C 1.416 0.039 1.8 -0.028 2.217 0.086 C 2.403 0.137 2.53 0.199 2.583 0.235 L 2.464 0.318 C 2.405 0.283 2.326 0.238 2.184 0.199 C 1.909 0.123 1.625 0.166 1.497 0.326 C 1.382 0.471 1.459 0.636 1.776 0.723 M -4.142 -0.572 C -3.982 -0.527 -3.835 -0.508 -3.722 -0.505 L -3.744 -0.386 C -3.822 -0.387 -3.994 -0.404 -4.234 -0.469 C -4.831 -0.633 -5.077 -0.95 -4.836 -1.251 C -4.584 -1.569 -4.039 -1.63 -3.496 -1.48 C -3.262 -1.417 -3.098 -1.343 -3.025 -1.295 L -3.154 -1.211 C -3.235 -1.262 -3.377 -1.32 -3.528 -1.362 C -3.997 -1.491 -4.389 -1.412 -4.577 -1.176 C -4.779 -0.922 -4.593 -0.695 -4.142 -0.572 M -6.436 -1.54 L -6.242 -1.488 L -5.766 -2.085 L -5.518 -2.017 L -5.992 -1.419 L -5.659 -1.327 L -5.735 -1.231 L -6.07 -1.323 L -6.1 -1.286 C -6.183 -1.18 -6.205 -1.07 -5.991 -1.012 C -5.919 -0.992 -5.862 -0.985 -5.818 -0.983 L -5.861 -0.877 C -5.918 -0.88 -6.002 -0.891 -6.09 -0.915 C -6.208 -0.948 -6.319 -1.001 -6.377 -1.072 C -6.45 -1.16 -6.422 -1.261 -6.344 -1.358 L -6.318 -1.391 L -6.512 -1.445 Z M -6.848 -2.286 C -7.093 -2.354 -7.359 -2.287 -7.48 -2.134 C -7.585 -2.003 -7.566 -1.83 -7.268 -1.749 C -6.972 -1.667 -6.736 -1.784 -6.643 -1.901 C -6.519 -2.057 -6.609 -2.22 -6.848 -2.286 M -7.339 -1.651 C -7.721 -1.757 -7.915 -1.976 -7.731 -2.208 C -7.556 -2.428 -7.158 -2.486 -6.785 -2.384 C -6.451 -2.292 -6.185 -2.083 -6.389 -1.826 C -6.557 -1.615 -6.941 -1.543 -7.339 -1.651 M 10.702 -0.907 L 10.479 -0.667 C 10.503 -0.655 10.555 -0.635 10.625 -0.615 C 10.803 -0.56 10.955 -0.564 11.032 -0.646 C 11.11 -0.731 11.035 -0.815 10.841 -0.875 C 10.786 -0.89 10.741 -0.902 10.702 -0.907 M 11.215 -0.755 C 11.247 -0.704 11.241 -0.649 11.188 -0.594 C 11.139 -0.538 11.056 -0.505 10.959 -0.496 C 10.855 -0.487 10.723 -0.503 10.564 -0.552 C 10.434 -0.591 10.337 -0.628 10.265 -0.658 L 10.829 -1.271 L 10.991 -1.222 L 10.762 -0.973 C 10.803 -0.967 10.849 -0.955 10.897 -0.94 C 11.054 -0.892 11.171 -0.827 11.215 -0.755 M 8.15 -2.087 L 7.516 -1.402 L 8.973 -0.955 L 9.607 -1.639 Z M 7.254 -1.332 L 8.106 -2.251 L 9.869 -1.709 L 9.017 -0.791 Z M 7.168 -1.03 L 6.533 -0.344 L 7.99 0.103 L 8.625 -0.582 Z M 6.271 -0.273 L 7.124 -1.194 L 8.886 -0.652 L 8.034 0.267 Z M 2.301 0.855 L 2.516 0.914 L 2.815 0.535 C 2.881 0.454 2.955 0.398 3.056 0.381 C 3.145 0.363 3.253 0.37 3.37 0.402 C 3.467 0.429 3.54 0.457 3.58 0.48 L 3.493 0.572 C 3.464 0.559 3.42 0.542 3.355 0.524 C 3.214 0.485 3.127 0.521 3.059 0.606 L 2.762 0.98 L 3.121 1.079 L 3.044 1.176 L 2.684 1.077 L 2.526 1.276 L 2.306 1.176 L 2.439 1.01 L 2.226 0.951 Z M -10.188 -2.793 C -10.237 -2.7 -10.219 -2.552 -9.964 -2.482 C -9.683 -2.404 -9.515 -2.511 -9.453 -2.592 Z M -9.186 -2.556 C -9.287 -2.429 -9.565 -2.263 -10.018 -2.386 C -10.419 -2.497 -10.535 -2.729 -10.368 -2.938 C -10.201 -3.148 -9.835 -3.218 -9.41 -3.101 C -9.19 -3.042 -9.056 -2.977 -8.983 -2.933 L -9.099 -2.854 C -9.176 -2.899 -9.273 -2.946 -9.453 -2.996 C -9.704 -3.063 -9.977 -3.053 -10.119 -2.884 L -9.147 -2.618 C -9.155 -2.604 -9.165 -2.582 -9.186 -2.556 M 10.956 0.524 L 10.45 0.75 L 10.249 0.684 L 10.778 0.048 L 10.929 0.098 L 10.698 0.369 C 10.617 0.463 10.523 0.568 10.449 0.645 L 10.452 0.646 C 10.561 0.586 10.688 0.523 10.833 0.457 L 11.326 0.234 L 11.444 0.272 L 11.364 0.638 C 11.339 0.742 11.314 0.835 11.283 0.919 L 11.288 0.921 C 11.365 0.845 11.478 0.747 11.573 0.665 L 11.874 0.408 L 12.029 0.459 L 11.336 1.041 L 11.135 0.975 L 11.216 0.61 C 11.237 0.516 11.263 0.434 11.292 0.363 L 11.287 0.361 C 11.193 0.414 11.084 0.467 10.956 0.524 M 10.051 0.145 L 9.682 0.024 L 9.623 0.239 C 9.608 0.285 9.593 0.328 9.573 0.369 L 9.576 0.37 C 9.632 0.341 9.686 0.311 9.752 0.282 Z M 9.414 0.409 L 9.613 -0.335 L 9.776 -0.281 L 9.71 -0.048 L 10.146 0.095 L 10.47 -0.053 L 10.638 0.002 L 9.604 0.471 Z M 3.543 -5.206 L 2.118 -5.598 L 2.203 -5.704 L 2.788 -5.543 L 3.471 -6.403 L 3.723 -6.334 L 3.041 -5.474 L 3.627 -5.312 Z M 1.147 -6.176 C 0.919 -6.238 0.811 -6.346 0.795 -6.431 L 0.789 -6.433 L 0.685 -6.321 L 0.462 -6.383 C 0.515 -6.438 0.565 -6.497 0.623 -6.567 L 1.024 -7.074 L 1.275 -7.005 L 0.944 -6.588 C 0.926 -6.566 0.916 -6.543 0.915 -6.524 C 0.902 -6.442 0.983 -6.349 1.149 -6.303 C 1.385 -6.238 1.543 -6.308 1.633 -6.421 L 1.949 -6.82 L 2.201 -6.751 L 1.873 -6.337 C 1.683 -6.099 1.339 -6.124 1.147 -6.176 M -1.512 -6.924 L -1.763 -6.993 L -1.211 -7.687 L -0.96 -7.619 Z M 0.041 -9.514 C 0.314 -9.433 0.543 -9.536 0.638 -9.645 C 0.765 -9.787 0.692 -9.938 0.471 -10.004 C 0.247 -10.071 -0.007 -10.015 -0.13 -9.876 C -0.238 -9.755 -0.231 -9.595 0.041 -9.514 M 0.539 -10.093 C 0.844 -10.003 1.08 -9.804 0.871 -9.569 C 0.699 -9.375 0.334 -9.317 -0.031 -9.425 C -0.381 -9.53 -0.548 -9.737 -0.36 -9.95 C -0.182 -10.149 0.195 -10.195 0.539 -10.093 M -0.452 -6.729 C -0.155 -6.649 0.081 -6.766 0.173 -6.883 C 0.298 -7.039 0.208 -7.202 -0.032 -7.268 C -0.277 -7.335 -0.542 -7.269 -0.664 -7.116 C -0.769 -6.984 -0.75 -6.812 -0.452 -6.729 M 0.032 -7.365 C 0.367 -7.274 0.632 -7.064 0.427 -6.808 C 0.259 -6.596 -0.125 -6.524 -0.523 -6.633 C -0.905 -6.739 -1.099 -6.958 -0.915 -7.19 C -0.74 -7.409 -0.342 -7.468 0.032 -7.365 M -10.805 -3.419 C -10.718 -3.438 -10.609 -3.431 -10.492 -3.398 C -10.395 -3.372 -10.322 -3.344 -10.283 -3.321 L -10.37 -3.229 C -10.397 -3.241 -10.441 -3.259 -10.508 -3.277 C -10.647 -3.316 -10.735 -3.281 -10.803 -3.194 L -11.101 -2.82 L -10.742 -2.722 L -10.818 -2.625 L -11.178 -2.724 L -11.336 -2.524 L -11.556 -2.625 L -11.423 -2.791 L -11.637 -2.85 L -11.562 -2.946 L -11.347 -2.887 L -11.046 -3.266 C -10.981 -3.347 -10.907 -3.401 -10.805 -3.419 M -11.847 -3.321 L -11.751 -3.441 C -11.741 -3.455 -11.735 -3.47 -11.733 -3.486 C -11.727 -3.556 -11.795 -3.644 -11.975 -3.693 C -12.104 -3.729 -12.243 -3.72 -12.308 -3.639 C -12.416 -3.503 -12.124 -3.393 -11.847 -3.321 M -12.548 -3.721 C -12.468 -3.821 -12.248 -3.882 -11.968 -3.805 C -11.77 -3.751 -11.659 -3.661 -11.626 -3.586 L -11.618 -3.583 L -11.528 -3.665 L -11.3 -3.603 C -11.354 -3.56 -11.407 -3.502 -11.455 -3.443 L -11.661 -3.183 C -11.771 -3.044 -11.99 -2.928 -12.413 -3.043 C -12.586 -3.091 -12.733 -3.161 -12.816 -3.229 L -12.694 -3.297 C -12.622 -3.238 -12.503 -3.181 -12.375 -3.147 C -12.092 -3.069 -11.979 -3.164 -11.934 -3.22 L -11.922 -3.235 C -12.457 -3.379 -12.681 -3.554 -12.548 -3.721 M 7.568 -4.525 C 7.85 -4.449 8.018 -4.554 8.079 -4.636 L 7.344 -4.836 C 7.295 -4.744 7.314 -4.596 7.568 -4.525 M 8.123 -5.145 C 8.343 -5.084 8.477 -5.02 8.549 -4.977 L 8.434 -4.897 C 8.356 -4.943 8.259 -4.989 8.079 -5.039 C 7.829 -5.107 7.556 -5.097 7.414 -4.928 L 8.385 -4.662 C 8.378 -4.648 8.367 -4.626 8.347 -4.6 C 8.246 -4.473 7.967 -4.306 7.515 -4.43 C 7.112 -4.541 6.998 -4.773 7.165 -4.982 C 7.331 -5.192 7.697 -5.262 8.123 -5.145 M 3.958 -5.282 C 4.057 -5.254 4.092 -5.203 4.056 -5.161 C 4.02 -5.116 3.933 -5.098 3.838 -5.124 C 3.747 -5.149 3.709 -5.202 3.745 -5.246 C 3.778 -5.289 3.869 -5.306 3.958 -5.282 M 2.958 -8.64 C 3.217 -8.563 3.381 -8.658 3.442 -8.731 L 2.77 -8.933 C 2.717 -8.848 2.723 -8.709 2.958 -8.64 M 3.518 -9.205 C 3.721 -9.144 3.84 -9.082 3.905 -9.039 L 3.793 -8.969 C 3.723 -9.013 3.637 -9.057 3.471 -9.106 C 3.24 -9.175 2.984 -9.17 2.84 -9.016 L 3.731 -8.75 C 3.723 -8.738 3.712 -8.718 3.692 -8.695 C 3.589 -8.578 3.316 -8.428 2.902 -8.552 C 2.533 -8.663 2.441 -8.88 2.611 -9.07 C 2.781 -9.262 3.128 -9.32 3.518 -9.205 M 4.111 -8.343 C 4.065 -8.295 3.975 -8.28 3.883 -8.307 C 3.792 -8.334 3.755 -8.387 3.799 -8.436 C 3.84 -8.481 3.934 -8.498 4.025 -8.471 C 4.122 -8.442 4.151 -8.388 4.111 -8.343 M 3.235 1.561 C 3.144 1.536 3.105 1.483 3.141 1.439 C 3.174 1.396 3.264 1.378 3.354 1.403 C 3.453 1.431 3.488 1.482 3.452 1.525 C 3.417 1.569 3.33 1.587 3.235 1.561 M -14.155 1.538 C -14.287 1.502 -14.365 1.46 -14.423 1.406 C -14.462 1.369 -14.494 1.324 -14.504 1.274 L -14.511 1.272 C -14.636 1.337 -14.824 1.355 -15.013 1.304 C -15.241 1.241 -15.32 1.145 -15.345 1.056 L -15.354 1.054 L -15.454 1.164 L -15.674 1.103 C -15.62 1.047 -15.57 0.99 -15.514 0.918 L -15.11 0.412 L -14.866 0.479 L -15.198 0.897 C -15.216 0.919 -15.227 0.943 -15.227 0.965 C -15.238 1.04 -15.173 1.134 -15.016 1.177 C -14.824 1.229 -14.664 1.175 -14.576 1.065 L -14.246 0.65 L -14 0.716 L -14.34 1.146 C -14.359 1.168 -14.369 1.193 -14.371 1.213 C -14.378 1.287 -14.308 1.371 -14.166 1.41 C -13.963 1.465 -13.801 1.412 -13.695 1.279 L -13.383 0.886 L -13.138 0.953 L -13.462 1.362 C -13.654 1.603 -13.972 1.588 -14.155 1.538 M -8.907 3.29 L -9.155 3.222 L -8.387 2.256 L -8.138 2.324 Z M -11.952 1.706 C -11.826 1.546 -11.893 1.395 -12.16 1.323 C -12.338 1.273 -12.539 1.292 -12.653 1.367 C -12.671 1.38 -12.691 1.396 -12.706 1.416 L -12.8 1.535 C -12.813 1.551 -12.82 1.572 -12.823 1.59 C -12.851 1.699 -12.74 1.804 -12.568 1.851 C -12.303 1.923 -12.063 1.846 -11.952 1.706 M -12.572 1.973 C -12.797 1.911 -12.919 1.817 -12.956 1.703 L -12.96 1.702 L -13.067 1.818 L -13.293 1.755 C -13.235 1.691 -13.171 1.622 -13.101 1.533 L -12.503 0.781 L -12.255 0.849 L -12.555 1.225 L -12.55 1.228 C -12.413 1.181 -12.221 1.186 -12.038 1.236 C -11.712 1.326 -11.507 1.532 -11.706 1.781 C -11.873 1.992 -12.237 2.063 -12.572 1.973 M -10.618 2.148 C -10.667 2.241 -10.649 2.39 -10.395 2.46 C -10.113 2.537 -9.945 2.431 -9.883 2.349 Z M -9.616 2.385 C -9.717 2.512 -9.996 2.679 -10.447 2.556 C -10.85 2.444 -10.965 2.212 -10.798 2.003 C -10.631 1.793 -10.266 1.723 -9.84 1.84 C -9.621 1.9 -9.486 1.965 -9.414 2.008 L -9.529 2.088 C -9.606 2.042 -9.704 1.996 -9.883 1.946 C -10.134 1.878 -10.408 1.888 -10.549 2.057 L -9.578 2.324 C -9.586 2.337 -9.596 2.359 -9.616 2.385 M -17.554 -0.15 C -17.726 -0.197 -17.912 -0.212 -18.051 -0.209 L -18.03 -0.33 C -17.899 -0.337 -17.676 -0.308 -17.489 -0.258 C -17.036 -0.133 -16.917 0.056 -17.037 0.205 C -17.149 0.347 -17.378 0.38 -17.754 0.354 C -18.06 0.333 -18.213 0.345 -18.284 0.436 C -18.336 0.502 -18.3 0.608 -18.037 0.68 C -17.863 0.727 -17.711 0.734 -17.634 0.734 L -17.646 0.856 C -17.752 0.856 -17.913 0.84 -18.11 0.786 C -18.485 0.683 -18.644 0.503 -18.524 0.353 C -18.416 0.217 -18.156 0.188 -17.798 0.218 C -17.498 0.239 -17.354 0.216 -17.283 0.126 C -17.205 0.029 -17.3 -0.08 -17.554 -0.15 M -11.915 2.529 L -11.105 1.511 L -10.854 1.579 L -11.664 2.598 Z M 24.88 8.079 L 26.336 8.526 L 26.971 7.841 L 25.515 7.394 Z M 26.38 8.69 L 24.619 8.149 L 25.471 7.229 L 27.232 7.771 Z M 41.11 2.22 L 40.54 2.033 L 40.538 2.035 L 40.667 2.467 C 40.675 2.523 40.681 2.574 40.684 2.642 L 40.691 2.645 C 40.731 2.598 40.775 2.552 40.82 2.507 Z M 29.023 8.439 C 23.875 10.843 16.65 11.25 16.578 11.254 C 16.455 11.249 16.357 11.169 16.351 11.05 C 16.345 10.932 16.436 10.83 16.555 10.824 C 16.626 10.82 23.768 10.417 28.84 8.049 C 30.14 7.442 31.498 6.88 32.935 6.285 C 35.182 5.355 37.725 4.299 40.692 2.795 L 40.537 2.744 L 40.317 1.94 L 40.396 1.863 L 41.131 2.104 C 41.157 2.208 41.179 2.314 41.205 2.418 L 40.962 2.658 C 41.048 2.614 41.142 2.562 41.228 2.517 C 41.263 2.66 41.296 2.804 41.33 2.948 C 38.163 4.578 35.464 5.705 33.1 6.683 C 31.667 7.276 30.313 7.837 29.023 8.439 M 32.214 0.214 C 32.226 0.208 32.237 0.199 32.246 0.192 L 32.3 0.136 C 32.31 0.127 32.316 0.12 32.319 0.11 C 32.342 0.061 32.297 0.011 32.219 -0.014 C 32.093 -0.055 31.977 -0.023 31.911 0.04 C 31.841 0.111 31.858 0.187 31.979 0.225 C 32.067 0.254 32.16 0.246 32.214 0.214 M 31.911 0.264 C 31.755 0.212 31.69 0.105 31.797 -0.001 C 31.894 -0.097 32.079 -0.123 32.232 -0.072 C 32.338 -0.037 32.388 0.015 32.388 0.062 L 32.391 0.062 L 32.451 0.01 L 32.556 0.043 C 32.53 0.064 32.496 0.095 32.467 0.124 L 32.081 0.506 L 31.964 0.469 L 32.156 0.279 L 32.154 0.279 C 32.098 0.295 32.009 0.296 31.911 0.264 M 30.528 -0.209 C 30.341 -0.27 30.199 -0.361 30.14 -0.425 L 30.288 -0.489 C 30.337 -0.438 30.439 -0.364 30.579 -0.318 C 30.794 -0.246 30.945 -0.279 31.014 -0.348 C 31.118 -0.451 30.945 -0.565 30.773 -0.622 L 30.643 -0.664 L 30.731 -0.751 L 30.862 -0.708 C 31.09 -0.635 31.362 -0.614 31.485 -0.733 C 31.562 -0.803 31.564 -0.931 31.262 -1.029 C 31.098 -1.083 30.91 -1.1 30.821 -1.102 L 30.848 -1.213 C 30.962 -1.213 31.163 -1.187 31.36 -1.123 C 31.777 -0.986 31.872 -0.794 31.733 -0.657 C 31.61 -0.535 31.357 -0.513 31.12 -0.562 L 31.118 -0.56 C 31.293 -0.451 31.324 -0.34 31.234 -0.251 C 31.128 -0.146 30.872 -0.097 30.528 -0.209 M 31.625 0.095 L 31.57 0.149 C 31.559 0.147 31.548 0.145 31.534 0.14 C 31.458 0.115 31.415 0.065 31.429 0.013 L 31.423 0.011 L 31.357 0.072 L 31.255 0.039 C 31.289 0.011 31.322 -0.021 31.36 -0.058 L 31.58 -0.275 L 31.694 -0.239 L 31.523 -0.069 C 31.515 -0.059 31.508 -0.049 31.503 -0.041 C 31.475 0.008 31.502 0.057 31.584 0.084 C 31.6 0.089 31.612 0.093 31.625 0.095 M 3.327 1.253 L 3.879 0.559 L 4.129 0.627 L 3.578 1.322 Z M -1.95 -10.102 C -1.692 -10.025 -1.527 -10.12 -1.463 -10.193 L -2.137 -10.394 C -2.191 -10.31 -2.185 -10.171 -1.95 -10.102 M -1.39 -10.667 C -1.187 -10.606 -1.067 -10.543 -1.001 -10.502 L -1.114 -10.431 C -1.185 -10.474 -1.271 -10.52 -1.437 -10.567 C -1.667 -10.637 -1.923 -10.632 -2.067 -10.478 L -1.177 -10.212 C -1.185 -10.2 -1.195 -10.181 -1.215 -10.157 C -1.319 -10.04 -1.591 -9.891 -2.006 -10.015 C -2.375 -10.125 -2.466 -10.342 -2.297 -10.532 C -2.126 -10.724 -1.78 -10.782 -1.39 -10.667 M -1.296 0.38 L -0.487 -0.637 L -0.236 -0.57 L -1.046 0.449 Z M 5.058 0.979 C 4.812 0.91 4.548 0.977 4.426 1.13 C 4.321 1.262 4.34 1.435 4.638 1.515 C 4.934 1.597 5.17 1.48 5.263 1.363 C 5.389 1.207 5.298 1.044 5.058 0.979 M 4.567 1.613 C 4.186 1.507 3.991 1.289 4.175 1.055 C 4.35 0.837 4.749 0.778 5.122 0.88 C 5.456 0.972 5.722 1.181 5.518 1.438 C 5.349 1.649 4.966 1.721 4.567 1.613 M -16.041 0.589 L -15.944 0.469 C -15.935 0.456 -15.929 0.44 -15.927 0.424 C -15.92 0.354 -15.989 0.265 -16.169 0.216 C -16.297 0.181 -16.436 0.189 -16.502 0.271 C -16.609 0.406 -16.317 0.516 -16.041 0.589 M -16.742 0.188 C -16.661 0.088 -16.441 0.028 -16.161 0.105 C -15.964 0.159 -15.854 0.249 -15.82 0.324 L -15.811 0.327 L -15.722 0.245 L -15.493 0.307 C -15.548 0.349 -15.601 0.407 -15.648 0.467 L -15.854 0.727 C -15.965 0.865 -16.183 0.982 -16.606 0.866 C -16.779 0.818 -16.927 0.749 -17.01 0.68 L -16.888 0.614 C -16.815 0.671 -16.697 0.728 -16.569 0.763 C -16.286 0.841 -16.172 0.746 -16.128 0.689 L -16.115 0.675 C -16.65 0.53 -16.875 0.355 -16.742 0.188 M 6.238 2.07 C 6.01 2.008 5.902 1.9 5.885 1.815 L 5.88 1.813 L 5.775 1.924 L 5.552 1.863 C 5.605 1.807 5.654 1.75 5.712 1.678 L 6.114 1.172 L 6.366 1.241 L 6.034 1.659 C 6.016 1.679 6.005 1.703 6.004 1.721 C 5.992 1.804 6.073 1.897 6.239 1.944 C 6.476 2.008 6.632 1.938 6.722 1.826 L 7.04 1.427 L 7.29 1.494 L 6.961 1.909 C 6.772 2.147 6.43 2.123 6.238 2.07 M -1.97 0.196 L -1.161 -0.823 L -0.91 -0.754 L -1.719 0.265 Z M 5.922 8.879 C 6.222 9.132 6.489 9.355 6.658 9.489 C 6.746 9.56 6.759 9.684 6.697 9.777 C 6.741 9.765 6.785 9.75 6.829 9.741 L 7.569 9.591 C 7.692 9.567 7.815 9.542 7.94 9.525 L 8.048 9.514 Z M -8.31 -0.19 L -4.82 4.979 C -4.834 4.3 -4.609 3.616 -4.042 3.201 C -3.8 3.024 -3.513 2.911 -3.186 2.863 C -3.048 2.843 -2.908 2.835 -2.768 2.833 Z M -7.277 2.672 C -7.375 2.645 -7.467 2.621 -7.535 2.609 L -8.141 3.373 C -8.081 3.397 -7.989 3.43 -7.86 3.465 C -7.334 3.609 -6.962 3.536 -6.784 3.306 C -6.576 3.045 -6.747 2.816 -7.277 2.672 M 14.038 10.888 C 13.126 10.572 12.195 10.323 11.241 10.181 C 11.004 10.135 10.764 10.121 10.524 10.089 L 10.165 10.044 C 10.045 10.035 9.925 10.033 9.803 10.025 L 9.079 9.982 C 8.837 9.986 8.593 9.987 8.35 9.986 L 7.984 9.985 C 7.863 9.988 7.742 10.003 7.619 10.008 L 6.885 10.051 C 6.761 10.052 6.639 10.066 6.518 10.083 C 6.395 10.097 6.273 10.113 6.15 10.125 C 5.903 10.15 5.656 10.176 5.406 10.192 C 5.638 10.107 5.873 10.028 6.11 9.952 C 6.223 9.913 6.337 9.88 6.451 9.845 C 6.431 9.837 6.408 9.841 6.39 9.827 C 5.947 9.475 4.961 8.63 4.008 7.812 C 3.149 7.076 2.338 6.381 2.01 6.12 L -0.719 3.95 L -1.552 3.496 C -2.06 3.302 -2.615 3.214 -3.123 3.29 C -3.38 3.327 -3.603 3.414 -3.787 3.549 C -4.479 4.056 -4.526 5.165 -4.171 5.944 C -4.013 6.294 -3.711 6.536 -3.391 6.791 L 2.913 11.946 C 3.005 12.021 3.02 12.156 2.945 12.249 C 2.87 12.341 2.733 12.354 2.642 12.281 L -3.66 7.127 C -3.996 6.859 -4.34 6.58 -4.544 6.157 C -4.545 6.156 -4.546 6.156 -4.547 6.155 L -4.97 5.528 C -8.242 4.433 -11.495 3.506 -14.938 2.525 C -16.437 2.098 -17.944 1.668 -19.458 1.223 C -19.534 1.201 -19.577 1.121 -19.555 1.045 C -19.536 0.982 -19.479 0.942 -19.417 0.942 C -19.404 0.942 -19.39 0.944 -19.376 0.948 C -17.864 1.393 -16.358 1.822 -14.86 2.249 C -11.68 3.155 -8.401 4.097 -5.227 5.147 L -6.486 3.283 C -6.501 3.316 -6.501 3.348 -6.527 3.381 C -6.652 3.538 -6.841 3.623 -7.075 3.655 C -7.305 3.687 -7.593 3.659 -7.95 3.561 C -8.146 3.507 -8.319 3.449 -8.462 3.396 L -7.707 2.446 C -7.575 2.473 -7.423 2.509 -7.246 2.558 C -7.103 2.597 -6.993 2.644 -6.886 2.69 L -9.163 -0.682 C -9.195 -0.73 -9.199 -0.786 -9.189 -0.84 L -15.388 -2.673 C -15.502 -2.707 -15.567 -2.827 -15.533 -2.941 C -15.505 -3.035 -15.42 -3.095 -15.327 -3.095 C -15.307 -3.095 -15.286 -3.093 -15.266 -3.086 L -1.467 0.994 C -1.465 0.995 -1.462 0.996 -1.46 0.997 L 8.611 3.975 C 8.725 4.009 8.79 4.128 8.756 4.243 C 8.723 4.356 8.605 4.424 8.489 4.388 L -1.195 1.524 L -0.789 2.793 C -0.752 2.907 -0.814 3.028 -0.928 3.064 C -1.042 3.103 -1.163 3.039 -1.199 2.925 L -1.695 1.376 L -7.908 -0.461 L -1.454 3.059 C -1.097 3.189 -0.759 3.368 -0.468 3.599 L 2.278 5.782 C 2.613 6.048 3.427 6.747 4.289 7.485 C 4.629 7.777 4.965 8.065 5.287 8.34 C 5.325 8.309 5.371 8.289 5.421 8.289 C 5.442 8.289 5.462 8.292 5.483 8.298 L 9.231 9.418 C 9.432 9.417 9.633 9.418 9.833 9.419 C 9.96 9.42 10.087 9.42 10.214 9.425 L 10.593 9.461 L 10.974 9.499 C 11.099 9.513 11.227 9.522 11.35 9.548 L 12.1 9.691 C 12.346 9.749 12.589 9.821 12.833 9.889 C 13.079 9.951 13.313 10.051 13.551 10.135 C 13.79 10.215 14.017 10.326 14.245 10.433 C 15.152 10.858 16.007 11.409 16.668 12.13 C 15.83 11.613 14.945 11.214 14.038 10.888 M -13.759 -4.166 C -13.857 -4.192 -13.949 -4.215 -14.018 -4.227 L -14.624 -3.464 C -14.563 -3.44 -14.471 -3.407 -14.343 -3.372 C -13.816 -3.227 -13.444 -3.302 -13.266 -3.531 C -13.058 -3.792 -13.229 -4.02 -13.759 -4.166 M -14.432 -3.275 C -14.629 -3.331 -14.802 -3.388 -14.944 -3.441 L -14.189 -4.391 C -14.057 -4.363 -13.906 -4.329 -13.729 -4.279 C -13.355 -4.177 -13.097 -4.046 -12.988 -3.907 C -12.879 -3.769 -12.885 -3.613 -13.009 -3.455 C -13.134 -3.299 -13.323 -3.214 -13.557 -3.181 C -13.788 -3.15 -14.075 -3.177 -14.432 -3.275 M 16.474 5.607 L 17.109 4.923 L 15.651 4.475 L 15.018 5.159 Z M 17.371 4.853 L 16.518 5.771 L 14.756 5.229 L 15.607 4.311 Z M 15.044 6.458 L 14.675 6.921 L 14.041 6.748 L 14.121 6.647 L 14.512 6.754 L 14.74 6.466 C 14.695 6.437 14.592 6.394 14.429 6.35 C 13.981 6.227 13.572 6.292 13.377 6.536 C 13.185 6.778 13.374 7.009 13.842 7.137 C 14.038 7.189 14.18 7.207 14.302 7.211 L 14.28 7.33 C 14.181 7.327 13.988 7.304 13.765 7.243 C 13.12 7.066 12.892 6.748 13.119 6.458 C 13.239 6.307 13.444 6.207 13.673 6.172 C 13.934 6.134 14.203 6.162 14.494 6.242 C 14.754 6.313 14.948 6.407 15.044 6.458 M 15.276 6.973 C 15.228 7.065 15.246 7.214 15.499 7.284 C 15.781 7.361 15.95 7.255 16.011 7.174 Z M 16.279 7.21 C 16.177 7.336 15.899 7.502 15.447 7.38 C 15.044 7.269 14.93 7.037 15.097 6.827 C 15.263 6.618 15.628 6.547 16.055 6.665 C 16.274 6.725 16.408 6.79 16.48 6.833 L 16.366 6.912 C 16.287 6.866 16.19 6.82 16.011 6.771 C 15.761 6.702 15.487 6.712 15.346 6.882 L 16.317 7.148 C 16.308 7.162 16.298 7.184 16.279 7.21 M -2.217 -1.016 C -2.462 -1.084 -2.728 -1.017 -2.85 -0.865 C -2.954 -0.733 -2.935 -0.56 -2.637 -0.479 C -2.341 -0.397 -2.105 -0.514 -2.012 -0.632 C -1.887 -0.788 -1.977 -0.951 -2.217 -1.016 M -2.708 -0.382 C -3.09 -0.488 -3.284 -0.706 -3.1 -0.939 C -2.925 -1.157 -2.527 -1.217 -2.153 -1.115 C -1.819 -1.023 -1.554 -0.813 -1.758 -0.557 C -1.926 -0.344 -2.31 -0.274 -2.708 -0.382 M 11.967 -0.513 L 11.479 -0.278 L 11.274 -0.341 L 11.758 -0.987 L 11.911 -0.94 L 11.7 -0.665 C 11.625 -0.568 11.539 -0.461 11.472 -0.383 L 11.475 -0.382 C 11.578 -0.445 11.703 -0.509 11.841 -0.579 L 12.315 -0.813 L 12.437 -0.776 L 12.379 -0.408 C 12.364 -0.303 12.344 -0.209 12.319 -0.124 L 12.325 -0.123 C 12.395 -0.199 12.501 -0.301 12.591 -0.384 L 12.873 -0.647 L 13.029 -0.6 L 12.38 -0.002 L 12.176 -0.064 L 12.23 -0.434 C 12.246 -0.528 12.265 -0.61 12.291 -0.682 L 12.286 -0.684 C 12.194 -0.628 12.09 -0.574 11.967 -0.513 M 4.181 -5.363 L 3.931 -5.432 L 4.482 -6.125 L 4.733 -6.057 Z M 19.041 8.066 C 19.062 8.053 19.081 8.031 19.094 8.016 L 19.189 7.896 C 19.205 7.875 19.216 7.857 19.22 7.838 C 19.25 7.73 19.141 7.633 18.972 7.586 C 18.701 7.513 18.471 7.59 18.36 7.73 C 18.238 7.885 18.301 8.042 18.561 8.113 C 18.749 8.165 18.938 8.137 19.041 8.066 M 18.433 8.198 C 18.097 8.106 17.923 7.885 18.111 7.656 C 18.277 7.445 18.647 7.373 18.982 7.466 C 19.207 7.526 19.329 7.632 19.344 7.73 L 19.351 7.731 L 19.458 7.615 L 19.683 7.676 C 19.637 7.722 19.578 7.792 19.529 7.852 L 18.863 8.691 L 18.612 8.623 L 18.94 8.208 L 18.935 8.207 C 18.828 8.245 18.646 8.257 18.433 8.198 M 6.096 -4.945 C 6.298 -4.889 6.46 -4.943 6.566 -5.077 L 6.879 -5.469 L 7.124 -5.402 L 6.799 -4.994 C 6.607 -4.752 6.289 -4.767 6.105 -4.817 C 5.974 -4.853 5.896 -4.894 5.838 -4.949 C 5.798 -4.986 5.768 -5.031 5.757 -5.081 L 5.75 -5.083 C 5.625 -5.018 5.437 -5 5.249 -5.051 C 5.021 -5.114 4.941 -5.21 4.916 -5.299 L 4.907 -5.301 L 4.807 -5.191 L 4.587 -5.251 C 4.641 -5.308 4.692 -5.366 4.749 -5.437 L 5.15 -5.942 L 5.396 -5.876 L 5.064 -5.457 C 5.046 -5.436 5.035 -5.413 5.035 -5.39 C 5.024 -5.315 5.088 -5.221 5.246 -5.178 C 5.437 -5.125 5.597 -5.179 5.686 -5.29 L 6.015 -5.706 L 6.261 -5.638 L 5.921 -5.209 C 5.902 -5.187 5.892 -5.162 5.891 -5.142 C 5.884 -5.067 5.953 -4.984 6.096 -4.945 M 4.294 -8.768 C 4.203 -8.796 4.167 -8.85 4.211 -8.897 C 4.251 -8.942 4.345 -8.96 4.437 -8.933 C 4.534 -8.903 4.563 -8.851 4.522 -8.805 C 4.476 -8.756 4.386 -8.741 4.294 -8.768 M 1.549 -9.075 C 1.765 -9.011 1.919 -9.073 2.008 -9.176 L 2.333 -9.541 L 2.563 -9.472 L 2.227 -9.094 C 2.035 -8.877 1.715 -8.906 1.54 -8.958 C 1.33 -9.021 1.236 -9.124 1.227 -9.202 L 1.22 -9.204 L 1.114 -9.103 L 0.911 -9.164 C 0.965 -9.213 1.016 -9.266 1.073 -9.332 L 1.484 -9.794 L 1.714 -9.725 L 1.377 -9.345 C 1.358 -9.324 1.346 -9.304 1.344 -9.286 C 1.327 -9.211 1.396 -9.122 1.549 -9.075 M 14.19 -1.308 C 14.157 -1.193 14.036 -1.124 13.924 -1.16 L -10.601 -8.149 C -10.715 -8.182 -10.781 -8.301 -10.749 -8.416 C -10.722 -8.51 -10.635 -8.572 -10.542 -8.572 C -10.522 -8.572 -10.502 -8.569 -10.482 -8.563 L 14.042 -1.574 C 14.156 -1.542 14.223 -1.422 14.19 -1.308 M 22.221 -3.014 L 22.031 -2.825 C 21.921 -2.715 21.757 -2.735 21.668 -2.764 C 21.563 -2.798 21.519 -2.852 21.518 -2.892 L 21.515 -2.892 L 21.456 -2.843 L 21.353 -2.877 C 21.383 -2.902 21.412 -2.929 21.444 -2.961 L 21.677 -3.191 L 21.793 -3.154 L 21.602 -2.963 C 21.591 -2.953 21.584 -2.943 21.583 -2.934 C 21.57 -2.895 21.602 -2.85 21.678 -2.824 C 21.788 -2.789 21.869 -2.818 21.922 -2.869 L 22.106 -3.051 Z M 20.707 6.429 L 20.804 6.33 C 20.816 6.318 20.822 6.306 20.826 6.292 C 20.839 6.233 20.79 6.155 20.64 6.107 C 20.532 6.072 20.41 6.076 20.342 6.143 C 20.234 6.255 20.474 6.357 20.707 6.429 M 20.145 6.063 C 20.226 5.981 20.425 5.937 20.659 6.012 C 20.825 6.064 20.911 6.145 20.93 6.21 L 20.937 6.213 L 21.025 6.146 L 21.217 6.208 C 21.164 6.242 21.111 6.289 21.063 6.339 L 20.852 6.554 C 20.74 6.669 20.536 6.762 20.181 6.649 C 20.037 6.603 19.917 6.538 19.852 6.476 L 19.967 6.421 C 20.023 6.474 20.12 6.526 20.226 6.561 C 20.463 6.636 20.573 6.56 20.619 6.513 L 20.632 6.5 C 20.182 6.358 20.008 6.203 20.145 6.063 M -9.232 -8.817 C -9.072 -8.773 -8.925 -8.754 -8.812 -8.751 L -8.833 -8.633 C -8.913 -8.634 -9.084 -8.649 -9.324 -8.715 C -9.921 -8.879 -10.166 -9.195 -9.926 -9.498 C -9.674 -9.815 -9.128 -9.876 -8.586 -9.726 C -8.352 -9.663 -8.188 -9.589 -8.114 -9.542 L -8.245 -9.457 C -8.325 -9.508 -8.466 -9.565 -8.618 -9.608 C -9.086 -9.736 -9.479 -9.658 -9.667 -9.421 C -9.869 -9.168 -9.684 -8.941 -9.232 -8.817 M 17.017 7.81 C 16.789 7.748 16.68 7.64 16.664 7.554 L 16.658 7.552 L 16.554 7.665 L 16.331 7.603 C 16.384 7.547 16.435 7.489 16.491 7.417 L 16.894 6.911 L 17.144 6.98 L 16.813 7.397 C 16.795 7.418 16.784 7.442 16.782 7.461 C 16.771 7.544 16.853 7.637 17.018 7.683 C 17.255 7.748 17.412 7.677 17.501 7.564 L 17.819 7.166 L 18.07 7.233 L 17.741 7.648 C 17.551 7.886 17.21 7.862 17.017 7.81 M 22.042 7.146 C 22.279 7.221 22.437 7.136 22.5 7.068 L 21.885 6.872 C 21.831 6.95 21.829 7.077 22.042 7.146 M 21.745 6.741 C 21.916 6.567 22.242 6.52 22.599 6.634 C 22.783 6.692 22.891 6.752 22.949 6.793 L 22.839 6.856 C 22.778 6.813 22.699 6.772 22.548 6.724 C 22.338 6.656 22.098 6.657 21.956 6.797 L 22.769 7.056 C 22.76 7.068 22.75 7.086 22.729 7.107 C 22.625 7.213 22.363 7.346 21.985 7.225 C 21.648 7.117 21.576 6.915 21.745 6.741 M 19.468 6.109 L 19.854 5.771 L 20.058 5.837 L 19.173 6.605 L 18.907 6.52 L 18.999 6.041 C 19.026 5.917 19.056 5.812 19.093 5.717 L 19.086 5.714 C 18.964 5.784 18.824 5.854 18.66 5.932 L 18.005 6.231 L 17.74 6.146 L 18.411 5.31 L 18.609 5.374 L 18.317 5.729 C 18.213 5.854 18.094 5.993 18.002 6.094 L 18.006 6.096 C 18.145 6.015 18.311 5.933 18.498 5.844 L 19.13 5.547 L 19.29 5.597 L 19.194 6.076 C 19.167 6.212 19.136 6.334 19.101 6.445 L 19.107 6.448 C 19.203 6.347 19.347 6.217 19.468 6.109 M 22.391 -2.587 C 22.478 -2.558 22.572 -2.567 22.626 -2.598 C 22.637 -2.605 22.649 -2.614 22.657 -2.621 L 22.711 -2.677 C 22.721 -2.685 22.728 -2.693 22.731 -2.703 C 22.754 -2.752 22.709 -2.801 22.631 -2.827 C 22.505 -2.869 22.388 -2.836 22.324 -2.772 C 22.253 -2.702 22.271 -2.626 22.391 -2.587 M 22.645 -2.885 C 22.75 -2.85 22.799 -2.798 22.799 -2.751 L 22.802 -2.75 L 22.863 -2.804 L 22.967 -2.769 C 22.942 -2.749 22.907 -2.717 22.88 -2.688 L 22.492 -2.306 L 22.377 -2.344 L 22.568 -2.534 L 22.566 -2.534 C 22.51 -2.518 22.422 -2.517 22.324 -2.549 C 22.167 -2.601 22.102 -2.708 22.208 -2.814 C 22.305 -2.909 22.49 -2.935 22.645 -2.885 M 21.646 8.934 C 21.68 8.944 21.708 8.949 21.736 8.954 L 21.641 9.071 C 21.615 9.068 21.594 9.065 21.566 9.057 C 21.397 9.011 21.292 8.91 21.305 8.8 L 21.292 8.797 L 21.176 8.931 L 20.955 8.87 C 21.015 8.809 21.075 8.738 21.139 8.657 L 21.518 8.18 L 21.768 8.248 L 21.473 8.619 C 21.456 8.639 21.446 8.661 21.437 8.68 C 21.397 8.785 21.469 8.886 21.646 8.934 M 12.517 -5.76 C 12.47 -5.713 12.385 -5.704 12.253 -5.719 C 12.154 -5.73 12.104 -5.731 12.077 -5.705 C 12.054 -5.681 12.071 -5.649 12.141 -5.627 C 12.2 -5.608 12.256 -5.602 12.29 -5.602 L 12.277 -5.551 C 12.23 -5.552 12.163 -5.562 12.1 -5.583 C 11.962 -5.628 11.921 -5.697 11.974 -5.748 C 12.011 -5.787 12.098 -5.8 12.232 -5.782 C 12.334 -5.769 12.383 -5.774 12.41 -5.802 C 12.436 -5.828 12.418 -5.862 12.333 -5.89 C 12.275 -5.909 12.203 -5.917 12.157 -5.917 L 12.172 -5.97 C 12.231 -5.968 12.304 -5.956 12.374 -5.932 C 12.525 -5.883 12.573 -5.815 12.517 -5.76 M 21.747 6.377 L 20.923 7.22 L 20.712 7.153 L 21.537 6.31 Z M 12.809 -5.758 C 12.853 -5.765 12.905 -5.759 12.958 -5.741 C 13.003 -5.727 13.037 -5.711 13.054 -5.699 L 13.005 -5.658 C 12.992 -5.665 12.972 -5.674 12.942 -5.685 C 12.877 -5.706 12.831 -5.689 12.792 -5.651 L 12.62 -5.48 L 12.785 -5.426 L 12.742 -5.382 L 12.575 -5.437 L 12.484 -5.345 L 12.386 -5.397 L 12.462 -5.474 L 12.363 -5.506 L 12.408 -5.55 L 12.505 -5.518 L 12.681 -5.689 C 12.719 -5.728 12.759 -5.751 12.809 -5.758 M 11.128 -5.829 L 10.851 -6.053 L 10.986 -6.127 L 11.207 -5.948 L 11.212 -5.946 L 11.974 -6.699 L 12.201 -6.625 L 11.328 -5.763 Z M 19.902 8.241 C 19.853 8.334 19.87 8.482 20.125 8.552 C 20.407 8.629 20.576 8.523 20.636 8.442 Z M 20.904 8.478 C 20.803 8.605 20.524 8.772 20.073 8.648 C 19.669 8.537 19.556 8.305 19.722 8.095 C 19.889 7.885 20.254 7.815 20.68 7.933 C 20.9 7.993 21.034 8.057 21.106 8.102 L 20.991 8.18 C 20.913 8.135 20.816 8.088 20.636 8.039 C 20.386 7.97 20.113 7.98 19.971 8.15 L 20.942 8.417 C 20.934 8.43 20.924 8.453 20.904 8.478 M 39.232 14.224 C 39.809 14.419 40.375 14.652 40.914 14.936 C 41.373 15.178 41.813 15.453 42.226 15.765 C 42.213 15.914 42.206 16.064 42.191 16.212 C 41.7 15.905 41.188 15.63 40.673 15.356 C 40.152 15.081 39.614 14.828 39.079 14.567 C 38.54 14.312 37.998 14.057 37.453 13.788 C 38.063 13.868 38.655 14.03 39.232 14.224 M -3.313 -7.522 C -3.176 -7.485 -3.07 -7.475 -2.996 -7.476 L -3.016 -7.362 C -3.099 -7.365 -3.245 -7.381 -3.393 -7.422 C -3.844 -7.546 -4.012 -7.781 -3.843 -7.995 C -3.674 -8.208 -3.29 -8.274 -2.873 -8.161 C -2.688 -8.109 -2.561 -8.047 -2.508 -8.011 L -2.626 -7.929 C -2.685 -7.963 -2.764 -8.008 -2.907 -8.047 C -3.181 -8.123 -3.465 -8.08 -3.593 -7.919 C -3.708 -7.774 -3.63 -7.61 -3.313 -7.522 M -2.789 -7.391 L -2.575 -7.333 L -2.274 -7.711 C -2.209 -7.792 -2.134 -7.847 -2.034 -7.865 C -1.946 -7.883 -1.837 -7.876 -1.72 -7.844 C -1.623 -7.817 -1.55 -7.79 -1.51 -7.766 L -1.597 -7.674 C -1.625 -7.687 -1.67 -7.705 -1.735 -7.722 C -1.876 -7.762 -1.963 -7.726 -2.031 -7.64 L -2.328 -7.265 L -1.969 -7.167 L -2.045 -7.07 L -2.406 -7.169 L -2.564 -6.971 L -2.783 -7.07 L -2.651 -7.236 L -2.865 -7.296 Z M 22.197 8.963 C 22.302 8.992 22.338 9.049 22.297 9.1 C 22.252 9.15 22.157 9.171 22.057 9.143 C 21.958 9.116 21.916 9.059 21.958 9.006 C 21.999 8.956 22.097 8.936 22.197 8.963 M -4.867 -7.935 C -4.585 -7.857 -4.416 -7.963 -4.355 -8.044 L -5.089 -8.246 C -5.138 -8.153 -5.121 -8.005 -4.867 -7.935 M -3.886 -8.386 L -4 -8.307 C -4.079 -8.353 -4.176 -8.398 -4.355 -8.449 C -4.606 -8.517 -4.879 -8.506 -5.021 -8.337 L -4.05 -8.07 C -4.058 -8.057 -4.068 -8.035 -4.087 -8.009 C -4.189 -7.882 -4.468 -7.715 -4.919 -7.839 C -5.322 -7.95 -5.436 -8.182 -5.269 -8.391 C -5.103 -8.601 -4.738 -8.671 -4.312 -8.554 C -4.092 -8.494 -3.958 -8.429 -3.886 -8.386 M -1.736 -6.843 C -1.636 -6.815 -1.601 -6.763 -1.637 -6.721 C -1.673 -6.677 -1.76 -6.659 -1.856 -6.685 C -1.947 -6.71 -1.984 -6.762 -1.949 -6.807 C -1.915 -6.849 -1.825 -6.867 -1.736 -6.843 M 20.888 -4.077 L 20.961 -4.148 L 22.072 -3.784 L 21.973 -3.687 L 21.193 -3.943 L 21.189 -3.94 L 21.263 -3.831 C 21.453 -3.536 21.558 -3.331 21.396 -3.173 C 21.271 -3.048 20.985 -2.973 20.611 -3.096 C 20.41 -3.161 20.276 -3.255 20.207 -3.345 L 20.364 -3.402 C 20.411 -3.343 20.502 -3.261 20.659 -3.208 C 20.919 -3.124 21.086 -3.176 21.174 -3.264 C 21.303 -3.394 21.216 -3.571 20.983 -3.927 Z M -2.357 -10.939 L -3.183 -10.009 L -3.414 -10.078 L -2.588 -11.007 Z M 22.599 8.458 C 22.705 8.486 22.741 8.542 22.7 8.592 C 22.655 8.645 22.56 8.665 22.459 8.637 C 22.361 8.609 22.318 8.552 22.361 8.5 C 22.4 8.45 22.5 8.429 22.599 8.458 M -3.247 -11.219 C -3.076 -11.17 -2.961 -11.109 -2.915 -11.074 L -3.031 -11 C -3.083 -11.033 -3.154 -11.077 -3.286 -11.116 C -3.538 -11.19 -3.806 -11.157 -3.937 -11.01 C -4.055 -10.879 -3.993 -10.724 -3.702 -10.637 C -3.576 -10.6 -3.476 -10.588 -3.407 -10.588 L -3.434 -10.483 C -3.511 -10.486 -3.647 -10.505 -3.783 -10.545 C -4.198 -10.669 -4.339 -10.89 -4.166 -11.085 C -3.994 -11.279 -3.629 -11.333 -3.247 -11.219 M 33.161 27.617 C 33.315 27.668 33.47 27.72 33.622 27.778 L 34.089 27.918 C 34.401 28.008 34.714 28.096 35.032 28.164 C 35.19 28.205 35.349 28.237 35.51 28.269 L 35.75 28.317 C 35.83 28.332 35.911 28.343 35.99 28.36 C 36.151 28.391 36.313 28.418 36.476 28.44 L 36.962 28.514 C 37.604 28.601 38.254 28.663 38.916 28.736 C 38.914 28.738 38.913 28.74 38.912 28.743 C 38.259 28.86 37.593 28.901 36.929 28.878 L 36.675 28.87 L 36.421 28.85 C 36.254 28.838 36.085 28.822 35.917 28.799 C 35.749 28.78 35.581 28.751 35.416 28.72 C 35.248 28.689 35.08 28.66 34.917 28.619 C 34.258 28.46 33.608 28.253 33.006 27.951 C 32.402 27.656 31.836 27.289 31.349 26.844 C 31.954 27.129 32.549 27.393 33.161 27.617 M 6.524 20.823 C 5.701 22.333 5.639 24.027 5.421 25.682 C 5.39 25.934 4.969 25.937 5.002 25.682 C 5.229 23.954 5.301 22.197 6.161 20.622 C 6.285 20.394 6.647 20.594 6.524 20.823 M -5.984 -10.901 C -6.07 -10.928 -6.102 -10.977 -6.065 -11.017 C -6.031 -11.057 -5.945 -11.07 -5.864 -11.047 C -5.771 -11.019 -5.742 -10.971 -5.78 -10.932 C -5.815 -10.892 -5.899 -10.876 -5.984 -10.901 M -7.06 -8.051 L -6.251 -9.068 L -6 -9 L -6.809 -7.981 Z M -7.939 -9.11 C -8.044 -8.979 -8.025 -8.806 -7.727 -8.725 C -7.431 -8.644 -7.195 -8.76 -7.102 -8.877 C -6.977 -9.034 -7.067 -9.196 -7.307 -9.262 C -7.552 -9.331 -7.817 -9.263 -7.939 -9.11 M -7.244 -9.36 C -6.909 -9.269 -6.644 -9.059 -6.848 -8.803 C -7.016 -8.591 -7.4 -8.52 -7.797 -8.628 C -8.18 -8.732 -8.374 -8.952 -8.19 -9.186 C -8.015 -9.403 -7.617 -9.462 -7.244 -9.36 M -5.326 -8.815 L -6.135 -7.797 L -6.386 -7.866 L -5.577 -8.884 Z M -6.076 -12.063 C -5.861 -11.999 -5.712 -11.927 -5.647 -11.882 L -5.774 -11.807 C -5.846 -11.855 -5.974 -11.912 -6.114 -11.953 C -6.544 -12.082 -6.917 -12.017 -7.108 -11.801 C -7.314 -11.569 -7.156 -11.355 -6.743 -11.232 C -6.595 -11.188 -6.458 -11.167 -6.354 -11.162 L -6.381 -11.053 C -6.455 -11.055 -6.616 -11.072 -6.835 -11.139 C -7.382 -11.302 -7.591 -11.601 -7.346 -11.876 C -7.088 -12.166 -6.574 -12.211 -6.076 -12.063 M -4.665 -11.626 L -4.437 -11.558 L -4.738 -11.221 C -4.755 -11.201 -4.766 -11.182 -4.776 -11.164 C -4.82 -11.067 -4.76 -10.972 -4.597 -10.924 C -4.566 -10.915 -4.542 -10.908 -4.514 -10.903 L -4.612 -10.796 C -4.635 -10.799 -4.654 -10.804 -4.681 -10.811 C -4.835 -10.857 -4.927 -10.953 -4.908 -11.055 L -4.919 -11.058 L -5.038 -10.936 L -5.24 -10.997 C -5.179 -11.052 -5.12 -11.116 -5.053 -11.19 Z M 3.149 18.358 C 3.001 19.14 2.88 19.925 2.76 20.709 C 3.807 19.774 5.068 19.037 6.383 18.56 C 6.393 18.557 6.397 18.563 6.406 18.562 C 6.409 18.187 6.442 17.811 6.504 17.435 C 6.434 17.469 6.354 17.479 6.287 17.431 C 6.051 17.259 5.794 17.092 5.532 16.922 C 5.006 16.58 4.476 16.224 4.037 15.802 C 4.034 15.842 4.029 15.884 3.994 15.921 C 3.377 16.582 3.308 17.523 3.149 18.358 M 14.143 31.947 L 13.929 32.502 C 13.682 33.616 13.737 34.612 13.801 35.765 L 13.809 35.943 C 13.829 36.054 13.845 36.168 13.86 36.284 C 13.938 36.874 14.013 37.241 14.528 37.373 L 15.045 37.501 C 16.509 37.86 18.024 38.231 19 39.58 C 19.078 39.663 19.155 39.683 19.275 39.693 C 19.696 39.405 20.064 39.092 20.421 38.789 C 21.098 38.215 21.736 37.673 22.663 37.327 C 24.943 36.613 27.295 36.135 30.065 35.823 C 30.462 35.779 30.789 35.616 30.984 35.366 C 31.146 35.16 31.21 34.901 31.172 34.615 L 31.115 34.143 C 30.833 31.826 30.567 29.638 30.745 27.469 C 30.747 27.415 30.619 27.272 30.539 27.186 C 28.515 26.354 26.966 25.853 25.213 25.46 C 23.687 25.178 22.145 24.937 20.551 24.729 C 21.039 25.125 21.837 25.778 22.8 26.567 C 25.305 28.618 28.735 31.426 30.76 33.029 C 30.851 33.102 30.867 33.234 30.794 33.326 C 30.721 33.417 30.589 33.433 30.498 33.36 C 28.47 31.755 25.039 28.945 22.533 26.894 C 21.211 25.812 20.194 24.979 19.877 24.728 C 19.849 24.706 19.842 24.672 19.829 24.641 C 18.356 24.459 16.844 24.302 15.243 24.172 C 16.109 26.792 15.11 29.411 14.143 31.947 M -28.907 2.28 L 3.168 12.53 C 3.451 11.676 4.087 10.988 4.921 10.643 C 5.369 10.458 5.83 10.382 6.293 10.382 C 7.398 10.382 8.524 10.81 9.553 11.201 C 9.878 11.324 10.194 11.444 10.498 11.546 C 10.611 11.584 10.672 11.706 10.634 11.819 C 10.597 11.931 10.476 11.993 10.361 11.955 C 10.052 11.851 9.73 11.729 9.4 11.604 C 8.013 11.077 6.441 10.48 5.086 11.042 C 4.364 11.34 3.811 11.937 3.571 12.679 C 3.329 13.427 3.424 14.235 3.831 14.897 C 4.25 15.575 5.021 16.076 5.767 16.561 C 6.036 16.735 6.299 16.907 6.541 17.082 C 6.552 17.09 6.552 17.106 6.562 17.116 C 6.875 15.629 7.673 14.205 9.166 13.256 C 9.202 13.234 9.242 13.223 9.281 13.223 C 9.353 13.223 9.422 13.258 9.463 13.323 C 9.527 13.423 9.497 13.557 9.397 13.621 C 6.816 15.259 6.418 18.437 7.139 20.692 C 7.392 21.424 7.981 21.894 8.6 22.387 C 8.667 22.437 8.735 22.486 8.803 22.532 C 9.663 23.018 10.594 23.354 11.625 23.546 C 12.272 23.623 12.929 23.628 13.599 23.619 C 14.03 23.648 14.456 23.679 14.876 23.712 C 14.888 23.711 14.899 23.71 14.911 23.709 C 14.941 23.708 14.968 23.712 14.995 23.721 C 18.746 24.015 22.05 24.438 25.299 25.038 C 27.099 25.441 28.676 25.953 30.746 26.805 C 30.774 26.816 30.799 26.834 30.82 26.856 C 30.996 27.042 31.194 27.252 31.175 27.503 C 31 29.629 31.264 31.796 31.543 34.09 L 31.6 34.561 C 31.642 34.875 31.566 35.16 31.429 35.417 C 31.443 35.45 31.463 35.48 31.457 35.521 C 31.201 37.189 31.076 38.779 31.177 40.44 C 31.051 40.575 30.918 40.704 30.791 40.837 C 30.738 40.065 30.719 39.304 30.746 38.549 C 29.245 40.195 27.925 42.106 25.537 42.585 C 25.274 42.638 25.162 42.253 25.426 42.2 C 27.907 41.703 29.192 39.56 30.785 37.903 C 30.826 37.252 30.893 36.598 30.984 35.936 C 30.742 36.101 30.448 36.214 30.113 36.252 C 27.372 36.561 25.045 37.033 22.803 37.734 C 21.958 38.05 21.347 38.569 20.7 39.118 C 20.317 39.443 19.92 39.779 19.455 40.092 C 19.416 40.119 19.365 40.136 19.321 40.128 C 19.176 40.119 18.987 40.101 18.798 39.962 C 18.59 42.342 18.57 45.033 16.025 46.254 C 15.783 46.37 15.571 46.025 15.813 45.909 C 18.306 44.713 18.182 41.993 18.403 39.698 C 18.407 39.655 18.433 39.629 18.456 39.601 C 17.559 38.572 16.288 38.25 14.942 37.92 L 14.422 37.791 C 13.598 37.58 13.506 36.893 13.433 36.341 C 13.425 36.282 13.414 36.215 13.405 36.152 C 13.403 36.153 13.404 36.155 13.403 36.156 C 11.875 37.468 10.602 38.778 8.582 39.383 C 6.498 40.006 4.249 40.072 2.094 39.82 C 1.83 39.789 1.826 39.389 2.094 39.42 C 4.128 39.658 6.23 39.614 8.21 39.072 C 10.282 38.506 11.56 37.203 13.106 35.873 C 13.195 35.796 13.299 35.816 13.375 35.871 L 13.37 35.789 C 13.308 34.653 13.249 33.581 13.517 32.379 L 13.74 31.793 C 14.744 29.161 15.693 26.671 14.778 24.149 C 13.638 24.209 12.589 24.151 11.62 23.977 C 10.593 23.858 9.563 23.568 8.575 22.897 C 8.395 22.796 8.219 22.688 8.046 22.574 C 8.036 22.568 8.026 22.563 8.019 22.56 C 8.014 22.582 8.01 22.609 8.008 22.632 C 8.287 23.324 8.052 24.164 7.457 24.63 C 2.495 29.729 -1.505 35.671 -4.771 42.797 C -5.151 43.625 -5.065 44.453 -4.523 45.191 C -3.917 45.675 -3.292 46.173 -2.685 46.507 C 1.339 48.271 5.362 49.288 8.763 50.048 C 10.936 50.479 13.098 50.829 15.246 51.146 C 14.976 51.249 14.708 51.36 14.436 51.458 C 12.526 51.168 10.606 50.853 8.674 50.47 C 5.248 49.704 1.199 48.681 -2.875 46.893 C -3.539 46.529 -4.187 46.011 -4.814 45.51 C -4.829 45.499 -4.841 45.485 -4.852 45.471 C -5.5 44.605 -5.61 43.592 -5.163 42.618 C -1.876 35.446 2.151 29.464 7.169 24.31 C 7.648 23.933 7.826 23.279 7.592 22.755 C 7.577 22.722 7.571 22.687 7.574 22.65 C 7.582 22.546 7.597 22.346 7.724 22.22 C 7.303 21.841 6.931 21.41 6.73 20.828 C 6.548 20.257 6.439 19.628 6.407 18.981 C 3.919 19.91 1.806 21.717 0.874 24.11 C 0.381 25.376 0.356 26.817 0.318 28.156 C 0.279 29.532 0.313 30.91 0.294 32.287 C 0.291 32.544 -0.128 32.544 -0.125 32.287 C -0.086 29.394 -0.505 26.141 0.713 23.419 C 1.083 22.592 1.619 21.841 2.263 21.176 C 2.263 21.174 2.261 21.173 2.262 21.171 C 2.429 20.027 2.626 18.891 2.841 17.753 C 2.987 16.977 3.133 16.244 3.698 15.639 C 3.736 15.599 3.779 15.589 3.822 15.585 C 3.691 15.439 3.566 15.289 3.464 15.124 C 3.063 14.472 2.939 13.701 3.076 12.952 L -40.857 -1.086 C -40.811 -1.222 -40.765 -1.357 -40.717 -1.493 L -29.362 2.135 L -11.266 -17.195 L -25.562 -21.562 C -25.413 -21.668 -25.261 -21.77 -25.111 -21.875 L 39.85 -2.036 C 39.912 -1.869 39.965 -1.699 40.024 -1.532 L -10.807 -17.055 Z M -5.084 -11.751 L -5.648 -11.118 L -5.878 -11.187 L -5.315 -11.819 Z" style="fill: rgb(55, 103, 246); fill-opacity: 1;"></path>
      </g>
    </g>
    <g style="clip-path: url(#clippath1);">
      <g transform="translate(44.1069 85.2134)">
        <path d="M 0 0 C -22.667 0 -41.107 -18.44 -41.107 -41.106 C -41.107 -63.772 -22.667 -82.213 0 -82.213 C 22.667 -82.213 41.107 -63.772 41.107 -41.106 C 41.107 -18.44 22.667 0 0 0 M 0 -85.213 C -24.321 -85.213 -44.107 -65.427 -44.107 -41.106 C -44.107 -16.786 -24.321 3 0 3 C 24.321 3 44.107 -16.786 44.107 -41.106 C 44.107 -65.427 24.321 -85.213 0 -85.213" style="fill: rgb(89, 34, 225); fill-opacity: 1;"></path>
      </g>
    </g>
  </g>
</svg>