<svg viewBox="0 0 56 56" xmlns="http://www.w3.org/2000/svg">
  <defs>
    <clipPath id="clippath0" transform="">
      <path d="M 0 56.332 L 56.333 56.332 L 56.333 0 L 0 0 Z" style="fill: none; clip-rule: nonzero;"></path>
    </clipPath>
  </defs>
  <g transform="matrix(1, 0, 0, -1, 0, 56)">
    <g transform="">
      <path d="M 0 56.332 L 56.333 56.332 L 56.333 0 L 0 0 Z" style="fill: none;"></path>
    </g>
    <g style="clip-path: url(#clippath0);">
      <g transform="translate(44.7134 39.0928)">
        <path d="M 0 0 L -10.976 -10.976 L 0 -21.952 C 0.303 -22.255 0.551 -22.152 0.551 -21.724 L 0.551 -0.229 C 0.551 0.199 0.303 0.303 0 0 M -12.077 -12.077 L -15.996 -15.997 C -16.148 -16.148 -16.348 -16.225 -16.547 -16.225 C -16.746 -16.225 -16.945 -16.148 -17.098 -15.997 L -21.017 -12.077 L -31.596 -22.656 L -32.116 -23.176 C -32.418 -23.479 -32.316 -23.727 -31.888 -23.727 L -1.206 -23.727 C -0.778 -23.727 -0.675 -23.479 -0.978 -23.176 Z M -22.118 -10.976 L -32.615 -0.479 L -33.094 0 C -33.396 0.303 -33.645 0.199 -33.645 -0.229 L -33.645 -21.724 C -33.645 -22.152 -33.396 -22.255 -33.094 -21.952 L -31.544 -20.402 Z M -16.547 -14.345 L -0.88 1.322 C -0.577 1.625 -0.68 1.873 -1.108 1.873 L -31.986 1.873 C -32.414 1.873 -32.517 1.625 -32.214 1.322 Z" style="fill: rgb(255, 255, 255); fill-opacity: 1;"></path>
      </g>
    </g>
  </g>
</svg>