<svg viewBox="0 0 56 56" xmlns="http://www.w3.org/2000/svg">
  <defs>
    <clipPath id="clippath1" transform="">
      <path d="M 0 56.332 L 56.333 56.332 L 56.333 0 L 0 0 Z" style="fill: none; clip-rule: nonzero;"></path>
    </clipPath>
    <clipPath id="clippath2" transform="">
      <path d="M 0 56.332 L 56.333 56.332 L 56.333 0 L 0 0 Z" style="fill: none; clip-rule: nonzero;"></path>
    </clipPath>
  </defs>
  <g transform="matrix(1, 0, 0, -1, 0, 56)">
    <g transform="">
      <path d="M 0 56.332 L 56.333 56.332 L 56.333 0 L 0 0 Z" style="fill: none;"></path>
    </g>
    <g transform="">
      <path d="M 0 56.332 L 56.333 56.332 L 56.333 0 L 0 0 Z" style="fill: none;"></path>
    </g>
    <g style="clip-path: url(#clippath2);">
      <g transform="translate(28.166 28.166)">
        <path d="M 0 0 C -3.518 0 -6.375 2.857 -6.375 6.375 C -6.375 9.893 -3.518 12.75 0 12.75 C 3.518 12.75 6.375 9.893 6.375 6.375 C 6.375 2.857 3.518 0 0 0 M 0 19.125 C -7.029 19.125 -12.75 13.404 -12.75 6.375 C -12.75 4.264 -12.221 2.172 -11.22 0.318 L -0.697 -18.714 C -0.554 -18.967 -0.292 -19.125 0 -19.125 C 0.293 -19.125 0.554 -18.967 0.697 -18.714 L 11.221 0.321 C 12.221 2.172 12.75 4.264 12.75 6.375 C 12.75 13.404 7.03 19.125 0 19.125" style="fill: rgb(255, 255, 255); fill-opacity: 1;"></path>
      </g>
    </g>
  </g>
</svg>